%TF.GenerationSoftware,KiCad,Pcbnew,9.0.3*%
%TF.CreationDate,2025-07-29T21:31:59-06:00*%
%TF.ProjectId,AIOMeltyV3,41494f4d-656c-4747-9956-332e6b696361,rev?*%
%TF.SameCoordinates,Original*%
%TF.FileFunction,Copper,L2,Bot*%
%TF.FilePolarity,Positive*%
%FSLAX46Y46*%
G04 Gerber Fmt 4.6, Leading zero omitted, Abs format (unit mm)*
G04 Created by KiCad (PCBNEW 9.0.3) date 2025-07-29 21:31:59*
%MOMM*%
%LPD*%
G01*
G04 APERTURE LIST*
%TA.AperFunction,ComponentPad*%
%ADD10C,2.600000*%
%TD*%
%TA.AperFunction,ConnectorPad*%
%ADD11C,3.800000*%
%TD*%
%TA.AperFunction,ComponentPad*%
%ADD12R,1.800000X1.800000*%
%TD*%
%TA.AperFunction,ComponentPad*%
%ADD13C,1.800000*%
%TD*%
%TA.AperFunction,ComponentPad*%
%ADD14O,1.000000X2.200000*%
%TD*%
%TA.AperFunction,ComponentPad*%
%ADD15O,1.000000X1.800000*%
%TD*%
%TA.AperFunction,ViaPad*%
%ADD16C,0.600000*%
%TD*%
%TA.AperFunction,Conductor*%
%ADD17C,0.200000*%
%TD*%
G04 APERTURE END LIST*
D10*
%TO.P,REF\u002A\u002A,1*%
%TO.N,N/C*%
X166150000Y-92650000D03*
D11*
%TO.N,GND*%
X166150000Y-92650000D03*
%TD*%
D12*
%TO.P,D2,1,K*%
%TO.N,GND*%
X167650000Y-112450000D03*
D13*
%TO.P,D2,2,A*%
%TO.N,Net-(D2-A)*%
X170190000Y-112450000D03*
%TD*%
D12*
%TO.P,D1,1,K*%
%TO.N,GND*%
X136350000Y-112450000D03*
D13*
%TO.P,D1,2,A*%
%TO.N,Net-(D1-A)*%
X138890000Y-112450000D03*
%TD*%
D10*
%TO.P,REF\u002A\u002A,1*%
%TO.N,N/C*%
X140350000Y-92650000D03*
D11*
%TO.N,GND*%
X140350000Y-92650000D03*
%TD*%
D14*
%TO.P,J1,SH1,SHELL_GND*%
%TO.N,GND*%
X147630000Y-114437500D03*
D15*
%TO.P,J1,SH2,SHELL_GND*%
X158870000Y-110437500D03*
%TO.P,J1,SH3,SHELL_GND*%
X147630000Y-110437500D03*
D14*
%TO.P,J1,SH4,SHELL_GND*%
X158870000Y-114437500D03*
%TD*%
D16*
%TO.N,GND*%
X137000000Y-104000000D03*
X170150000Y-92050000D03*
%TO.N,+3V3*%
X143200000Y-92500000D03*
X162350000Y-91050000D03*
%TO.N,GND*%
X157000000Y-97500000D03*
X159000000Y-108500000D03*
X164500000Y-107000000D03*
X149350000Y-94050000D03*
X136050000Y-104350000D03*
X165650000Y-98050000D03*
X144500000Y-108500000D03*
X169850000Y-95350000D03*
X141000000Y-96000000D03*
X165150000Y-95550000D03*
X144950735Y-93149265D03*
X154000000Y-102000000D03*
X165050000Y-103050000D03*
X157750000Y-107750000D03*
X162500000Y-111500000D03*
X138000000Y-95000000D03*
X136950000Y-100350000D03*
X147350000Y-108550000D03*
X139000000Y-101500000D03*
X148950000Y-108250000D03*
X164000000Y-96000000D03*
X139650000Y-95350000D03*
X148000000Y-96500000D03*
X158500000Y-94500000D03*
X141950000Y-99350000D03*
X158500000Y-101000000D03*
X170650000Y-108050000D03*
X140950000Y-112250000D03*
X161650000Y-98850000D03*
X165500000Y-115000000D03*
X145000000Y-113000000D03*
X162000000Y-113000000D03*
X147500000Y-94500000D03*
X157500000Y-102000000D03*
X150750000Y-100450000D03*
X160050000Y-112150000D03*
X136350000Y-92550000D03*
X142850000Y-91650000D03*
X146650000Y-112050000D03*
X168350000Y-108050000D03*
X164000000Y-113000000D03*
X151000000Y-107000000D03*
X158350000Y-92550000D03*
X161250000Y-107250000D03*
X135500000Y-101000000D03*
X168000000Y-109000000D03*
X135000000Y-95500000D03*
X171500000Y-114000000D03*
X168650000Y-114950000D03*
X155750000Y-100450000D03*
X139500000Y-96500000D03*
X143500000Y-109500000D03*
X144750000Y-105150000D03*
X169400000Y-99400000D03*
X163250000Y-100250000D03*
X167500000Y-96000000D03*
X142500000Y-108500000D03*
X170650000Y-102950000D03*
X140500000Y-114000000D03*
X150000000Y-106300000D03*
X139550000Y-114650000D03*
X158500000Y-96500000D03*
%TO.N,+5V*%
X148250000Y-106050000D03*
X141050000Y-105950000D03*
X156150000Y-106050000D03*
X145650000Y-106050000D03*
%TO.N,SCL*%
X162950000Y-104650000D03*
X161500000Y-103000000D03*
X167950000Y-103650000D03*
X151000000Y-102000000D03*
X166250000Y-98650000D03*
%TO.N,USB1_P*%
X154550000Y-107850000D03*
X153150000Y-107850000D03*
%TO.N,SDA*%
X164120000Y-105650000D03*
X168250000Y-98650000D03*
X168450000Y-104750000D03*
X147557519Y-100833505D03*
%TO.N,Net-(U3-EN)*%
X162288018Y-105299999D03*
X161750000Y-93750000D03*
%TO.N,Power*%
X142850000Y-105450000D03*
X144575000Y-103950000D03*
%TO.N,PWM1*%
X144850000Y-102550000D03*
X142750000Y-102550000D03*
%TO.N,PWM2*%
X162450000Y-97650000D03*
X164150000Y-97750000D03*
%TD*%
D17*
%TO.N,+3V3*%
X144650000Y-91050000D02*
X162350000Y-91050000D01*
X143200000Y-92500000D02*
X144650000Y-91050000D01*
%TO.N,+5V*%
X156150000Y-106050000D02*
X154450000Y-104350000D01*
X149950000Y-104350000D02*
X148250000Y-106050000D01*
X145650000Y-106050000D02*
X141150000Y-106050000D01*
X141150000Y-106050000D02*
X141050000Y-105950000D01*
X154450000Y-104350000D02*
X149950000Y-104350000D01*
%TO.N,SCL*%
X162950000Y-104650000D02*
X167650000Y-104650000D01*
X152000000Y-103000000D02*
X151000000Y-102000000D01*
X166250000Y-98650000D02*
X167350000Y-99750000D01*
X167350000Y-99750000D02*
X167350000Y-103050000D01*
X167350000Y-103050000D02*
X167950000Y-103650000D01*
X167950000Y-104350000D02*
X167950000Y-103650000D01*
X161500000Y-103000000D02*
X152000000Y-103000000D01*
X167650000Y-104650000D02*
X167950000Y-104350000D01*
%TO.N,USB1_P*%
X153150000Y-107850000D02*
X154550000Y-107850000D01*
%TO.N,SDA*%
X148183448Y-100833505D02*
X150999943Y-103650000D01*
X147601000Y-100876986D02*
X147601000Y-100899000D01*
X168150000Y-105950000D02*
X164420000Y-105950000D01*
X168450000Y-104750000D02*
X168550000Y-104650000D01*
X162699999Y-105899999D02*
X162949998Y-105650000D01*
X147601000Y-100899000D02*
X147500000Y-101000000D01*
X168450000Y-104750000D02*
X168450000Y-105650000D01*
X162949998Y-105650000D02*
X164120000Y-105650000D01*
X168550000Y-98950000D02*
X168250000Y-98650000D01*
X150999943Y-103650000D02*
X161450000Y-103650000D01*
X147557519Y-100833505D02*
X148183448Y-100833505D01*
X161450000Y-105310510D02*
X162039489Y-105899999D01*
X161450000Y-103650000D02*
X161450000Y-105310510D01*
X168550000Y-104650000D02*
X168550000Y-98950000D01*
X147557519Y-100833505D02*
X147601000Y-100876986D01*
X162039489Y-105899999D02*
X162699999Y-105899999D01*
X164420000Y-105950000D02*
X164120000Y-105650000D01*
X168450000Y-105650000D02*
X168150000Y-105950000D01*
%TO.N,Net-(U3-EN)*%
X162234998Y-98586469D02*
X162234998Y-98283527D01*
X162288018Y-105299999D02*
X162350000Y-105238017D01*
X162250000Y-99098529D02*
X162250000Y-98601471D01*
X162350000Y-105238017D02*
X162350000Y-103350000D01*
X162234998Y-98283527D02*
X161750000Y-97798529D01*
X162250000Y-98601471D02*
X162234998Y-98586469D01*
X162234998Y-99113531D02*
X162250000Y-99098529D01*
X162234998Y-103234998D02*
X162234998Y-99113531D01*
X161750000Y-97798529D02*
X161750000Y-93750000D01*
X162350000Y-103350000D02*
X162234998Y-103234998D01*
%TO.N,Power*%
X144550000Y-103950000D02*
X144575000Y-103950000D01*
X144350000Y-104150000D02*
X144550000Y-103950000D01*
X142850000Y-105450000D02*
X143050000Y-105450000D01*
X143050000Y-105450000D02*
X144350000Y-104150000D01*
%TO.N,PWM1*%
X144850000Y-102550000D02*
X142750000Y-102550000D01*
%TO.N,PWM2*%
X162550000Y-97750000D02*
X162450000Y-97650000D01*
X164150000Y-97750000D02*
X162550000Y-97750000D01*
%TD*%
%TA.AperFunction,Conductor*%
%TO.N,GND*%
G36*
X170974505Y-90348359D02*
G01*
X170996737Y-90350053D01*
X171187969Y-90364625D01*
X171206576Y-90367477D01*
X171410480Y-90414818D01*
X171428441Y-90420455D01*
X171622832Y-90498145D01*
X171639733Y-90506440D01*
X171820103Y-90612676D01*
X171835551Y-90623435D01*
X171997748Y-90755772D01*
X172011390Y-90768748D01*
X172026374Y-90785345D01*
X172151663Y-90924124D01*
X172163189Y-90939027D01*
X172278300Y-91113853D01*
X172287435Y-91130330D01*
X172374732Y-91320577D01*
X172381266Y-91338246D01*
X172438737Y-91539528D01*
X172442518Y-91557985D01*
X172468318Y-91761596D01*
X172469302Y-91777294D01*
X172449565Y-113975745D01*
X172449500Y-113976753D01*
X172449500Y-114045572D01*
X172449184Y-114054419D01*
X172434869Y-114254557D01*
X172432351Y-114272068D01*
X172390646Y-114463787D01*
X172385662Y-114480763D01*
X172317090Y-114664609D01*
X172309740Y-114680701D01*
X172215711Y-114852904D01*
X172206146Y-114867789D01*
X172088558Y-115024867D01*
X172076972Y-115038237D01*
X171938237Y-115176972D01*
X171924867Y-115188558D01*
X171767789Y-115306146D01*
X171752904Y-115315711D01*
X171580701Y-115409740D01*
X171564609Y-115417090D01*
X171380763Y-115485662D01*
X171363787Y-115490646D01*
X171172068Y-115532351D01*
X171154556Y-115534869D01*
X170954483Y-115549178D01*
X170945518Y-115549494D01*
X159930138Y-115538966D01*
X159863118Y-115519217D01*
X159817413Y-115466370D01*
X159807536Y-115397202D01*
X159815696Y-115367512D01*
X159831571Y-115329185D01*
X159831572Y-115329181D01*
X159869999Y-115135995D01*
X159870000Y-115135992D01*
X159870000Y-114687500D01*
X159170000Y-114687500D01*
X159170000Y-114187500D01*
X159870000Y-114187500D01*
X159870000Y-113739008D01*
X159869999Y-113739004D01*
X159831572Y-113545818D01*
X159831569Y-113545806D01*
X159756192Y-113363828D01*
X159756185Y-113363815D01*
X159646751Y-113200037D01*
X159646748Y-113200033D01*
X159507466Y-113060751D01*
X159507462Y-113060748D01*
X159343684Y-112951314D01*
X159343671Y-112951307D01*
X159161691Y-112875929D01*
X159161683Y-112875927D01*
X159120000Y-112867635D01*
X159120000Y-113670511D01*
X159110060Y-113653295D01*
X159054205Y-113597440D01*
X158985796Y-113557944D01*
X158909496Y-113537500D01*
X158830504Y-113537500D01*
X158754204Y-113557944D01*
X158685795Y-113597440D01*
X158629940Y-113653295D01*
X158620000Y-113670511D01*
X158620000Y-112867636D01*
X158619999Y-112867635D01*
X158578316Y-112875927D01*
X158578308Y-112875929D01*
X158541952Y-112890989D01*
X158472483Y-112898458D01*
X158410004Y-112867183D01*
X158374352Y-112807094D01*
X158370500Y-112776428D01*
X158370500Y-111898571D01*
X158390185Y-111831532D01*
X158442989Y-111785777D01*
X158512147Y-111775833D01*
X158541954Y-111784010D01*
X158578312Y-111799070D01*
X158620000Y-111807362D01*
X158620000Y-111004488D01*
X158629940Y-111021705D01*
X158685795Y-111077560D01*
X158754204Y-111117056D01*
X158830504Y-111137500D01*
X158909496Y-111137500D01*
X158985796Y-111117056D01*
X159054205Y-111077560D01*
X159110060Y-111021705D01*
X159120000Y-111004488D01*
X159120000Y-111807362D01*
X159161690Y-111799069D01*
X159161692Y-111799069D01*
X159343671Y-111723692D01*
X159343684Y-111723685D01*
X159507462Y-111614251D01*
X159507466Y-111614248D01*
X159619559Y-111502155D01*
X166250000Y-111502155D01*
X166250000Y-112200000D01*
X167274722Y-112200000D01*
X167230667Y-112276306D01*
X167200000Y-112390756D01*
X167200000Y-112509244D01*
X167230667Y-112623694D01*
X167274722Y-112700000D01*
X166250000Y-112700000D01*
X166250000Y-113397844D01*
X166256401Y-113457372D01*
X166256403Y-113457379D01*
X166306645Y-113592086D01*
X166306649Y-113592093D01*
X166392809Y-113707187D01*
X166392812Y-113707190D01*
X166507906Y-113793350D01*
X166507913Y-113793354D01*
X166642620Y-113843596D01*
X166642627Y-113843598D01*
X166702155Y-113849999D01*
X166702172Y-113850000D01*
X167400000Y-113850000D01*
X167400000Y-112825277D01*
X167476306Y-112869333D01*
X167590756Y-112900000D01*
X167709244Y-112900000D01*
X167823694Y-112869333D01*
X167900000Y-112825277D01*
X167900000Y-113850000D01*
X168597828Y-113850000D01*
X168597844Y-113849999D01*
X168657372Y-113843598D01*
X168657379Y-113843596D01*
X168792086Y-113793354D01*
X168792093Y-113793350D01*
X168907187Y-113707190D01*
X168907190Y-113707187D01*
X168993350Y-113592093D01*
X168993354Y-113592086D01*
X169043596Y-113457379D01*
X169043598Y-113457372D01*
X169049999Y-113397844D01*
X169050000Y-113397827D01*
X169050000Y-113134840D01*
X169069685Y-113067801D01*
X169122489Y-113022046D01*
X169191647Y-113012102D01*
X169255203Y-113041127D01*
X169274316Y-113061952D01*
X169350586Y-113166928D01*
X169473072Y-113289414D01*
X169613212Y-113391232D01*
X169767555Y-113469873D01*
X169932299Y-113523402D01*
X170103389Y-113550500D01*
X170103390Y-113550500D01*
X170276610Y-113550500D01*
X170276611Y-113550500D01*
X170447701Y-113523402D01*
X170612445Y-113469873D01*
X170766788Y-113391232D01*
X170906928Y-113289414D01*
X171029414Y-113166928D01*
X171131232Y-113026788D01*
X171209873Y-112872445D01*
X171263402Y-112707701D01*
X171290500Y-112536611D01*
X171290500Y-112363389D01*
X171263402Y-112192299D01*
X171209873Y-112027555D01*
X171131232Y-111873212D01*
X171029414Y-111733072D01*
X170906928Y-111610586D01*
X170766788Y-111508768D01*
X170612445Y-111430127D01*
X170447701Y-111376598D01*
X170447699Y-111376597D01*
X170447698Y-111376597D01*
X170316271Y-111355781D01*
X170276611Y-111349500D01*
X170103389Y-111349500D01*
X170063728Y-111355781D01*
X169932302Y-111376597D01*
X169767552Y-111430128D01*
X169613211Y-111508768D01*
X169533256Y-111566859D01*
X169473072Y-111610586D01*
X169473070Y-111610588D01*
X169473069Y-111610588D01*
X169350587Y-111733070D01*
X169274318Y-111838045D01*
X169218987Y-111880711D01*
X169149374Y-111886689D01*
X169087579Y-111854083D01*
X169053222Y-111793244D01*
X169050000Y-111765159D01*
X169050000Y-111502172D01*
X169049999Y-111502155D01*
X169043598Y-111442627D01*
X169043596Y-111442620D01*
X168993354Y-111307913D01*
X168993350Y-111307906D01*
X168907190Y-111192812D01*
X168907187Y-111192809D01*
X168792093Y-111106649D01*
X168792086Y-111106645D01*
X168657379Y-111056403D01*
X168657372Y-111056401D01*
X168597844Y-111050000D01*
X167900000Y-111050000D01*
X167900000Y-112074722D01*
X167823694Y-112030667D01*
X167709244Y-112000000D01*
X167590756Y-112000000D01*
X167476306Y-112030667D01*
X167400000Y-112074722D01*
X167400000Y-111050000D01*
X166702155Y-111050000D01*
X166642627Y-111056401D01*
X166642620Y-111056403D01*
X166507913Y-111106645D01*
X166507906Y-111106649D01*
X166392812Y-111192809D01*
X166392809Y-111192812D01*
X166306649Y-111307906D01*
X166306645Y-111307913D01*
X166256403Y-111442620D01*
X166256401Y-111442627D01*
X166250000Y-111502155D01*
X159619559Y-111502155D01*
X159646748Y-111474966D01*
X159676822Y-111429959D01*
X159676823Y-111429957D01*
X159756185Y-111311184D01*
X159756192Y-111311171D01*
X159831569Y-111129193D01*
X159831572Y-111129181D01*
X159869999Y-110935995D01*
X159870000Y-110935992D01*
X159870000Y-110687500D01*
X159170000Y-110687500D01*
X159170000Y-110187500D01*
X159870000Y-110187500D01*
X159870000Y-109939008D01*
X159869999Y-109939004D01*
X159831572Y-109745818D01*
X159831569Y-109745806D01*
X159756192Y-109563828D01*
X159756185Y-109563815D01*
X159646751Y-109400037D01*
X159646748Y-109400033D01*
X159507466Y-109260751D01*
X159507462Y-109260748D01*
X159343684Y-109151314D01*
X159343671Y-109151307D01*
X159161691Y-109075929D01*
X159161683Y-109075927D01*
X159120000Y-109067635D01*
X159120000Y-109870511D01*
X159110060Y-109853295D01*
X159054205Y-109797440D01*
X158985796Y-109757944D01*
X158909496Y-109737500D01*
X158830504Y-109737500D01*
X158754204Y-109757944D01*
X158685795Y-109797440D01*
X158629940Y-109853295D01*
X158620000Y-109870511D01*
X158620000Y-109067636D01*
X158619999Y-109067635D01*
X158578316Y-109075927D01*
X158578308Y-109075929D01*
X158396328Y-109151307D01*
X158396315Y-109151314D01*
X158295271Y-109218831D01*
X158228594Y-109239709D01*
X158161214Y-109221225D01*
X158138699Y-109203410D01*
X158062162Y-109126873D01*
X157922860Y-109033795D01*
X157768082Y-108969684D01*
X157768074Y-108969682D01*
X157603771Y-108937000D01*
X157603767Y-108937000D01*
X157530735Y-108937000D01*
X157526461Y-108936926D01*
X157459421Y-108934614D01*
X157459416Y-108934614D01*
X157305709Y-108959715D01*
X157305703Y-108959717D01*
X157159845Y-109014325D01*
X157027440Y-109096340D01*
X157027437Y-109096342D01*
X156913582Y-109202607D01*
X156913578Y-109202610D01*
X156854032Y-109285403D01*
X156798907Y-109328334D01*
X156753365Y-109337000D01*
X149746635Y-109337000D01*
X149679596Y-109317315D01*
X149645968Y-109285403D01*
X149628235Y-109260748D01*
X149586421Y-109202610D01*
X149472560Y-109096340D01*
X149340154Y-109014325D01*
X149194296Y-108959717D01*
X149194290Y-108959715D01*
X149040583Y-108934614D01*
X149040578Y-108934614D01*
X148973539Y-108936926D01*
X148969265Y-108937000D01*
X148896228Y-108937000D01*
X148731925Y-108969682D01*
X148731917Y-108969684D01*
X148577139Y-109033795D01*
X148437837Y-109126873D01*
X148437834Y-109126876D01*
X148361301Y-109203410D01*
X148299978Y-109236895D01*
X148230286Y-109231911D01*
X148204729Y-109218831D01*
X148103684Y-109151314D01*
X148103671Y-109151307D01*
X147921691Y-109075929D01*
X147921683Y-109075927D01*
X147880000Y-109067635D01*
X147880000Y-109870511D01*
X147870060Y-109853295D01*
X147814205Y-109797440D01*
X147745796Y-109757944D01*
X147669496Y-109737500D01*
X147590504Y-109737500D01*
X147514204Y-109757944D01*
X147445795Y-109797440D01*
X147389940Y-109853295D01*
X147380000Y-109870511D01*
X147380000Y-109067636D01*
X147379999Y-109067635D01*
X147338316Y-109075927D01*
X147338308Y-109075929D01*
X147156328Y-109151307D01*
X147156315Y-109151314D01*
X146992537Y-109260748D01*
X146992533Y-109260751D01*
X146853251Y-109400033D01*
X146853248Y-109400037D01*
X146743814Y-109563815D01*
X146743807Y-109563828D01*
X146668430Y-109745806D01*
X146668427Y-109745818D01*
X146630000Y-109939004D01*
X146630000Y-110187500D01*
X147330000Y-110187500D01*
X147330000Y-110687500D01*
X146630000Y-110687500D01*
X146630000Y-110935995D01*
X146668427Y-111129181D01*
X146668430Y-111129193D01*
X146743807Y-111311171D01*
X146743814Y-111311184D01*
X146853248Y-111474962D01*
X146853251Y-111474966D01*
X146992533Y-111614248D01*
X146992537Y-111614251D01*
X147156315Y-111723685D01*
X147156328Y-111723692D01*
X147338308Y-111799069D01*
X147380000Y-111807362D01*
X147380000Y-111004488D01*
X147389940Y-111021705D01*
X147445795Y-111077560D01*
X147514204Y-111117056D01*
X147590504Y-111137500D01*
X147669496Y-111137500D01*
X147745796Y-111117056D01*
X147814205Y-111077560D01*
X147870060Y-111021705D01*
X147880000Y-111004488D01*
X147880000Y-111807362D01*
X147921687Y-111799070D01*
X147958046Y-111784010D01*
X148027516Y-111776541D01*
X148089995Y-111807815D01*
X148125648Y-111867904D01*
X148129500Y-111898571D01*
X148129500Y-112776428D01*
X148109815Y-112843467D01*
X148057011Y-112889222D01*
X147987853Y-112899166D01*
X147958048Y-112890989D01*
X147921691Y-112875929D01*
X147921683Y-112875927D01*
X147880000Y-112867635D01*
X147880000Y-113670511D01*
X147870060Y-113653295D01*
X147814205Y-113597440D01*
X147745796Y-113557944D01*
X147669496Y-113537500D01*
X147590504Y-113537500D01*
X147514204Y-113557944D01*
X147445795Y-113597440D01*
X147389940Y-113653295D01*
X147380000Y-113670511D01*
X147380000Y-112867636D01*
X147379999Y-112867635D01*
X147338316Y-112875927D01*
X147338308Y-112875929D01*
X147156328Y-112951307D01*
X147156315Y-112951314D01*
X146992537Y-113060748D01*
X146992533Y-113060751D01*
X146853251Y-113200033D01*
X146853248Y-113200037D01*
X146743814Y-113363815D01*
X146743807Y-113363828D01*
X146668430Y-113545806D01*
X146668427Y-113545818D01*
X146630000Y-113739004D01*
X146630000Y-114187500D01*
X147330000Y-114187500D01*
X147330000Y-114687500D01*
X146630000Y-114687500D01*
X146630000Y-115135995D01*
X146668427Y-115329181D01*
X146668429Y-115329188D01*
X146684283Y-115367465D01*
X146691750Y-115436935D01*
X146660475Y-115499413D01*
X146600385Y-115535065D01*
X146569836Y-115538916D01*
X135228705Y-115549473D01*
X135213008Y-115548490D01*
X135008866Y-115522632D01*
X134990414Y-115518853D01*
X134789130Y-115461391D01*
X134771469Y-115454861D01*
X134581219Y-115367570D01*
X134564742Y-115358435D01*
X134389920Y-115243334D01*
X134375016Y-115231808D01*
X134219646Y-115091547D01*
X134206661Y-115077897D01*
X134074330Y-114915712D01*
X134063563Y-114900252D01*
X134044442Y-114867789D01*
X133957332Y-114719895D01*
X133949038Y-114702995D01*
X133871349Y-114508606D01*
X133865713Y-114490650D01*
X133818374Y-114286750D01*
X133815522Y-114268141D01*
X133799265Y-114054773D01*
X133798907Y-114045558D01*
X133798907Y-113984108D01*
X133798805Y-113983729D01*
X133794983Y-111502155D01*
X134950000Y-111502155D01*
X134950000Y-112200000D01*
X135974722Y-112200000D01*
X135930667Y-112276306D01*
X135900000Y-112390756D01*
X135900000Y-112509244D01*
X135930667Y-112623694D01*
X135974722Y-112700000D01*
X134950000Y-112700000D01*
X134950000Y-113397844D01*
X134956401Y-113457372D01*
X134956403Y-113457379D01*
X135006645Y-113592086D01*
X135006649Y-113592093D01*
X135092809Y-113707187D01*
X135092812Y-113707190D01*
X135207906Y-113793350D01*
X135207913Y-113793354D01*
X135342620Y-113843596D01*
X135342627Y-113843598D01*
X135402155Y-113849999D01*
X135402172Y-113850000D01*
X136100000Y-113850000D01*
X136100000Y-112825277D01*
X136176306Y-112869333D01*
X136290756Y-112900000D01*
X136409244Y-112900000D01*
X136523694Y-112869333D01*
X136600000Y-112825277D01*
X136600000Y-113850000D01*
X137297828Y-113850000D01*
X137297844Y-113849999D01*
X137357372Y-113843598D01*
X137357379Y-113843596D01*
X137492086Y-113793354D01*
X137492093Y-113793350D01*
X137607187Y-113707190D01*
X137643559Y-113658605D01*
X137643560Y-113658603D01*
X137693350Y-113592093D01*
X137693354Y-113592086D01*
X137743596Y-113457379D01*
X137743598Y-113457372D01*
X137749999Y-113397844D01*
X137750000Y-113397827D01*
X137750000Y-113134840D01*
X137769685Y-113067801D01*
X137822489Y-113022046D01*
X137891647Y-113012102D01*
X137955203Y-113041127D01*
X137974316Y-113061952D01*
X138050586Y-113166928D01*
X138173072Y-113289414D01*
X138313212Y-113391232D01*
X138467555Y-113469873D01*
X138632299Y-113523402D01*
X138803389Y-113550500D01*
X138803390Y-113550500D01*
X138976610Y-113550500D01*
X138976611Y-113550500D01*
X139147701Y-113523402D01*
X139312445Y-113469873D01*
X139466788Y-113391232D01*
X139606928Y-113289414D01*
X139729414Y-113166928D01*
X139831232Y-113026788D01*
X139909873Y-112872445D01*
X139963402Y-112707701D01*
X139990500Y-112536611D01*
X139990500Y-112363389D01*
X139963402Y-112192299D01*
X139909873Y-112027555D01*
X139831232Y-111873212D01*
X139729414Y-111733072D01*
X139606928Y-111610586D01*
X139466788Y-111508768D01*
X139312445Y-111430127D01*
X139147701Y-111376598D01*
X139147699Y-111376597D01*
X139147698Y-111376597D01*
X139016271Y-111355781D01*
X138976611Y-111349500D01*
X138803389Y-111349500D01*
X138763728Y-111355781D01*
X138632302Y-111376597D01*
X138467552Y-111430128D01*
X138313211Y-111508768D01*
X138233256Y-111566859D01*
X138173072Y-111610586D01*
X138173070Y-111610588D01*
X138173069Y-111610588D01*
X138050587Y-111733070D01*
X137974318Y-111838045D01*
X137918987Y-111880711D01*
X137849374Y-111886689D01*
X137787579Y-111854083D01*
X137753222Y-111793244D01*
X137750000Y-111765159D01*
X137750000Y-111502172D01*
X137749999Y-111502155D01*
X137743598Y-111442627D01*
X137743596Y-111442620D01*
X137693354Y-111307913D01*
X137693350Y-111307906D01*
X137607190Y-111192812D01*
X137607187Y-111192809D01*
X137492093Y-111106649D01*
X137492086Y-111106645D01*
X137357379Y-111056403D01*
X137357372Y-111056401D01*
X137297844Y-111050000D01*
X136600000Y-111050000D01*
X136600000Y-112074722D01*
X136523694Y-112030667D01*
X136409244Y-112000000D01*
X136290756Y-112000000D01*
X136176306Y-112030667D01*
X136100000Y-112074722D01*
X136100000Y-111050000D01*
X135402155Y-111050000D01*
X135342627Y-111056401D01*
X135342620Y-111056403D01*
X135207913Y-111106645D01*
X135207906Y-111106649D01*
X135092812Y-111192809D01*
X135092809Y-111192812D01*
X135006649Y-111307906D01*
X135006645Y-111307913D01*
X134956403Y-111442620D01*
X134956401Y-111442627D01*
X134950000Y-111502155D01*
X133794983Y-111502155D01*
X133789256Y-107784108D01*
X152649500Y-107784108D01*
X152649500Y-107915891D01*
X152683608Y-108043187D01*
X152716554Y-108100250D01*
X152749500Y-108157314D01*
X152842686Y-108250500D01*
X152956814Y-108316392D01*
X153084108Y-108350500D01*
X153084110Y-108350500D01*
X153215890Y-108350500D01*
X153215892Y-108350500D01*
X153343186Y-108316392D01*
X153457314Y-108250500D01*
X153520995Y-108186819D01*
X153582318Y-108153334D01*
X153608676Y-108150500D01*
X154091324Y-108150500D01*
X154158363Y-108170185D01*
X154179005Y-108186819D01*
X154242686Y-108250500D01*
X154356814Y-108316392D01*
X154484108Y-108350500D01*
X154484110Y-108350500D01*
X154615890Y-108350500D01*
X154615892Y-108350500D01*
X154743186Y-108316392D01*
X154857314Y-108250500D01*
X154950500Y-108157314D01*
X155016392Y-108043186D01*
X155050500Y-107915892D01*
X155050500Y-107784108D01*
X155016392Y-107656814D01*
X154950500Y-107542686D01*
X154857314Y-107449500D01*
X154800250Y-107416554D01*
X154743187Y-107383608D01*
X154679539Y-107366554D01*
X154615892Y-107349500D01*
X154484108Y-107349500D01*
X154356812Y-107383608D01*
X154242686Y-107449500D01*
X154242683Y-107449502D01*
X154179005Y-107513181D01*
X154117682Y-107546666D01*
X154091324Y-107549500D01*
X153608676Y-107549500D01*
X153541637Y-107529815D01*
X153520995Y-107513181D01*
X153457316Y-107449502D01*
X153457314Y-107449500D01*
X153400250Y-107416554D01*
X153343187Y-107383608D01*
X153279539Y-107366554D01*
X153215892Y-107349500D01*
X153084108Y-107349500D01*
X152956812Y-107383608D01*
X152842686Y-107449500D01*
X152842683Y-107449502D01*
X152749502Y-107542683D01*
X152749500Y-107542686D01*
X152683608Y-107656812D01*
X152649500Y-107784108D01*
X133789256Y-107784108D01*
X133786330Y-105884108D01*
X140549500Y-105884108D01*
X140549500Y-106015892D01*
X140552164Y-106025833D01*
X140583608Y-106143187D01*
X140610902Y-106190460D01*
X140649500Y-106257314D01*
X140742686Y-106350500D01*
X140841521Y-106407563D01*
X140856810Y-106416390D01*
X140856814Y-106416392D01*
X140984108Y-106450500D01*
X140984110Y-106450500D01*
X141115890Y-106450500D01*
X141115892Y-106450500D01*
X141243186Y-106416392D01*
X141328540Y-106367113D01*
X141390540Y-106350500D01*
X145191324Y-106350500D01*
X145258363Y-106370185D01*
X145279005Y-106386819D01*
X145342686Y-106450500D01*
X145456814Y-106516392D01*
X145584108Y-106550500D01*
X145584110Y-106550500D01*
X145715890Y-106550500D01*
X145715892Y-106550500D01*
X145843186Y-106516392D01*
X145957314Y-106450500D01*
X146050500Y-106357314D01*
X146116392Y-106243186D01*
X146150500Y-106115892D01*
X146150500Y-105984108D01*
X146116392Y-105856814D01*
X146050500Y-105742686D01*
X145957314Y-105649500D01*
X145894408Y-105613181D01*
X145843187Y-105583608D01*
X145761976Y-105561848D01*
X145715892Y-105549500D01*
X145584108Y-105549500D01*
X145456812Y-105583608D01*
X145342686Y-105649500D01*
X145342683Y-105649502D01*
X145279005Y-105713181D01*
X145217682Y-105746666D01*
X145191324Y-105749500D01*
X143474832Y-105749500D01*
X143407793Y-105729815D01*
X143362038Y-105677011D01*
X143352094Y-105607853D01*
X143381119Y-105544297D01*
X143387151Y-105537819D01*
X144438151Y-104486819D01*
X144499474Y-104453334D01*
X144525832Y-104450500D01*
X144640890Y-104450500D01*
X144640892Y-104450500D01*
X144768186Y-104416392D01*
X144882314Y-104350500D01*
X144975500Y-104257314D01*
X145041392Y-104143186D01*
X145075500Y-104015892D01*
X145075500Y-103884108D01*
X145041392Y-103756814D01*
X144975500Y-103642686D01*
X144882314Y-103549500D01*
X144803546Y-103504023D01*
X144768187Y-103483608D01*
X144703934Y-103466392D01*
X144640892Y-103449500D01*
X144509108Y-103449500D01*
X144381812Y-103483608D01*
X144267686Y-103549500D01*
X144267683Y-103549502D01*
X144174502Y-103642683D01*
X144174500Y-103642686D01*
X144108608Y-103756812D01*
X144074500Y-103884108D01*
X144074500Y-103949166D01*
X144054815Y-104016205D01*
X144038181Y-104036847D01*
X143131849Y-104943178D01*
X143070526Y-104976663D01*
X143012075Y-104975272D01*
X142993090Y-104970185D01*
X142915892Y-104949500D01*
X142784108Y-104949500D01*
X142656812Y-104983608D01*
X142542686Y-105049500D01*
X142542683Y-105049502D01*
X142449502Y-105142683D01*
X142449500Y-105142686D01*
X142383608Y-105256812D01*
X142349500Y-105384108D01*
X142349500Y-105515891D01*
X142370270Y-105593407D01*
X142368607Y-105663257D01*
X142329444Y-105721119D01*
X142265216Y-105748623D01*
X142250495Y-105749500D01*
X141583760Y-105749500D01*
X141516721Y-105729815D01*
X141476373Y-105687500D01*
X141450500Y-105642686D01*
X141357314Y-105549500D01*
X141294408Y-105513181D01*
X141243187Y-105483608D01*
X141143188Y-105456814D01*
X141115892Y-105449500D01*
X140984108Y-105449500D01*
X140856812Y-105483608D01*
X140742686Y-105549500D01*
X140742683Y-105549502D01*
X140649502Y-105642683D01*
X140649500Y-105642686D01*
X140583608Y-105756812D01*
X140569480Y-105809540D01*
X140549500Y-105884108D01*
X133786330Y-105884108D01*
X133781093Y-102484108D01*
X142249500Y-102484108D01*
X142249500Y-102615891D01*
X142283608Y-102743187D01*
X142316554Y-102800250D01*
X142349500Y-102857314D01*
X142442686Y-102950500D01*
X142556814Y-103016392D01*
X142684108Y-103050500D01*
X142684110Y-103050500D01*
X142815890Y-103050500D01*
X142815892Y-103050500D01*
X142943186Y-103016392D01*
X143057314Y-102950500D01*
X143120995Y-102886819D01*
X143182318Y-102853334D01*
X143208676Y-102850500D01*
X144391324Y-102850500D01*
X144458363Y-102870185D01*
X144479005Y-102886819D01*
X144542686Y-102950500D01*
X144656814Y-103016392D01*
X144784108Y-103050500D01*
X144784110Y-103050500D01*
X144915890Y-103050500D01*
X144915892Y-103050500D01*
X145043186Y-103016392D01*
X145157314Y-102950500D01*
X145250500Y-102857314D01*
X145316392Y-102743186D01*
X145350500Y-102615892D01*
X145350500Y-102484108D01*
X145316392Y-102356814D01*
X145250500Y-102242686D01*
X145157314Y-102149500D01*
X145092099Y-102111848D01*
X145043187Y-102083608D01*
X144977065Y-102065891D01*
X144915892Y-102049500D01*
X144784108Y-102049500D01*
X144656812Y-102083608D01*
X144542686Y-102149500D01*
X144542683Y-102149502D01*
X144479005Y-102213181D01*
X144417682Y-102246666D01*
X144391324Y-102249500D01*
X143208676Y-102249500D01*
X143141637Y-102229815D01*
X143120995Y-102213181D01*
X143057316Y-102149502D01*
X143057314Y-102149500D01*
X142992099Y-102111848D01*
X142943187Y-102083608D01*
X142877065Y-102065891D01*
X142815892Y-102049500D01*
X142684108Y-102049500D01*
X142556812Y-102083608D01*
X142442686Y-102149500D01*
X142442683Y-102149502D01*
X142349502Y-102242683D01*
X142349500Y-102242686D01*
X142283608Y-102356812D01*
X142249500Y-102484108D01*
X133781093Y-102484108D01*
X133778449Y-100767613D01*
X147057019Y-100767613D01*
X147057019Y-100899396D01*
X147091127Y-101026692D01*
X147124073Y-101083755D01*
X147157019Y-101140819D01*
X147250205Y-101234005D01*
X147364333Y-101299897D01*
X147491627Y-101334005D01*
X147491629Y-101334005D01*
X147623409Y-101334005D01*
X147623411Y-101334005D01*
X147750705Y-101299897D01*
X147864833Y-101234005D01*
X147924224Y-101174614D01*
X147985547Y-101141129D01*
X148055239Y-101146113D01*
X148099586Y-101174614D01*
X150762791Y-103837819D01*
X150796276Y-103899142D01*
X150791292Y-103968834D01*
X150749420Y-104024767D01*
X150683956Y-104049184D01*
X150675110Y-104049500D01*
X149910438Y-104049500D01*
X149843039Y-104067559D01*
X149834007Y-104069980D01*
X149774069Y-104104586D01*
X149765492Y-104109537D01*
X149765487Y-104109541D01*
X148361847Y-105513181D01*
X148300524Y-105546666D01*
X148274166Y-105549500D01*
X148184108Y-105549500D01*
X148056812Y-105583608D01*
X147942686Y-105649500D01*
X147942683Y-105649502D01*
X147849502Y-105742683D01*
X147849500Y-105742686D01*
X147783608Y-105856812D01*
X147749500Y-105984108D01*
X147749500Y-106115891D01*
X147783608Y-106243187D01*
X147791766Y-106257316D01*
X147849500Y-106357314D01*
X147942686Y-106450500D01*
X148056814Y-106516392D01*
X148184108Y-106550500D01*
X148184110Y-106550500D01*
X148315890Y-106550500D01*
X148315892Y-106550500D01*
X148443186Y-106516392D01*
X148557314Y-106450500D01*
X148650500Y-106357314D01*
X148716392Y-106243186D01*
X148750500Y-106115892D01*
X148750500Y-106025832D01*
X148770185Y-105958793D01*
X148786819Y-105938151D01*
X149411790Y-105313181D01*
X150038152Y-104686819D01*
X150099475Y-104653334D01*
X150125833Y-104650500D01*
X154274167Y-104650500D01*
X154341206Y-104670185D01*
X154361848Y-104686819D01*
X155613181Y-105938152D01*
X155646666Y-105999475D01*
X155649500Y-106025833D01*
X155649500Y-106115891D01*
X155683608Y-106243187D01*
X155691766Y-106257316D01*
X155749500Y-106357314D01*
X155842686Y-106450500D01*
X155956814Y-106516392D01*
X156084108Y-106550500D01*
X156084110Y-106550500D01*
X156215890Y-106550500D01*
X156215892Y-106550500D01*
X156343186Y-106516392D01*
X156457314Y-106450500D01*
X156550500Y-106357314D01*
X156616392Y-106243186D01*
X156650500Y-106115892D01*
X156650500Y-105984108D01*
X156616392Y-105856814D01*
X156550500Y-105742686D01*
X156457314Y-105649500D01*
X156394408Y-105613181D01*
X156343187Y-105583608D01*
X156261976Y-105561848D01*
X156215892Y-105549500D01*
X156125833Y-105549500D01*
X156058794Y-105529815D01*
X156038152Y-105513181D01*
X154687152Y-104162181D01*
X154653667Y-104100858D01*
X154658651Y-104031166D01*
X154700523Y-103975233D01*
X154765987Y-103950816D01*
X154774833Y-103950500D01*
X161025500Y-103950500D01*
X161092539Y-103970185D01*
X161138294Y-104022989D01*
X161149500Y-104074500D01*
X161149500Y-105350072D01*
X161169979Y-105426499D01*
X161202951Y-105483608D01*
X161202954Y-105483613D01*
X161209540Y-105495021D01*
X161209541Y-105495023D01*
X161524058Y-105809539D01*
X161799029Y-106084510D01*
X161854978Y-106140459D01*
X161854980Y-106140460D01*
X161854984Y-106140463D01*
X161906465Y-106170185D01*
X161923500Y-106180020D01*
X161999927Y-106200499D01*
X161999929Y-106200499D01*
X162739559Y-106200499D01*
X162739561Y-106200499D01*
X162815988Y-106180020D01*
X162884510Y-106140459D01*
X162940459Y-106084510D01*
X163038150Y-105986819D01*
X163099473Y-105953334D01*
X163125831Y-105950500D01*
X163661324Y-105950500D01*
X163728363Y-105970185D01*
X163749005Y-105986819D01*
X163812686Y-106050500D01*
X163911521Y-106107563D01*
X163925944Y-106115890D01*
X163926814Y-106116392D01*
X164054108Y-106150500D01*
X164054110Y-106150500D01*
X164144167Y-106150500D01*
X164211206Y-106170185D01*
X164231848Y-106186819D01*
X164235489Y-106190460D01*
X164235491Y-106190461D01*
X164235495Y-106190464D01*
X164304004Y-106230017D01*
X164304011Y-106230021D01*
X164380438Y-106250500D01*
X164380440Y-106250500D01*
X168189560Y-106250500D01*
X168189562Y-106250500D01*
X168265989Y-106230021D01*
X168334511Y-106190460D01*
X168390460Y-106134511D01*
X168690460Y-105834511D01*
X168704877Y-105809540D01*
X168730021Y-105765989D01*
X168750500Y-105689562D01*
X168750500Y-105208676D01*
X168770185Y-105141637D01*
X168786819Y-105120995D01*
X168815667Y-105092147D01*
X168850500Y-105057314D01*
X168916392Y-104943186D01*
X168950500Y-104815892D01*
X168950500Y-104684108D01*
X168916392Y-104556814D01*
X168875980Y-104486819D01*
X168867113Y-104471460D01*
X168850500Y-104409460D01*
X168850500Y-98910439D01*
X168850500Y-98910438D01*
X168830021Y-98834011D01*
X168830017Y-98834004D01*
X168790464Y-98765495D01*
X168790458Y-98765487D01*
X168786819Y-98761848D01*
X168753334Y-98700525D01*
X168750500Y-98674167D01*
X168750500Y-98584110D01*
X168750500Y-98584108D01*
X168716392Y-98456814D01*
X168713376Y-98451591D01*
X168688208Y-98407998D01*
X168650500Y-98342686D01*
X168557314Y-98249500D01*
X168499968Y-98216391D01*
X168443187Y-98183608D01*
X168379539Y-98166554D01*
X168315892Y-98149500D01*
X168184108Y-98149500D01*
X168056812Y-98183608D01*
X167942686Y-98249500D01*
X167942683Y-98249502D01*
X167849502Y-98342683D01*
X167849500Y-98342686D01*
X167783608Y-98456812D01*
X167774824Y-98489595D01*
X167749500Y-98584108D01*
X167749500Y-98715892D01*
X167761814Y-98761848D01*
X167783608Y-98843187D01*
X167816554Y-98900250D01*
X167849500Y-98957314D01*
X167942686Y-99050500D01*
X168056814Y-99116392D01*
X168157594Y-99143395D01*
X168217254Y-99179760D01*
X168247783Y-99242607D01*
X168249500Y-99263170D01*
X168249500Y-103050495D01*
X168244789Y-103066536D01*
X168245095Y-103083251D01*
X168235149Y-103099366D01*
X168229815Y-103117534D01*
X168217181Y-103128480D01*
X168208401Y-103142709D01*
X168191320Y-103150889D01*
X168177011Y-103163289D01*
X168159990Y-103165895D01*
X168145386Y-103172890D01*
X168122005Y-103171711D01*
X168110097Y-103173535D01*
X168101643Y-103172476D01*
X168015892Y-103149500D01*
X167918099Y-103149500D01*
X167910430Y-103148540D01*
X167885191Y-103137566D01*
X167858794Y-103129815D01*
X167848750Y-103121721D01*
X167846355Y-103120680D01*
X167845065Y-103118752D01*
X167838152Y-103113181D01*
X167686819Y-102961848D01*
X167653334Y-102900525D01*
X167650500Y-102874167D01*
X167650500Y-99710439D01*
X167630020Y-99634009D01*
X167630017Y-99634004D01*
X167590464Y-99565495D01*
X167590458Y-99565487D01*
X166786819Y-98761848D01*
X166753334Y-98700525D01*
X166750500Y-98674167D01*
X166750500Y-98584110D01*
X166750500Y-98584108D01*
X166716392Y-98456814D01*
X166713376Y-98451591D01*
X166688208Y-98407998D01*
X166650500Y-98342686D01*
X166557314Y-98249500D01*
X166499968Y-98216391D01*
X166443187Y-98183608D01*
X166379539Y-98166554D01*
X166315892Y-98149500D01*
X166184108Y-98149500D01*
X166056812Y-98183608D01*
X165942686Y-98249500D01*
X165942683Y-98249502D01*
X165849502Y-98342683D01*
X165849500Y-98342686D01*
X165783608Y-98456812D01*
X165774824Y-98489595D01*
X165749500Y-98584108D01*
X165749500Y-98715892D01*
X165761814Y-98761848D01*
X165783608Y-98843187D01*
X165816554Y-98900250D01*
X165849500Y-98957314D01*
X165942686Y-99050500D01*
X166056814Y-99116392D01*
X166184108Y-99150500D01*
X166184110Y-99150500D01*
X166274167Y-99150500D01*
X166341206Y-99170185D01*
X166361848Y-99186819D01*
X167013181Y-99838152D01*
X167046666Y-99899475D01*
X167049500Y-99925833D01*
X167049500Y-103089562D01*
X167069979Y-103165989D01*
X167073963Y-103172890D01*
X167080671Y-103184507D01*
X167080672Y-103184511D01*
X167080673Y-103184511D01*
X167109539Y-103234509D01*
X167109541Y-103234512D01*
X167413181Y-103538152D01*
X167446666Y-103599475D01*
X167449500Y-103625833D01*
X167449500Y-103715891D01*
X167483608Y-103843187D01*
X167510902Y-103890460D01*
X167549500Y-103957314D01*
X167549502Y-103957316D01*
X167613181Y-104020995D01*
X167627884Y-104047922D01*
X167644477Y-104073741D01*
X167645368Y-104079941D01*
X167646666Y-104082318D01*
X167649500Y-104108676D01*
X167649500Y-104174167D01*
X167629815Y-104241206D01*
X167613181Y-104261848D01*
X167561848Y-104313181D01*
X167500525Y-104346666D01*
X167474167Y-104349500D01*
X163408676Y-104349500D01*
X163341637Y-104329815D01*
X163320995Y-104313181D01*
X163257316Y-104249502D01*
X163257314Y-104249500D01*
X163200250Y-104216554D01*
X163143187Y-104183608D01*
X163079539Y-104166554D01*
X163015892Y-104149500D01*
X162884108Y-104149500D01*
X162836782Y-104162181D01*
X162806593Y-104170270D01*
X162736743Y-104168607D01*
X162678881Y-104129444D01*
X162651377Y-104065216D01*
X162650500Y-104050495D01*
X162650500Y-103310439D01*
X162639352Y-103268834D01*
X162630021Y-103234011D01*
X162630017Y-103234004D01*
X162590464Y-103165495D01*
X162590458Y-103165487D01*
X162571817Y-103146846D01*
X162538332Y-103085523D01*
X162535498Y-103059165D01*
X162535498Y-99210404D01*
X162539723Y-99178311D01*
X162541900Y-99170185D01*
X162550500Y-99138091D01*
X162550500Y-98561909D01*
X162539723Y-98521687D01*
X162535498Y-98489595D01*
X162535498Y-98240395D01*
X162555183Y-98173356D01*
X162607987Y-98127601D01*
X162627399Y-98120621D01*
X162643186Y-98116392D01*
X162728540Y-98067113D01*
X162790540Y-98050500D01*
X163691324Y-98050500D01*
X163758363Y-98070185D01*
X163779005Y-98086819D01*
X163842686Y-98150500D01*
X163956814Y-98216392D01*
X164084108Y-98250500D01*
X164084110Y-98250500D01*
X164215890Y-98250500D01*
X164215892Y-98250500D01*
X164343186Y-98216392D01*
X164457314Y-98150500D01*
X164550500Y-98057314D01*
X164616392Y-97943186D01*
X164650500Y-97815892D01*
X164650500Y-97684108D01*
X164616392Y-97556814D01*
X164550500Y-97442686D01*
X164457314Y-97349500D01*
X164400250Y-97316554D01*
X164343187Y-97283608D01*
X164279539Y-97266554D01*
X164215892Y-97249500D01*
X164084108Y-97249500D01*
X163956812Y-97283608D01*
X163842686Y-97349500D01*
X163842683Y-97349502D01*
X163779005Y-97413181D01*
X163717682Y-97446666D01*
X163691324Y-97449500D01*
X162983760Y-97449500D01*
X162916721Y-97429815D01*
X162876373Y-97387500D01*
X162850500Y-97342686D01*
X162757314Y-97249500D01*
X162692028Y-97211807D01*
X162643187Y-97183608D01*
X162579539Y-97166554D01*
X162515892Y-97149500D01*
X162384108Y-97149500D01*
X162256814Y-97183608D01*
X162256813Y-97183608D01*
X162256811Y-97183609D01*
X162256808Y-97183610D01*
X162236498Y-97195336D01*
X162168598Y-97211807D01*
X162102571Y-97188954D01*
X162059382Y-97134032D01*
X162050500Y-97087948D01*
X162050500Y-94208676D01*
X162070185Y-94141637D01*
X162086819Y-94120995D01*
X162094261Y-94113553D01*
X162150500Y-94057314D01*
X162216392Y-93943186D01*
X162250500Y-93815892D01*
X162250500Y-93684108D01*
X162216392Y-93556814D01*
X162150500Y-93442686D01*
X162057314Y-93349500D01*
X161998340Y-93315451D01*
X161943187Y-93283608D01*
X161879539Y-93266554D01*
X161815892Y-93249500D01*
X161684108Y-93249500D01*
X161556812Y-93283608D01*
X161442686Y-93349500D01*
X161442683Y-93349502D01*
X161349502Y-93442683D01*
X161349500Y-93442686D01*
X161283608Y-93556812D01*
X161265294Y-93625164D01*
X161249500Y-93684108D01*
X161249500Y-93815892D01*
X161257109Y-93844288D01*
X161283608Y-93943187D01*
X161302150Y-93975302D01*
X161349500Y-94057314D01*
X161349502Y-94057316D01*
X161413181Y-94120995D01*
X161446666Y-94182318D01*
X161449500Y-94208676D01*
X161449500Y-97838091D01*
X161463152Y-97889042D01*
X161469979Y-97914519D01*
X161469980Y-97914520D01*
X161494687Y-97957314D01*
X161509540Y-97983040D01*
X161509542Y-97983042D01*
X161898179Y-98371679D01*
X161911091Y-98395326D01*
X161927053Y-98417040D01*
X161929004Y-98428130D01*
X161931664Y-98433002D01*
X161934254Y-98451591D01*
X161934498Y-98455477D01*
X161934498Y-98626031D01*
X161948479Y-98678210D01*
X161949256Y-98690575D01*
X161948763Y-98692748D01*
X161949500Y-98698344D01*
X161949500Y-99001655D01*
X161945275Y-99033747D01*
X161934498Y-99073967D01*
X161934498Y-102458155D01*
X161914813Y-102525194D01*
X161862009Y-102570949D01*
X161792851Y-102580893D01*
X161748498Y-102565542D01*
X161693189Y-102533609D01*
X161693186Y-102533608D01*
X161565892Y-102499500D01*
X161434108Y-102499500D01*
X161306812Y-102533608D01*
X161192686Y-102599500D01*
X161192683Y-102599502D01*
X161129005Y-102663181D01*
X161067682Y-102696666D01*
X161041324Y-102699500D01*
X152175833Y-102699500D01*
X152108794Y-102679815D01*
X152088152Y-102663181D01*
X151536819Y-102111848D01*
X151503334Y-102050525D01*
X151500500Y-102024167D01*
X151500500Y-101934110D01*
X151500500Y-101934108D01*
X151466392Y-101806814D01*
X151400500Y-101692686D01*
X151307314Y-101599500D01*
X151250250Y-101566554D01*
X151193187Y-101533608D01*
X151129539Y-101516554D01*
X151065892Y-101499500D01*
X150934108Y-101499500D01*
X150806812Y-101533608D01*
X150692686Y-101599500D01*
X150692683Y-101599502D01*
X150599502Y-101692683D01*
X150599500Y-101692686D01*
X150533608Y-101806812D01*
X150499500Y-101934108D01*
X150499500Y-102065892D01*
X150504247Y-102083608D01*
X150533608Y-102193187D01*
X150545152Y-102213181D01*
X150599500Y-102307314D01*
X150692686Y-102400500D01*
X150806814Y-102466392D01*
X150934108Y-102500500D01*
X150934110Y-102500500D01*
X151024167Y-102500500D01*
X151091206Y-102520185D01*
X151111848Y-102536819D01*
X151712848Y-103137819D01*
X151746333Y-103199142D01*
X151741349Y-103268834D01*
X151699477Y-103324767D01*
X151634013Y-103349184D01*
X151625167Y-103349500D01*
X151175776Y-103349500D01*
X151108737Y-103329815D01*
X151088095Y-103313181D01*
X148367960Y-100593046D01*
X148367955Y-100593042D01*
X148358513Y-100587591D01*
X148358512Y-100587591D01*
X148299439Y-100553485D01*
X148299438Y-100553484D01*
X148273961Y-100546657D01*
X148223010Y-100533005D01*
X148223008Y-100533005D01*
X148016195Y-100533005D01*
X147949156Y-100513320D01*
X147928514Y-100496686D01*
X147864835Y-100433007D01*
X147864833Y-100433005D01*
X147807769Y-100400059D01*
X147750706Y-100367113D01*
X147687058Y-100350059D01*
X147623411Y-100333005D01*
X147491627Y-100333005D01*
X147364331Y-100367113D01*
X147250205Y-100433005D01*
X147250202Y-100433007D01*
X147157021Y-100526188D01*
X147157019Y-100526191D01*
X147091127Y-100640317D01*
X147057019Y-100767613D01*
X133778449Y-100767613D01*
X133764720Y-91854485D01*
X133765035Y-91845501D01*
X133779344Y-91645436D01*
X133781860Y-91627940D01*
X133823570Y-91436201D01*
X133828547Y-91419250D01*
X133897127Y-91235382D01*
X133904466Y-91219312D01*
X133998505Y-91047093D01*
X134008063Y-91032220D01*
X134125658Y-90875133D01*
X134137230Y-90861778D01*
X134275989Y-90723020D01*
X134289346Y-90711447D01*
X134446427Y-90593859D01*
X134461293Y-90584304D01*
X134633518Y-90490263D01*
X134649606Y-90482917D01*
X134833450Y-90414347D01*
X134850416Y-90409366D01*
X135042151Y-90367658D01*
X135059646Y-90365143D01*
X135236873Y-90352468D01*
X135259988Y-90350816D01*
X135268821Y-90350500D01*
X135330103Y-90350501D01*
X135330122Y-90350495D01*
X139068629Y-90350233D01*
X139135669Y-90369913D01*
X139181428Y-90422714D01*
X139191376Y-90491871D01*
X139162356Y-90555429D01*
X139134609Y-90579227D01*
X138959001Y-90689568D01*
X138838899Y-90785345D01*
X139378251Y-91324697D01*
X139411736Y-91386020D01*
X139406752Y-91455712D01*
X139375001Y-91501104D01*
X139375935Y-91502038D01*
X139202038Y-91675935D01*
X139200947Y-91674844D01*
X139148133Y-91709303D01*
X139078265Y-91709785D01*
X139024697Y-91678251D01*
X138485345Y-91138899D01*
X138389568Y-91259001D01*
X138246152Y-91487247D01*
X138129198Y-91730104D01*
X138129192Y-91730118D01*
X138040167Y-91984536D01*
X138040163Y-91984548D01*
X137980181Y-92247348D01*
X137980178Y-92247366D01*
X137950000Y-92515212D01*
X137950000Y-92784787D01*
X137980178Y-93052633D01*
X137980181Y-93052651D01*
X138040163Y-93315451D01*
X138040167Y-93315463D01*
X138129192Y-93569881D01*
X138129198Y-93569895D01*
X138246152Y-93812752D01*
X138389568Y-94040998D01*
X138485346Y-94161099D01*
X139024697Y-93621748D01*
X139086020Y-93588263D01*
X139155711Y-93593247D01*
X139201101Y-93625001D01*
X139202038Y-93624065D01*
X139375935Y-93797962D01*
X139374838Y-93799058D01*
X139409292Y-93851831D01*
X139409794Y-93921699D01*
X139378250Y-93975301D01*
X138838899Y-94514651D01*
X138838900Y-94514653D01*
X138958993Y-94610427D01*
X138958997Y-94610429D01*
X139187247Y-94753847D01*
X139430104Y-94870801D01*
X139430118Y-94870807D01*
X139684536Y-94959832D01*
X139684548Y-94959836D01*
X139947348Y-95019818D01*
X139947366Y-95019821D01*
X140215212Y-95049999D01*
X140215216Y-95050000D01*
X140484784Y-95050000D01*
X140484787Y-95049999D01*
X140752633Y-95019821D01*
X140752651Y-95019818D01*
X141015451Y-94959836D01*
X141015463Y-94959832D01*
X141269881Y-94870807D01*
X141269895Y-94870801D01*
X141512752Y-94753847D01*
X141740999Y-94610431D01*
X141861098Y-94514653D01*
X141861099Y-94514652D01*
X141321748Y-93975302D01*
X141288263Y-93913979D01*
X141293247Y-93844288D01*
X141325006Y-93798903D01*
X141324065Y-93797962D01*
X141497962Y-93624065D01*
X141499061Y-93625164D01*
X141551811Y-93590712D01*
X141621679Y-93590198D01*
X141675302Y-93621748D01*
X142214652Y-94161099D01*
X142214653Y-94161098D01*
X142310431Y-94040999D01*
X142453847Y-93812752D01*
X142570801Y-93569895D01*
X142570807Y-93569881D01*
X142659832Y-93315463D01*
X142659836Y-93315451D01*
X142719818Y-93052651D01*
X142719818Y-93052648D01*
X142725267Y-93004284D01*
X142752333Y-92939870D01*
X142809927Y-92900313D01*
X142879764Y-92898174D01*
X142910485Y-92910776D01*
X143006814Y-92966392D01*
X143134108Y-93000500D01*
X143134110Y-93000500D01*
X143265890Y-93000500D01*
X143265892Y-93000500D01*
X143393186Y-92966392D01*
X143507314Y-92900500D01*
X143600500Y-92807314D01*
X143666392Y-92693186D01*
X143700500Y-92565892D01*
X143700500Y-92475832D01*
X143720185Y-92408793D01*
X143736819Y-92388151D01*
X144738152Y-91386819D01*
X144799475Y-91353334D01*
X144825833Y-91350500D01*
X161891324Y-91350500D01*
X161958363Y-91370185D01*
X161979005Y-91386819D01*
X162042686Y-91450500D01*
X162156814Y-91516392D01*
X162284108Y-91550500D01*
X162284110Y-91550500D01*
X162415890Y-91550500D01*
X162415892Y-91550500D01*
X162543186Y-91516392D01*
X162657314Y-91450500D01*
X162750500Y-91357314D01*
X162816392Y-91243186D01*
X162850500Y-91115892D01*
X162850500Y-90984108D01*
X162816392Y-90856814D01*
X162750500Y-90742686D01*
X162657314Y-90649500D01*
X162657312Y-90649499D01*
X162657310Y-90649497D01*
X162536891Y-90579973D01*
X162488675Y-90529406D01*
X162475453Y-90460798D01*
X162501421Y-90395934D01*
X162558335Y-90355406D01*
X162598878Y-90348586D01*
X164871503Y-90348427D01*
X164938543Y-90368107D01*
X164984302Y-90420908D01*
X164994250Y-90490065D01*
X164965230Y-90553623D01*
X164937483Y-90577421D01*
X164759001Y-90689568D01*
X164638899Y-90785345D01*
X165178251Y-91324697D01*
X165211736Y-91386020D01*
X165206752Y-91455712D01*
X165175001Y-91501104D01*
X165175935Y-91502038D01*
X165002038Y-91675935D01*
X165000947Y-91674844D01*
X164948133Y-91709303D01*
X164878265Y-91709785D01*
X164824697Y-91678251D01*
X164285345Y-91138899D01*
X164189568Y-91259001D01*
X164046152Y-91487247D01*
X163929198Y-91730104D01*
X163929192Y-91730118D01*
X163840167Y-91984536D01*
X163840163Y-91984548D01*
X163780181Y-92247348D01*
X163780178Y-92247366D01*
X163750000Y-92515212D01*
X163750000Y-92784787D01*
X163780178Y-93052633D01*
X163780181Y-93052651D01*
X163840163Y-93315451D01*
X163840167Y-93315463D01*
X163929192Y-93569881D01*
X163929198Y-93569895D01*
X164046152Y-93812752D01*
X164189568Y-94040998D01*
X164285346Y-94161099D01*
X164824697Y-93621748D01*
X164886020Y-93588263D01*
X164955711Y-93593247D01*
X165001101Y-93625001D01*
X165002038Y-93624065D01*
X165175935Y-93797962D01*
X165174838Y-93799058D01*
X165209292Y-93851831D01*
X165209794Y-93921699D01*
X165178250Y-93975301D01*
X164638899Y-94514651D01*
X164638900Y-94514653D01*
X164758993Y-94610427D01*
X164758997Y-94610429D01*
X164987247Y-94753847D01*
X165230104Y-94870801D01*
X165230118Y-94870807D01*
X165484536Y-94959832D01*
X165484548Y-94959836D01*
X165747348Y-95019818D01*
X165747366Y-95019821D01*
X166015212Y-95049999D01*
X166015216Y-95050000D01*
X166284784Y-95050000D01*
X166284787Y-95049999D01*
X166552633Y-95019821D01*
X166552651Y-95019818D01*
X166815451Y-94959836D01*
X166815463Y-94959832D01*
X167069881Y-94870807D01*
X167069895Y-94870801D01*
X167312752Y-94753847D01*
X167540999Y-94610431D01*
X167661098Y-94514653D01*
X167661099Y-94514652D01*
X167121748Y-93975302D01*
X167088263Y-93913979D01*
X167093247Y-93844288D01*
X167125006Y-93798903D01*
X167124065Y-93797962D01*
X167297962Y-93624065D01*
X167299061Y-93625164D01*
X167351811Y-93590712D01*
X167421679Y-93590198D01*
X167475302Y-93621748D01*
X168014652Y-94161099D01*
X168014653Y-94161098D01*
X168110431Y-94040999D01*
X168253847Y-93812752D01*
X168370801Y-93569895D01*
X168370807Y-93569881D01*
X168459832Y-93315463D01*
X168459836Y-93315451D01*
X168519818Y-93052651D01*
X168519821Y-93052633D01*
X168549999Y-92784787D01*
X168550000Y-92784783D01*
X168550000Y-92515216D01*
X168549999Y-92515212D01*
X168519821Y-92247366D01*
X168519818Y-92247348D01*
X168459836Y-91984548D01*
X168459832Y-91984536D01*
X168370807Y-91730118D01*
X168370801Y-91730104D01*
X168253847Y-91487247D01*
X168110429Y-91258997D01*
X168110427Y-91258993D01*
X168014653Y-91138900D01*
X168014651Y-91138899D01*
X167475301Y-91678250D01*
X167413978Y-91711735D01*
X167344286Y-91706751D01*
X167298900Y-91674996D01*
X167297962Y-91675935D01*
X167124065Y-91502038D01*
X167125159Y-91500943D01*
X167090703Y-91448159D01*
X167090206Y-91378291D01*
X167121748Y-91324697D01*
X167661099Y-90785346D01*
X167540998Y-90689567D01*
X167362231Y-90577241D01*
X167315940Y-90524906D01*
X167305292Y-90455853D01*
X167333667Y-90392004D01*
X167392056Y-90353632D01*
X167428183Y-90348248D01*
X170965075Y-90348001D01*
X170974505Y-90348359D01*
G37*
%TD.AperFunction*%
%TA.AperFunction,Conductor*%
G36*
X162168080Y-90368301D02*
G01*
X162213839Y-90421102D01*
X162223787Y-90490259D01*
X162194767Y-90553817D01*
X162163049Y-90580008D01*
X162042686Y-90649500D01*
X162042683Y-90649502D01*
X161979005Y-90713181D01*
X161917682Y-90746666D01*
X161891324Y-90749500D01*
X144610438Y-90749500D01*
X144534010Y-90769978D01*
X144465489Y-90809540D01*
X144465486Y-90809542D01*
X143311847Y-91963181D01*
X143250524Y-91996666D01*
X143224166Y-91999500D01*
X143134108Y-91999500D01*
X143006812Y-92033608D01*
X142892686Y-92099500D01*
X142892681Y-92099504D01*
X142883111Y-92109074D01*
X142821787Y-92142557D01*
X142752096Y-92137570D01*
X142696163Y-92095697D01*
X142674542Y-92048981D01*
X142659837Y-91984551D01*
X142659832Y-91984536D01*
X142570807Y-91730118D01*
X142570801Y-91730104D01*
X142453847Y-91487247D01*
X142310429Y-91258997D01*
X142310427Y-91258993D01*
X142214653Y-91138900D01*
X142214651Y-91138899D01*
X141675301Y-91678250D01*
X141613978Y-91711735D01*
X141544286Y-91706751D01*
X141498900Y-91674996D01*
X141497962Y-91675935D01*
X141324065Y-91502038D01*
X141325159Y-91500943D01*
X141290703Y-91448159D01*
X141290206Y-91378291D01*
X141321748Y-91324697D01*
X141861099Y-90785346D01*
X141740998Y-90689567D01*
X141565105Y-90579047D01*
X141518814Y-90526712D01*
X141508166Y-90457659D01*
X141536541Y-90393810D01*
X141594930Y-90355438D01*
X141631061Y-90350054D01*
X162101040Y-90348621D01*
X162168080Y-90368301D01*
G37*
%TD.AperFunction*%
%TD*%
M02*
