M48
; DRILL file {KiCad 9.0.3} date 2025-07-29T21:32:16-0600
; FORMAT={-:-/ absolute / metric / decimal}
; #@! TF.CreationDate,2025-07-29T21:32:16-06:00
; #@! TF.GenerationSoftware,Kicad,Pcbnew,9.0.3
; #@! TF.FileFunction,Plated,1,2,PTH
FMAT,2
METRIC
; #@! TA.AperFunction,Plated,PTH,ViaDrill
T1C0.300
; #@! TA.AperFunction,Plated,PTH,ComponentDrill
T2C0.600
; #@! TA.AperFunction,Plated,PTH,ComponentDrill
T3C0.900
; #@! TA.AperFunction,Plated,PTH,ComponentDrill
T4C2.200
%
G90
G05
T1
X135.0Y-95.5
X135.5Y-101.0
X136.05Y-104.35
X136.35Y-92.55
X136.95Y-100.35
X137.0Y-104.0
X138.0Y-95.0
X139.0Y-101.5
X139.5Y-96.5
X139.55Y-114.65
X139.65Y-95.35
X140.5Y-114.0
X140.95Y-112.25
X141.0Y-96.0
X141.05Y-105.95
X141.95Y-99.35
X142.5Y-108.5
X142.75Y-102.55
X142.85Y-91.65
X142.85Y-105.45
X143.2Y-92.5
X143.5Y-109.5
X144.5Y-108.5
X144.575Y-103.95
X144.75Y-105.15
X144.85Y-102.55
X144.951Y-93.149
X145.0Y-113.0
X145.65Y-106.05
X146.65Y-112.05
X147.35Y-108.55
X147.5Y-94.5
X147.558Y-100.834
X148.0Y-96.5
X148.25Y-106.05
X148.95Y-108.25
X149.35Y-94.05
X150.0Y-106.3
X150.75Y-100.45
X151.0Y-102.0
X151.0Y-107.0
X153.15Y-107.85
X154.0Y-102.0
X154.55Y-107.85
X155.75Y-100.45
X156.15Y-106.05
X157.0Y-97.5
X157.5Y-102.0
X157.75Y-107.75
X158.35Y-92.55
X158.5Y-94.5
X158.5Y-96.5
X158.5Y-101.0
X159.0Y-108.5
X160.05Y-112.15
X161.25Y-107.25
X161.5Y-103.0
X161.65Y-98.85
X161.75Y-93.75
X162.0Y-113.0
X162.288Y-105.3
X162.35Y-91.05
X162.45Y-97.65
X162.5Y-111.5
X162.95Y-104.65
X163.25Y-100.25
X164.0Y-96.0
X164.0Y-113.0
X164.12Y-105.65
X164.15Y-97.75
X164.5Y-107.0
X165.05Y-103.05
X165.15Y-95.55
X165.5Y-115.0
X165.65Y-98.05
X166.25Y-98.65
X167.5Y-96.0
X167.95Y-103.65
X168.0Y-109.0
X168.25Y-98.65
X168.35Y-108.05
X168.45Y-104.75
X168.65Y-114.95
X169.4Y-99.4
X169.85Y-95.35
X170.15Y-92.05
X170.65Y-102.95
X170.65Y-108.05
X171.5Y-114.0
T3
X136.35Y-112.45
X138.89Y-112.45
X167.65Y-112.45
X170.19Y-112.45
T4
X140.35Y-92.65
X166.15Y-92.65
T2
G00X147.63Y-110.037
M15
G01X147.63Y-110.837
M16
G05
G00X147.63Y-113.837
M15
G01X147.63Y-115.037
M16
G05
G00X158.87Y-110.037
M15
G01X158.87Y-110.837
M16
G05
G00X158.87Y-113.837
M15
G01X158.87Y-115.037
M16
G05
M30
