%TF.GenerationSoftware,KiCad,Pcbnew,9.0.3*%
%TF.CreationDate,2025-07-29T21:31:59-06:00*%
%TF.ProjectId,AIOMeltyV3,41494f4d-656c-4747-9956-332e6b696361,rev?*%
%TF.SameCoordinates,Original*%
%TF.FileFunction,Copper,L1,Top*%
%TF.FilePolarity,Positive*%
%FSLAX46Y46*%
G04 Gerber Fmt 4.6, Leading zero omitted, Abs format (unit mm)*
G04 Created by KiCad (PCBNEW 9.0.3) date 2025-07-29 21:31:59*
%MOMM*%
%LPD*%
G01*
G04 APERTURE LIST*
G04 Aperture macros list*
%AMRoundRect*
0 Rectangle with rounded corners*
0 $1 Rounding radius*
0 $2 $3 $4 $5 $6 $7 $8 $9 X,Y pos of 4 corners*
0 Add a 4 corners polygon primitive as box body*
4,1,4,$2,$3,$4,$5,$6,$7,$8,$9,$2,$3,0*
0 Add four circle primitives for the rounded corners*
1,1,$1+$1,$2,$3*
1,1,$1+$1,$4,$5*
1,1,$1+$1,$6,$7*
1,1,$1+$1,$8,$9*
0 Add four rect primitives between the rounded corners*
20,1,$1+$1,$2,$3,$4,$5,0*
20,1,$1+$1,$4,$5,$6,$7,0*
20,1,$1+$1,$6,$7,$8,$9,0*
20,1,$1+$1,$8,$9,$2,$3,0*%
%AMOutline5P*
0 Free polygon, 5 corners , with rotation*
0 The origin of the aperture is its center*
0 number of corners: always 5*
0 $1 to $10 corner X, Y*
0 $11 Rotation angle, in degrees counterclockwise*
0 create outline with 5 corners*
4,1,5,$1,$2,$3,$4,$5,$6,$7,$8,$9,$10,$1,$2,$11*%
%AMOutline6P*
0 Free polygon, 6 corners , with rotation*
0 The origin of the aperture is its center*
0 number of corners: always 6*
0 $1 to $12 corner X, Y*
0 $13 Rotation angle, in degrees counterclockwise*
0 create outline with 6 corners*
4,1,6,$1,$2,$3,$4,$5,$6,$7,$8,$9,$10,$11,$12,$1,$2,$13*%
%AMOutline7P*
0 Free polygon, 7 corners , with rotation*
0 The origin of the aperture is its center*
0 number of corners: always 7*
0 $1 to $14 corner X, Y*
0 $15 Rotation angle, in degrees counterclockwise*
0 create outline with 7 corners*
4,1,7,$1,$2,$3,$4,$5,$6,$7,$8,$9,$10,$11,$12,$13,$14,$1,$2,$15*%
%AMOutline8P*
0 Free polygon, 8 corners , with rotation*
0 The origin of the aperture is its center*
0 number of corners: always 8*
0 $1 to $16 corner X, Y*
0 $17 Rotation angle, in degrees counterclockwise*
0 create outline with 8 corners*
4,1,8,$1,$2,$3,$4,$5,$6,$7,$8,$9,$10,$11,$12,$13,$14,$15,$16,$1,$2,$17*%
G04 Aperture macros list end*
%TA.AperFunction,SMDPad,CuDef*%
%ADD10R,2.500000X2.500000*%
%TD*%
%TA.AperFunction,SMDPad,CuDef*%
%ADD11R,1.500000X1.500000*%
%TD*%
%TA.AperFunction,SMDPad,CuDef*%
%ADD12R,0.830000X0.270000*%
%TD*%
%TA.AperFunction,SMDPad,CuDef*%
%ADD13R,0.270000X0.830000*%
%TD*%
%TA.AperFunction,SMDPad,CuDef*%
%ADD14RoundRect,0.140000X0.170000X-0.140000X0.170000X0.140000X-0.170000X0.140000X-0.170000X-0.140000X0*%
%TD*%
%TA.AperFunction,SMDPad,CuDef*%
%ADD15RoundRect,0.140000X-0.170000X0.140000X-0.170000X-0.140000X0.170000X-0.140000X0.170000X0.140000X0*%
%TD*%
%TA.AperFunction,ComponentPad*%
%ADD16C,2.600000*%
%TD*%
%TA.AperFunction,ConnectorPad*%
%ADD17C,3.800000*%
%TD*%
%TA.AperFunction,SMDPad,CuDef*%
%ADD18RoundRect,0.140000X0.140000X0.170000X-0.140000X0.170000X-0.140000X-0.170000X0.140000X-0.170000X0*%
%TD*%
%TA.AperFunction,SMDPad,CuDef*%
%ADD19RoundRect,0.140000X-0.140000X-0.170000X0.140000X-0.170000X0.140000X0.170000X-0.140000X0.170000X0*%
%TD*%
%TA.AperFunction,SMDPad,CuDef*%
%ADD20RoundRect,0.075000X0.225000X-0.575000X0.225000X0.575000X-0.225000X0.575000X-0.225000X-0.575000X0*%
%TD*%
%TA.AperFunction,ComponentPad*%
%ADD21R,1.800000X1.800000*%
%TD*%
%TA.AperFunction,ComponentPad*%
%ADD22C,1.800000*%
%TD*%
%TA.AperFunction,SMDPad,CuDef*%
%ADD23R,0.800000X0.400000*%
%TD*%
%TA.AperFunction,SMDPad,CuDef*%
%ADD24R,0.400000X0.800000*%
%TD*%
%TA.AperFunction,SMDPad,CuDef*%
%ADD25Outline5P,-0.600000X0.204000X-0.204000X0.600000X0.600000X0.600000X0.600000X-0.600000X-0.600000X-0.600000X0.000000*%
%TD*%
%TA.AperFunction,SMDPad,CuDef*%
%ADD26R,1.200000X1.200000*%
%TD*%
%TA.AperFunction,SMDPad,CuDef*%
%ADD27R,0.800000X0.800000*%
%TD*%
%TA.AperFunction,SMDPad,CuDef*%
%ADD28R,0.600000X1.100000*%
%TD*%
%TA.AperFunction,SMDPad,CuDef*%
%ADD29R,0.300000X1.100000*%
%TD*%
%TA.AperFunction,ComponentPad*%
%ADD30O,1.000000X2.200000*%
%TD*%
%TA.AperFunction,ComponentPad*%
%ADD31O,1.000000X1.800000*%
%TD*%
%TA.AperFunction,ViaPad*%
%ADD32C,0.600000*%
%TD*%
%TA.AperFunction,Conductor*%
%ADD33C,0.200000*%
%TD*%
%TA.AperFunction,Conductor*%
%ADD34C,0.100000*%
%TD*%
G04 APERTURE END LIST*
D10*
%TO.P,H3,1*%
%TO.N,GND*%
X170650000Y-108050000D03*
%TD*%
%TO.P,H1,1*%
%TO.N,N/C*%
X136350000Y-97750000D03*
%TD*%
%TO.P,H3,1*%
%TO.N,GND*%
X170150000Y-92050000D03*
%TD*%
D11*
%TO.P,SW1,1,1*%
%TO.N,GND*%
X143750000Y-114750000D03*
%TO.P,SW1,2,2*%
%TO.N,Net-(U3-IO0)*%
X143750000Y-106950000D03*
%TD*%
D10*
%TO.P,H4,1*%
%TO.N,N/C*%
X136350000Y-108050000D03*
%TD*%
D12*
%TO.P,U1,1,VDD_IO*%
%TO.N,+3V3*%
X163680000Y-101950000D03*
%TO.P,U1,2,NC*%
%TO.N,unconnected-(U1-NC-Pad2)*%
X163680000Y-102450000D03*
%TO.P,U1,3,NC*%
%TO.N,unconnected-(U1-NC-Pad3)*%
X163680000Y-102950000D03*
%TO.P,U1,4,SCL*%
%TO.N,SCL*%
X163680000Y-103450000D03*
%TO.P,U1,5,GND*%
%TO.N,GND*%
X163680000Y-103950000D03*
D13*
%TO.P,U1,6,SDA*%
%TO.N,SDA*%
X164650000Y-104420000D03*
%TO.P,U1,7,SDO*%
%TO.N,GND*%
X165150000Y-104420000D03*
%TO.P,U1,8,CS*%
%TO.N,+3V3*%
X165650000Y-104420000D03*
D12*
%TO.P,U1,9,I2*%
%TO.N,unconnected-(U1-I2-Pad9)*%
X166620000Y-103950000D03*
%TO.P,U1,10,GND*%
%TO.N,GND*%
X166620000Y-103450000D03*
%TO.P,U1,11,INT*%
%TO.N,unconnected-(U1-INT-Pad11)*%
X166620000Y-102950000D03*
%TO.P,U1,12,GND*%
%TO.N,GND*%
X166620000Y-102450000D03*
%TO.P,U1,13,GND*%
X166620000Y-101950000D03*
D13*
%TO.P,U1,14,VDD*%
%TO.N,+3V3*%
X165650000Y-101480000D03*
%TO.P,U1,15,VDD*%
X165150000Y-101480000D03*
%TO.P,U1,16,GND*%
%TO.N,GND*%
X164650000Y-101480000D03*
%TD*%
D14*
%TO.P,R5,1*%
%TO.N,+3V3*%
X167200000Y-99880000D03*
%TO.P,R5,2*%
%TO.N,SCL*%
X167200000Y-98920000D03*
%TD*%
D15*
%TO.P,R2,1*%
%TO.N,USB_P*%
X154400000Y-106100000D03*
%TO.P,R2,2*%
%TO.N,USB1_P*%
X154400000Y-107060000D03*
%TD*%
D16*
%TO.P,REF\u002A\u002A,1*%
%TO.N,N/C*%
X166150000Y-92650000D03*
D17*
%TO.N,GND*%
X166150000Y-92650000D03*
%TD*%
D14*
%TO.P,R4,1*%
%TO.N,Net-(J1-CC1)*%
X151800000Y-107560000D03*
%TO.P,R4,2*%
%TO.N,GND*%
X151800000Y-106600000D03*
%TD*%
%TO.P,R3,1*%
%TO.N,Net-(J1-CC2)*%
X155300000Y-107560000D03*
%TO.P,R3,2*%
%TO.N,GND*%
X155300000Y-106600000D03*
%TD*%
D18*
%TO.P,C3,1*%
%TO.N,GND*%
X144205000Y-93550000D03*
%TO.P,C3,2*%
%TO.N,+3V3*%
X143245000Y-93550000D03*
%TD*%
D10*
%TO.P,H2,1*%
%TO.N,N/C*%
X170150000Y-97250000D03*
%TD*%
D14*
%TO.P,C2,1*%
%TO.N,GND*%
X162650000Y-102680000D03*
%TO.P,C2,2*%
%TO.N,+3V3*%
X162650000Y-101720000D03*
%TD*%
D19*
%TO.P,R8,1*%
%TO.N,Header*%
X165245000Y-108850000D03*
%TO.P,R8,2*%
%TO.N,Net-(D2-A)*%
X166205000Y-108850000D03*
%TD*%
D14*
%TO.P,C5,1*%
%TO.N,GND*%
X161700000Y-95480000D03*
%TO.P,C5,2*%
%TO.N,Net-(U3-EN)*%
X161700000Y-94520000D03*
%TD*%
%TO.P,R6,1*%
%TO.N,+3V3*%
X168450000Y-100380000D03*
%TO.P,R6,2*%
%TO.N,SDA*%
X168450000Y-99420000D03*
%TD*%
%TO.P,C12,1*%
%TO.N,+3V3*%
X168000000Y-102260000D03*
%TO.P,C12,2*%
%TO.N,GND*%
X168000000Y-101300000D03*
%TD*%
D18*
%TO.P,R10,1*%
%TO.N,+3V3*%
X162555000Y-91750000D03*
%TO.P,R10,2*%
%TO.N,Net-(U3-EN)*%
X161595000Y-91750000D03*
%TD*%
D10*
%TO.P,,1*%
%TO.N,GND*%
X170650000Y-108050000D03*
%TD*%
D20*
%TO.P,U4,1,GND*%
%TO.N,GND*%
X140000000Y-105037500D03*
%TO.P,U4,2,VOUT*%
%TO.N,+3V3*%
X141900000Y-105037500D03*
%TO.P,U4,3,VIN*%
%TO.N,+5V*%
X140950000Y-102987500D03*
%TD*%
D21*
%TO.P,D2,1,K*%
%TO.N,GND*%
X167650000Y-112450000D03*
D22*
%TO.P,D2,2,A*%
%TO.N,Net-(D2-A)*%
X170190000Y-112450000D03*
%TD*%
D21*
%TO.P,D1,1,K*%
%TO.N,GND*%
X136350000Y-112450000D03*
D22*
%TO.P,D1,2,A*%
%TO.N,Net-(D1-A)*%
X138890000Y-112450000D03*
%TD*%
D11*
%TO.P,SW2,1,1*%
%TO.N,GND*%
X162750000Y-114750000D03*
%TO.P,SW2,2,2*%
%TO.N,Net-(U3-EN)*%
X162750000Y-106950000D03*
%TD*%
D18*
%TO.P,R7,1*%
%TO.N,Power*%
X139680000Y-108850000D03*
%TO.P,R7,2*%
%TO.N,Net-(D1-A)*%
X138720000Y-108850000D03*
%TD*%
D14*
%TO.P,C4,1*%
%TO.N,+3V3*%
X171850000Y-100630000D03*
%TO.P,C4,2*%
%TO.N,GND*%
X171850000Y-99670000D03*
%TD*%
D16*
%TO.P,REF\u002A\u002A,1*%
%TO.N,N/C*%
X140350000Y-92650000D03*
D17*
%TO.N,GND*%
X140350000Y-92650000D03*
%TD*%
D23*
%TO.P,U3,1,GND*%
%TO.N,GND*%
X146250000Y-91700000D03*
%TO.P,U3,2,GND*%
X146250000Y-92550000D03*
%TO.P,U3,3,3V3*%
%TO.N,+3V3*%
X146250000Y-93400000D03*
%TO.P,U3,4,IO0*%
%TO.N,Net-(U3-IO0)*%
X146250000Y-94250000D03*
%TO.P,U3,5,IO1*%
%TO.N,unconnected-(U3-IO1-Pad5)*%
X146250000Y-95100000D03*
%TO.P,U3,6,IO2*%
%TO.N,unconnected-(U3-IO2-Pad6)*%
X146250000Y-95950000D03*
%TO.P,U3,7,IO3*%
%TO.N,unconnected-(U3-IO3-Pad7)*%
X146250000Y-96800000D03*
%TO.P,U3,8,IO4*%
%TO.N,unconnected-(U3-IO4-Pad8)*%
X146250000Y-97650000D03*
%TO.P,U3,9,IO5*%
%TO.N,unconnected-(U3-IO5-Pad9)*%
X146250000Y-98500000D03*
%TO.P,U3,10,IO6*%
%TO.N,unconnected-(U3-IO6-Pad10)*%
X146250000Y-99350000D03*
%TO.P,U3,11,IO7*%
%TO.N,unconnected-(U3-IO7-Pad11)*%
X146250000Y-100200000D03*
%TO.P,U3,12,IO8*%
%TO.N,SDA*%
X146250000Y-101050000D03*
%TO.P,U3,13,IO9*%
%TO.N,SCL*%
X146250000Y-101900000D03*
%TO.P,U3,14,IO10*%
%TO.N,PWM1*%
X146250000Y-102750000D03*
%TO.P,U3,15,IO11*%
%TO.N,Power*%
X146250000Y-103600000D03*
D24*
%TO.P,U3,16,IO12*%
%TO.N,unconnected-(U3-IO12-Pad16)*%
X147300000Y-104650000D03*
%TO.P,U3,17,IO13*%
%TO.N,unconnected-(U3-IO13-Pad17)*%
X148150000Y-104650000D03*
%TO.P,U3,18,IO14*%
%TO.N,unconnected-(U3-IO14-Pad18)*%
X149000000Y-104650000D03*
%TO.P,U3,19,IO15*%
%TO.N,unconnected-(U3-IO15-Pad19)*%
X149850000Y-104650000D03*
%TO.P,U3,20,IO16*%
%TO.N,unconnected-(U3-IO16-Pad20)*%
X150700000Y-104650000D03*
%TO.P,U3,21,IO17*%
%TO.N,unconnected-(U3-IO17-Pad21)*%
X151550000Y-104650000D03*
%TO.P,U3,22,IO18*%
%TO.N,unconnected-(U3-IO18-Pad22)*%
X152400000Y-104650000D03*
%TO.P,U3,23,USB_D-*%
%TO.N,USB_N*%
X153250000Y-104650000D03*
%TO.P,U3,24,USB_D+*%
%TO.N,USB_P*%
X154100000Y-104650000D03*
%TO.P,U3,25,IO21*%
%TO.N,unconnected-(U3-IO21-Pad25)*%
X154950000Y-104650000D03*
%TO.P,U3,26,IO26*%
%TO.N,unconnected-(U3-IO26-Pad26)*%
X155800000Y-104650000D03*
%TO.P,U3,27,IO47*%
%TO.N,unconnected-(U3-IO47-Pad27)*%
X156650000Y-104650000D03*
%TO.P,U3,28,IO33*%
%TO.N,unconnected-(U3-IO33-Pad28)*%
X157500000Y-104650000D03*
%TO.P,U3,29,IO34*%
%TO.N,unconnected-(U3-IO34-Pad29)*%
X158350000Y-104650000D03*
%TO.P,U3,30,IO48*%
%TO.N,Header*%
X159200000Y-104650000D03*
D23*
%TO.P,U3,31,IO35*%
%TO.N,unconnected-(U3-IO35-Pad31)*%
X160250000Y-103600000D03*
%TO.P,U3,32,IO36*%
%TO.N,unconnected-(U3-IO36-Pad32)*%
X160250000Y-102750000D03*
%TO.P,U3,33,IO37*%
%TO.N,unconnected-(U3-IO37-Pad33)*%
X160250000Y-101900000D03*
%TO.P,U3,34,IO38*%
%TO.N,unconnected-(U3-IO38-Pad34)*%
X160250000Y-101050000D03*
%TO.P,U3,35,IO39*%
%TO.N,unconnected-(U3-IO39-Pad35)*%
X160250000Y-100200000D03*
%TO.P,U3,36,IO40*%
%TO.N,unconnected-(U3-IO40-Pad36)*%
X160250000Y-99350000D03*
%TO.P,U3,37,IO41*%
%TO.N,unconnected-(U3-IO41-Pad37)*%
X160250000Y-98500000D03*
%TO.P,U3,38,IO42*%
%TO.N,PWM2*%
X160250000Y-97650000D03*
%TO.P,U3,39,TXD0*%
%TO.N,unconnected-(U3-TXD0-Pad39)*%
X160250000Y-96800000D03*
%TO.P,U3,40,RXD0*%
%TO.N,unconnected-(U3-RXD0-Pad40)*%
X160250000Y-95950000D03*
%TO.P,U3,41,IO45*%
%TO.N,unconnected-(U3-IO45-Pad41)*%
X160250000Y-95100000D03*
%TO.P,U3,42,GND*%
%TO.N,GND*%
X160250000Y-94250000D03*
%TO.P,U3,43,GND*%
X160250000Y-93400000D03*
%TO.P,U3,44,IO46*%
%TO.N,unconnected-(U3-IO46-Pad44)*%
X160250000Y-92550000D03*
%TO.P,U3,45,EN*%
%TO.N,Net-(U3-EN)*%
X160250000Y-91700000D03*
D24*
%TO.P,U3,46,GND*%
%TO.N,GND*%
X159200000Y-90650000D03*
%TO.P,U3,47,GND*%
X158350000Y-90650000D03*
%TO.P,U3,48,GND*%
X157500000Y-90650000D03*
%TO.P,U3,49,GND*%
X156650000Y-90650000D03*
%TO.P,U3,50,GND*%
X155800000Y-90650000D03*
%TO.P,U3,51,GND*%
X154950000Y-90650000D03*
%TO.P,U3,52,GND*%
X154100000Y-90650000D03*
%TO.P,U3,53,GND*%
X153250000Y-90650000D03*
%TO.P,U3,54,GND*%
X152400000Y-90650000D03*
%TO.P,U3,55,GND*%
X151550000Y-90650000D03*
%TO.P,U3,56,GND*%
X150700000Y-90650000D03*
%TO.P,U3,57,GND*%
X149850000Y-90650000D03*
%TO.P,U3,58,GND*%
X149000000Y-90650000D03*
%TO.P,U3,59,GND*%
X148150000Y-90650000D03*
%TO.P,U3,60,GND*%
X147300000Y-90650000D03*
D25*
%TO.P,U3,61,GND*%
X151600000Y-96000000D03*
D26*
X151600000Y-97650000D03*
X151600000Y-99300000D03*
X153250000Y-96000000D03*
X153250000Y-97650000D03*
X153250000Y-99300000D03*
X154900000Y-96000000D03*
X154900000Y-97650000D03*
X154900000Y-99300000D03*
D27*
%TO.P,U3,62,GND*%
X146250000Y-90650000D03*
%TO.P,U3,63,GND*%
X146250000Y-104650000D03*
%TO.P,U3,64,GND*%
X160250000Y-104650000D03*
%TO.P,U3,65,GND*%
X160250000Y-90650000D03*
%TD*%
D12*
%TO.P,U2,1,VDD_IO*%
%TO.N,+3V3*%
X169180000Y-101950000D03*
%TO.P,U2,2,NC*%
%TO.N,unconnected-(U2-NC-Pad2)*%
X169180000Y-102450000D03*
%TO.P,U2,3,NC*%
%TO.N,unconnected-(U2-NC-Pad3)*%
X169180000Y-102950000D03*
%TO.P,U2,4,SCL*%
%TO.N,SCL*%
X169180000Y-103450000D03*
%TO.P,U2,5,GND*%
%TO.N,GND*%
X169180000Y-103950000D03*
D13*
%TO.P,U2,6,SDA*%
%TO.N,SDA*%
X170150000Y-104420000D03*
%TO.P,U2,7,SDO*%
%TO.N,+3V3*%
X170650000Y-104420000D03*
%TO.P,U2,8,CS*%
X171150000Y-104420000D03*
D12*
%TO.P,U2,9,I2*%
%TO.N,unconnected-(U2-I2-Pad9)*%
X172120000Y-103950000D03*
%TO.P,U2,10,GND*%
%TO.N,GND*%
X172120000Y-103450000D03*
%TO.P,U2,11,INT*%
%TO.N,unconnected-(U2-INT-Pad11)*%
X172120000Y-102950000D03*
%TO.P,U2,12,GND*%
%TO.N,GND*%
X172120000Y-102450000D03*
%TO.P,U2,13,GND*%
X172120000Y-101950000D03*
D13*
%TO.P,U2,14,VDD*%
%TO.N,+3V3*%
X171150000Y-101480000D03*
%TO.P,U2,15,VDD*%
X170650000Y-101480000D03*
%TO.P,U2,16,GND*%
%TO.N,GND*%
X170150000Y-101480000D03*
%TD*%
D18*
%TO.P,C1,1*%
%TO.N,GND*%
X165950000Y-100472500D03*
%TO.P,C1,2*%
%TO.N,+3V3*%
X164990000Y-100472500D03*
%TD*%
D10*
%TO.P,H3,1*%
%TO.N,GND*%
X136350000Y-92550000D03*
%TD*%
D19*
%TO.P,R9,1*%
%TO.N,+3V3*%
X143245000Y-94500000D03*
%TO.P,R9,2*%
%TO.N,Net-(U3-IO0)*%
X144205000Y-94500000D03*
%TD*%
D14*
%TO.P,R1,1*%
%TO.N,USB1_N*%
X153100000Y-107060000D03*
%TO.P,R1,2*%
%TO.N,USB_N*%
X153100000Y-106100000D03*
%TD*%
D28*
%TO.P,J1,A1_B12,GND_A*%
%TO.N,GND*%
X150050000Y-109287500D03*
%TO.P,J1,A4_B9,VBUS_A*%
%TO.N,+5V*%
X150850000Y-109287500D03*
D29*
%TO.P,J1,A5,CC1*%
%TO.N,Net-(J1-CC1)*%
X152000000Y-109287500D03*
%TO.P,J1,A6,DP1*%
%TO.N,USB1_P*%
X153000000Y-109287500D03*
%TO.P,J1,A7,DN1*%
%TO.N,USB1_N*%
X153500000Y-109287500D03*
%TO.P,J1,A8,SBU1*%
%TO.N,unconnected-(J1-SBU1-PadA8)*%
X154500000Y-109287500D03*
D28*
%TO.P,J1,B1_A12,GND_B*%
%TO.N,GND*%
X156450000Y-109287500D03*
%TO.P,J1,B4_A9,VBUS_B*%
%TO.N,+5V*%
X155650000Y-109287500D03*
D29*
%TO.P,J1,B5,CC2*%
%TO.N,Net-(J1-CC2)*%
X155000000Y-109287500D03*
%TO.P,J1,B6,DP2*%
%TO.N,USB1_P*%
X154000000Y-109287500D03*
%TO.P,J1,B7,DN2*%
%TO.N,USB1_N*%
X152500000Y-109287500D03*
%TO.P,J1,B8,SBU2*%
%TO.N,unconnected-(J1-SBU2-PadB8)*%
X151500000Y-109287500D03*
D30*
%TO.P,J1,SH1,SHELL_GND*%
%TO.N,GND*%
X147630000Y-114437500D03*
D31*
%TO.P,J1,SH2,SHELL_GND*%
X158870000Y-110437500D03*
%TO.P,J1,SH3,SHELL_GND*%
X147630000Y-110437500D03*
D30*
%TO.P,J1,SH4,SHELL_GND*%
X158870000Y-114437500D03*
%TD*%
D14*
%TO.P,C1,1*%
%TO.N,GND*%
X166500000Y-106500000D03*
%TO.P,C1,2*%
%TO.N,+3V3*%
X166500000Y-105540000D03*
%TD*%
%TO.P,C13,1*%
%TO.N,+3V3*%
X170600000Y-100360000D03*
%TO.P,C13,2*%
%TO.N,GND*%
X170600000Y-99400000D03*
%TD*%
D32*
%TO.N,GND*%
X137000000Y-104000000D03*
X170150000Y-92050000D03*
%TO.N,+3V3*%
X143200000Y-92500000D03*
X162350000Y-91050000D03*
%TO.N,GND*%
X157000000Y-97500000D03*
X159000000Y-108500000D03*
X164500000Y-107000000D03*
X149350000Y-94050000D03*
X136050000Y-104350000D03*
X165650000Y-98050000D03*
X144500000Y-108500000D03*
X169850000Y-95350000D03*
X141000000Y-96000000D03*
X165150000Y-95550000D03*
X144950735Y-93149265D03*
X154000000Y-102000000D03*
X165050000Y-103050000D03*
X157750000Y-107750000D03*
X162500000Y-111500000D03*
X138000000Y-95000000D03*
X136950000Y-100350000D03*
X147350000Y-108550000D03*
X139000000Y-101500000D03*
X148950000Y-108250000D03*
X164000000Y-96000000D03*
X139650000Y-95350000D03*
X148000000Y-96500000D03*
X158500000Y-94500000D03*
X141950000Y-99350000D03*
X158500000Y-101000000D03*
X170650000Y-108050000D03*
X140950000Y-112250000D03*
X161650000Y-98850000D03*
X165500000Y-115000000D03*
X145000000Y-113000000D03*
X162000000Y-113000000D03*
X147500000Y-94500000D03*
X157500000Y-102000000D03*
X150750000Y-100450000D03*
X160050000Y-112150000D03*
X136350000Y-92550000D03*
X142850000Y-91650000D03*
X146650000Y-112050000D03*
X168350000Y-108050000D03*
X164000000Y-113000000D03*
X151000000Y-107000000D03*
X158350000Y-92550000D03*
X161250000Y-107250000D03*
X135500000Y-101000000D03*
X168000000Y-109000000D03*
X135000000Y-95500000D03*
X171500000Y-114000000D03*
X168650000Y-114950000D03*
X155750000Y-100450000D03*
X139500000Y-96500000D03*
X143500000Y-109500000D03*
X144750000Y-105150000D03*
X169400000Y-99400000D03*
X163250000Y-100250000D03*
X167500000Y-96000000D03*
X142500000Y-108500000D03*
X170650000Y-102950000D03*
X140500000Y-114000000D03*
X150000000Y-106300000D03*
X139550000Y-114650000D03*
X158500000Y-96500000D03*
%TO.N,+5V*%
X148250000Y-106050000D03*
X141050000Y-105950000D03*
X156150000Y-106050000D03*
X145650000Y-106050000D03*
%TO.N,SCL*%
X162950000Y-104650000D03*
X161500000Y-103000000D03*
X167950000Y-103650000D03*
X151000000Y-102000000D03*
X166250000Y-98650000D03*
%TO.N,USB1_P*%
X154550000Y-107850000D03*
X153150000Y-107850000D03*
%TO.N,SDA*%
X164120000Y-105650000D03*
X168250000Y-98650000D03*
X168450000Y-104750000D03*
X147557519Y-100833505D03*
%TO.N,Net-(U3-EN)*%
X162288018Y-105299999D03*
X161750000Y-93750000D03*
%TO.N,Power*%
X142850000Y-105450000D03*
X144575000Y-103950000D03*
%TO.N,PWM1*%
X144850000Y-102550000D03*
X142750000Y-102550000D03*
%TO.N,PWM2*%
X162450000Y-97650000D03*
X164150000Y-97750000D03*
%TD*%
D33*
%TO.N,USB1_N*%
X153100000Y-107060000D02*
X153650000Y-107610000D01*
X153650000Y-107610000D02*
X153650000Y-109087500D01*
X153650000Y-109087500D02*
X153500000Y-109237500D01*
%TO.N,USB1_P*%
X153150000Y-107850000D02*
X153000000Y-108000000D01*
X153000000Y-108000000D02*
X153000000Y-109187500D01*
X153000000Y-109187500D02*
X153050000Y-109237500D01*
X153050000Y-109237500D02*
X153000000Y-109237500D01*
%TO.N,+3V3*%
X168275000Y-102125000D02*
X168700000Y-101700000D01*
X164076029Y-100472500D02*
X165220000Y-100472500D01*
X162350000Y-91545000D02*
X162350000Y-91050000D01*
X143200000Y-102151471D02*
X143350000Y-102301471D01*
X143350000Y-103587500D02*
X141900000Y-105037500D01*
X168700000Y-101122500D02*
X169350000Y-100472500D01*
X145150000Y-92500000D02*
X146050000Y-93400000D01*
X146050000Y-93400000D02*
X146250000Y-93400000D01*
X166400000Y-105450000D02*
X170150000Y-105450000D01*
X165650000Y-101480000D02*
X165150000Y-101480000D01*
X170650000Y-104420000D02*
X171150000Y-104420000D01*
X167350000Y-104200000D02*
X167350000Y-102450000D01*
X168450000Y-100150000D02*
X168450000Y-100472500D01*
X143350000Y-102301471D02*
X143350000Y-103587500D01*
X165650000Y-104700000D02*
X166400000Y-105450000D01*
X168120000Y-102125000D02*
X168275000Y-102125000D01*
X163050000Y-98302500D02*
X165220000Y-100472500D01*
X164990000Y-100472500D02*
X165150000Y-100632500D01*
X143200000Y-92500000D02*
X143200000Y-102151471D01*
X168700000Y-101700000D02*
X168700000Y-101122500D01*
X170650000Y-104950000D02*
X170650000Y-104420000D01*
X163097500Y-98350000D02*
X163050000Y-98302500D01*
X166550000Y-100022500D02*
X167252500Y-100022500D01*
X171150000Y-101480000D02*
X171850000Y-100780000D01*
X168120000Y-102125000D02*
X168295000Y-101950000D01*
X170150000Y-105450000D02*
X170650000Y-104950000D01*
X163050000Y-98302500D02*
X163050000Y-92245000D01*
X165650000Y-104420000D02*
X165650000Y-104700000D01*
X165220000Y-100472500D02*
X164990000Y-100472500D01*
X163050000Y-92245000D02*
X162350000Y-91545000D01*
X171850000Y-100780000D02*
X171850000Y-100400000D01*
X165437590Y-100022500D02*
X166550000Y-100022500D01*
X170645000Y-100472500D02*
X170645000Y-101475000D01*
X162650000Y-101950000D02*
X162650000Y-101898529D01*
X170645000Y-101475000D02*
X170650000Y-101480000D01*
X167675000Y-102125000D02*
X168120000Y-102125000D01*
X165650000Y-104420000D02*
X167130000Y-104420000D01*
X168450000Y-100472500D02*
X169350000Y-100472500D01*
X162650000Y-101950000D02*
X163680000Y-101950000D01*
X171150000Y-101480000D02*
X170650000Y-101480000D01*
X167702500Y-100472500D02*
X168450000Y-100472500D01*
X165220000Y-100472500D02*
X165220000Y-100240090D01*
X167350000Y-102450000D02*
X167675000Y-102125000D01*
X162650000Y-101898529D02*
X164076029Y-100472500D01*
X169350000Y-100472500D02*
X170645000Y-100472500D01*
X165150000Y-100632500D02*
X165150000Y-101480000D01*
X167750000Y-100425000D02*
X167702500Y-100472500D01*
X167252500Y-100022500D02*
X167702500Y-100472500D01*
X168295000Y-101950000D02*
X169180000Y-101950000D01*
X143200000Y-92500000D02*
X145150000Y-92500000D01*
X167130000Y-104420000D02*
X167350000Y-104200000D01*
X165220000Y-100240090D02*
X165437590Y-100022500D01*
D34*
%TO.N,GND*%
X164095000Y-103950000D02*
X163680000Y-103950000D01*
D33*
X160470000Y-94250000D02*
X160250000Y-94250000D01*
X162090000Y-102025424D02*
X162090000Y-101410000D01*
X165050000Y-103050000D02*
X165050000Y-103150000D01*
X162650000Y-102680000D02*
X162650000Y-102585424D01*
X162090000Y-101410000D02*
X163250000Y-100250000D01*
X149937500Y-109237500D02*
X150050000Y-109237500D01*
D34*
X165050000Y-103150000D02*
X164500000Y-103700000D01*
X164345000Y-103700000D02*
X164095000Y-103950000D01*
X164500000Y-103700000D02*
X164345000Y-103700000D01*
D33*
X161700000Y-95480000D02*
X160470000Y-94250000D01*
X148950000Y-108250000D02*
X149937500Y-109237500D01*
X167270000Y-101300000D02*
X168000000Y-101300000D01*
X166620000Y-101950000D02*
X167270000Y-101300000D01*
D34*
X169180000Y-103950000D02*
X169650000Y-103950000D01*
D33*
X170250000Y-103350000D02*
X170650000Y-102950000D01*
D34*
X169650000Y-103950000D02*
X170250000Y-103350000D01*
D33*
X162650000Y-102585424D02*
X162090000Y-102025424D01*
%TO.N,+5V*%
X155650000Y-108457410D02*
X155650000Y-109237500D01*
X156150000Y-106050000D02*
X156150000Y-107957410D01*
X148262500Y-106050000D02*
X148250000Y-106050000D01*
X136350000Y-106650000D02*
X136350000Y-108050000D01*
X148250000Y-106050000D02*
X145650000Y-106050000D01*
X150800000Y-108587500D02*
X150800000Y-109237500D01*
X149862500Y-107650000D02*
X148262500Y-106050000D01*
X149862500Y-107650000D02*
X150800000Y-108587500D01*
X150800000Y-109237500D02*
X150850000Y-109237500D01*
X140012500Y-102987500D02*
X136350000Y-106650000D01*
X140950000Y-102987500D02*
X140950000Y-105850000D01*
X140950000Y-102987500D02*
X140012500Y-102987500D01*
X140950000Y-105850000D02*
X141050000Y-105950000D01*
X156150000Y-107957410D02*
X155650000Y-108457410D01*
%TO.N,Net-(J1-CC1)*%
X151800000Y-107560000D02*
X151950000Y-107710000D01*
X151950000Y-107710000D02*
X151950000Y-109187500D01*
X151950000Y-109187500D02*
X152000000Y-109237500D01*
%TO.N,Net-(J1-CC2)*%
X155300000Y-107948529D02*
X155000000Y-108248529D01*
X155300000Y-107560000D02*
X155300000Y-107948529D01*
X155000000Y-108248529D02*
X155000000Y-109237500D01*
%TO.N,USB_N*%
X153250000Y-106145000D02*
X153250000Y-104650000D01*
%TO.N,USB_P*%
X154400000Y-106100000D02*
X154100000Y-105800000D01*
X154100000Y-105800000D02*
X154100000Y-104650000D01*
%TO.N,SCL*%
X162950000Y-104650000D02*
X162150000Y-104650000D01*
X146250000Y-101900000D02*
X146451000Y-102101000D01*
X162000000Y-104000000D02*
X162000000Y-103500000D01*
X146451000Y-102101000D02*
X150899000Y-102101000D01*
X162000000Y-103500000D02*
X161500000Y-103000000D01*
X166250000Y-98650000D02*
X166930000Y-98650000D01*
X166930000Y-98650000D02*
X167200000Y-98920000D01*
X162550000Y-103450000D02*
X163680000Y-103450000D01*
X150899000Y-102101000D02*
X151000000Y-102000000D01*
X162150000Y-104650000D02*
X162000000Y-104500000D01*
X162000000Y-104000000D02*
X162550000Y-103450000D01*
X162000000Y-104500000D02*
X162000000Y-104000000D01*
X169180000Y-103450000D02*
X168150000Y-103450000D01*
X168150000Y-103450000D02*
X167950000Y-103650000D01*
%TO.N,USB1_P*%
X154400000Y-107060000D02*
X154000000Y-107460000D01*
X154550000Y-107850000D02*
X154550000Y-107210000D01*
X154000000Y-107460000D02*
X154000000Y-109237500D01*
X154550000Y-107210000D02*
X154400000Y-107060000D01*
%TO.N,SDA*%
X168450000Y-99650000D02*
X168450000Y-98850000D01*
X146250000Y-101050000D02*
X147341024Y-101050000D01*
X164120000Y-104950000D02*
X164650000Y-104420000D01*
X170150000Y-104420000D02*
X169620000Y-104950000D01*
X168450000Y-98850000D02*
X168250000Y-98650000D01*
X147341024Y-101050000D02*
X147557519Y-100833505D01*
X169620000Y-104950000D02*
X168650000Y-104950000D01*
X168650000Y-104950000D02*
X168450000Y-104750000D01*
X164120000Y-105650000D02*
X164120000Y-104950000D01*
%TO.N,USB1_N*%
X152550000Y-107350000D02*
X152840000Y-107060000D01*
X152500000Y-109237500D02*
X152550000Y-109187500D01*
X152550000Y-109187500D02*
X152550000Y-107350000D01*
X152840000Y-107060000D02*
X153100000Y-107060000D01*
%TO.N,Net-(D1-A)*%
X138700000Y-108870000D02*
X138700000Y-112260000D01*
X138700000Y-112260000D02*
X138890000Y-112450000D01*
X138720000Y-108850000D02*
X138700000Y-108870000D01*
%TO.N,Net-(D2-A)*%
X166590000Y-108850000D02*
X170190000Y-112450000D01*
X166205000Y-108850000D02*
X166590000Y-108850000D01*
%TO.N,Header*%
X159200000Y-106600000D02*
X161450000Y-108850000D01*
X159200000Y-104650000D02*
X159200000Y-106600000D01*
X161450000Y-108850000D02*
X165245000Y-108850000D01*
%TO.N,Net-(U3-IO0)*%
X144455000Y-94250000D02*
X146250000Y-94250000D01*
X143975000Y-94730000D02*
X144455000Y-94250000D01*
X143750000Y-107450000D02*
X143975000Y-107225000D01*
X143975000Y-107225000D02*
X143975000Y-94730000D01*
%TO.N,Net-(U3-EN)*%
X161700000Y-93800000D02*
X161750000Y-93750000D01*
X160250000Y-91700000D02*
X161545000Y-91700000D01*
X162288018Y-105411982D02*
X162288018Y-105299999D01*
X162288018Y-105299999D02*
X162288018Y-106988018D01*
X161545000Y-91700000D02*
X161750000Y-91905000D01*
X161700000Y-94520000D02*
X161700000Y-93800000D01*
X161750000Y-91905000D02*
X161750000Y-93750000D01*
X162288018Y-106988018D02*
X162750000Y-107450000D01*
%TO.N,Power*%
X139680000Y-108850000D02*
X139680000Y-108620000D01*
X145900000Y-103950000D02*
X146250000Y-103600000D01*
X144575000Y-103950000D02*
X145900000Y-103950000D01*
X139680000Y-108620000D02*
X142850000Y-105450000D01*
%TO.N,PWM1*%
X146250000Y-102750000D02*
X145050000Y-102750000D01*
X145050000Y-102750000D02*
X144850000Y-102550000D01*
X136350000Y-97750000D02*
X137950000Y-97750000D01*
X137950000Y-97750000D02*
X142750000Y-102550000D01*
%TO.N,PWM2*%
X170000000Y-97250000D02*
X170950000Y-97250000D01*
X164650000Y-97250000D02*
X170000000Y-97250000D01*
X164150000Y-97750000D02*
X164650000Y-97250000D01*
X162450000Y-97650000D02*
X160250000Y-97650000D01*
%TD*%
%TA.AperFunction,Conductor*%
%TO.N,GND*%
G36*
X166899008Y-100334617D02*
G01*
X166940513Y-100353972D01*
X166990099Y-100360500D01*
X167114165Y-100360499D01*
X167143610Y-100369144D01*
X167173593Y-100375667D01*
X167178606Y-100379419D01*
X167181205Y-100380183D01*
X167201847Y-100396818D01*
X167357284Y-100552255D01*
X167390769Y-100613578D01*
X167385785Y-100683270D01*
X167357285Y-100727616D01*
X167320286Y-100764615D01*
X167320278Y-100764625D01*
X167237968Y-100903804D01*
X167195496Y-101050000D01*
X167876000Y-101050000D01*
X167943039Y-101069685D01*
X167988794Y-101122489D01*
X168000000Y-101174000D01*
X168000000Y-101426000D01*
X167980315Y-101493039D01*
X167927511Y-101538794D01*
X167876000Y-101550000D01*
X167184000Y-101550000D01*
X167116961Y-101530315D01*
X167071206Y-101477511D01*
X167060000Y-101426000D01*
X167060000Y-101315000D01*
X166755000Y-101315000D01*
X166755000Y-102490500D01*
X166735315Y-102557539D01*
X166682511Y-102603294D01*
X166631000Y-102614500D01*
X166565862Y-102614500D01*
X166498823Y-102594815D01*
X166486643Y-102585000D01*
X165705000Y-102585000D01*
X165705000Y-102632844D01*
X165711401Y-102692372D01*
X165711403Y-102692379D01*
X165761645Y-102827086D01*
X165761647Y-102827088D01*
X165798029Y-102875689D01*
X165822446Y-102941153D01*
X165807595Y-103009426D01*
X165798029Y-103024311D01*
X165761647Y-103072911D01*
X165761645Y-103072913D01*
X165711403Y-103207620D01*
X165711401Y-103207627D01*
X165705000Y-103267155D01*
X165705000Y-103315000D01*
X166496000Y-103315000D01*
X166504685Y-103317550D01*
X166513647Y-103316262D01*
X166537687Y-103327240D01*
X166563039Y-103334685D01*
X166568966Y-103341525D01*
X166577203Y-103345287D01*
X166591492Y-103367521D01*
X166608794Y-103387489D01*
X166611081Y-103398003D01*
X166614977Y-103404065D01*
X166620000Y-103439000D01*
X166620000Y-103461000D01*
X166600315Y-103528039D01*
X166547511Y-103573794D01*
X166496000Y-103585000D01*
X165694054Y-103585000D01*
X165656839Y-103605320D01*
X165587148Y-103600334D01*
X165556172Y-103583419D01*
X165527089Y-103561647D01*
X165527086Y-103561645D01*
X165392379Y-103511403D01*
X165392372Y-103511401D01*
X165332844Y-103505000D01*
X165285000Y-103505000D01*
X165285000Y-105335000D01*
X165332828Y-105335000D01*
X165332844Y-105334999D01*
X165392372Y-105328598D01*
X165392379Y-105328596D01*
X165527086Y-105278354D01*
X165527089Y-105278352D01*
X165599080Y-105224459D01*
X165664543Y-105200041D01*
X165732817Y-105214892D01*
X165761073Y-105236044D01*
X165953181Y-105428152D01*
X165967595Y-105454549D01*
X165984117Y-105479694D01*
X165985164Y-105486724D01*
X165986666Y-105489475D01*
X165989494Y-105514576D01*
X165989500Y-105515187D01*
X165989501Y-105719900D01*
X165991748Y-105736971D01*
X165991824Y-105744462D01*
X165984276Y-105771165D01*
X165980001Y-105798573D01*
X165974907Y-105804311D01*
X165972820Y-105811698D01*
X165952034Y-105830080D01*
X165939650Y-105844032D01*
X165940788Y-105845499D01*
X165934621Y-105850282D01*
X165820282Y-105964620D01*
X165820278Y-105964625D01*
X165737968Y-106103804D01*
X165695496Y-106250000D01*
X167304504Y-106250000D01*
X167262031Y-106103804D01*
X167179721Y-105964625D01*
X167179714Y-105964616D01*
X167177279Y-105962181D01*
X167175979Y-105959801D01*
X167174936Y-105958456D01*
X167175153Y-105958287D01*
X167143794Y-105900858D01*
X167148778Y-105831166D01*
X167190650Y-105775233D01*
X167256114Y-105750816D01*
X167264960Y-105750500D01*
X170189560Y-105750500D01*
X170189562Y-105750500D01*
X170265989Y-105730021D01*
X170334511Y-105690460D01*
X170390460Y-105634511D01*
X170890460Y-105134511D01*
X170911828Y-105097501D01*
X170962394Y-105049285D01*
X171019215Y-105035500D01*
X171304750Y-105035500D01*
X171304751Y-105035499D01*
X171319568Y-105032552D01*
X171363229Y-105023868D01*
X171363229Y-105023867D01*
X171363231Y-105023867D01*
X171429552Y-104979552D01*
X171473867Y-104913231D01*
X171473867Y-104913229D01*
X171473868Y-104913229D01*
X171485499Y-104854752D01*
X171485500Y-104854750D01*
X171485500Y-104396861D01*
X171505185Y-104329822D01*
X171557989Y-104284067D01*
X171627147Y-104274123D01*
X171633692Y-104275244D01*
X171685250Y-104285500D01*
X171685252Y-104285500D01*
X172334072Y-104285500D01*
X172401111Y-104305185D01*
X172446866Y-104357989D01*
X172458071Y-104409608D01*
X172457249Y-105334999D01*
X172456351Y-106344291D01*
X172436607Y-106411313D01*
X172383762Y-106457021D01*
X172314595Y-106466903D01*
X172258040Y-106443448D01*
X172142088Y-106356647D01*
X172142086Y-106356645D01*
X172007379Y-106306403D01*
X172007372Y-106306401D01*
X171947844Y-106300000D01*
X170900000Y-106300000D01*
X170900000Y-109800000D01*
X171947828Y-109800000D01*
X171947844Y-109799999D01*
X172007372Y-109793598D01*
X172007379Y-109793596D01*
X172142086Y-109743354D01*
X172142089Y-109743352D01*
X172255003Y-109658824D01*
X172320467Y-109634406D01*
X172388740Y-109649257D01*
X172438146Y-109698661D01*
X172453315Y-109758200D01*
X172449565Y-113975745D01*
X172449565Y-113975750D01*
X172449557Y-113983889D01*
X172449500Y-113984108D01*
X172449500Y-114045558D01*
X172449500Y-114045687D01*
X172449495Y-114045702D01*
X172449184Y-114054419D01*
X172434869Y-114254557D01*
X172432351Y-114272068D01*
X172390646Y-114463787D01*
X172385662Y-114480763D01*
X172317090Y-114664609D01*
X172309740Y-114680701D01*
X172215711Y-114852904D01*
X172206146Y-114867789D01*
X172088558Y-115024867D01*
X172076972Y-115038237D01*
X171938237Y-115176972D01*
X171924867Y-115188558D01*
X171767789Y-115306146D01*
X171752904Y-115315711D01*
X171580701Y-115409740D01*
X171564609Y-115417090D01*
X171380763Y-115485662D01*
X171363787Y-115490646D01*
X171172068Y-115532351D01*
X171154556Y-115534869D01*
X170954483Y-115549178D01*
X170945519Y-115549494D01*
X164123882Y-115542975D01*
X164056861Y-115523226D01*
X164011156Y-115470379D01*
X164000000Y-115418975D01*
X164000000Y-115000000D01*
X161500000Y-115000000D01*
X161500000Y-115416348D01*
X161480315Y-115483387D01*
X161427511Y-115529142D01*
X161375881Y-115540348D01*
X159930138Y-115538966D01*
X159863118Y-115519217D01*
X159817413Y-115466370D01*
X159807536Y-115397202D01*
X159815696Y-115367512D01*
X159831571Y-115329185D01*
X159831572Y-115329181D01*
X159869999Y-115135995D01*
X159870000Y-115135992D01*
X159870000Y-114687500D01*
X159170000Y-114687500D01*
X159170000Y-114187500D01*
X159870000Y-114187500D01*
X159870000Y-113952155D01*
X161500000Y-113952155D01*
X161500000Y-114500000D01*
X162500000Y-114500000D01*
X163000000Y-114500000D01*
X164000000Y-114500000D01*
X164000000Y-113952172D01*
X163999999Y-113952155D01*
X163993598Y-113892627D01*
X163993596Y-113892620D01*
X163943354Y-113757913D01*
X163943350Y-113757906D01*
X163857190Y-113642812D01*
X163857187Y-113642809D01*
X163742093Y-113556649D01*
X163742086Y-113556645D01*
X163607379Y-113506403D01*
X163607372Y-113506401D01*
X163547844Y-113500000D01*
X163000000Y-113500000D01*
X163000000Y-114500000D01*
X162500000Y-114500000D01*
X162500000Y-113500000D01*
X161952155Y-113500000D01*
X161892627Y-113506401D01*
X161892620Y-113506403D01*
X161757913Y-113556645D01*
X161757906Y-113556649D01*
X161642812Y-113642809D01*
X161642809Y-113642812D01*
X161556649Y-113757906D01*
X161556645Y-113757913D01*
X161506403Y-113892620D01*
X161506401Y-113892627D01*
X161500000Y-113952155D01*
X159870000Y-113952155D01*
X159870000Y-113739008D01*
X159869999Y-113739004D01*
X159831572Y-113545818D01*
X159831569Y-113545806D01*
X159756192Y-113363828D01*
X159756185Y-113363815D01*
X159646751Y-113200037D01*
X159646748Y-113200033D01*
X159507466Y-113060751D01*
X159507462Y-113060748D01*
X159343684Y-112951314D01*
X159343671Y-112951307D01*
X159161691Y-112875929D01*
X159161683Y-112875927D01*
X159120000Y-112867635D01*
X159120000Y-113670511D01*
X159110060Y-113653295D01*
X159054205Y-113597440D01*
X158985796Y-113557944D01*
X158909496Y-113537500D01*
X158830504Y-113537500D01*
X158754204Y-113557944D01*
X158685795Y-113597440D01*
X158629940Y-113653295D01*
X158620000Y-113670511D01*
X158620000Y-112867636D01*
X158619999Y-112867635D01*
X158578316Y-112875927D01*
X158578308Y-112875929D01*
X158541952Y-112890989D01*
X158472483Y-112898458D01*
X158410004Y-112867183D01*
X158374352Y-112807094D01*
X158370500Y-112776428D01*
X158370500Y-111898571D01*
X158390185Y-111831532D01*
X158442989Y-111785777D01*
X158512147Y-111775833D01*
X158541954Y-111784010D01*
X158578312Y-111799070D01*
X158620000Y-111807362D01*
X158620000Y-111004488D01*
X158629940Y-111021705D01*
X158685795Y-111077560D01*
X158754204Y-111117056D01*
X158830504Y-111137500D01*
X158909496Y-111137500D01*
X158985796Y-111117056D01*
X159054205Y-111077560D01*
X159110060Y-111021705D01*
X159120000Y-111004488D01*
X159120000Y-111807362D01*
X159161690Y-111799069D01*
X159161692Y-111799069D01*
X159343671Y-111723692D01*
X159343684Y-111723685D01*
X159507462Y-111614251D01*
X159507466Y-111614248D01*
X159646748Y-111474966D01*
X159676822Y-111429959D01*
X159676823Y-111429957D01*
X159756185Y-111311184D01*
X159756192Y-111311171D01*
X159831569Y-111129193D01*
X159831572Y-111129181D01*
X159869999Y-110935995D01*
X159870000Y-110935992D01*
X159870000Y-110687500D01*
X159170000Y-110687500D01*
X159170000Y-110187500D01*
X159870000Y-110187500D01*
X159870000Y-109939008D01*
X159869999Y-109939004D01*
X159831572Y-109745818D01*
X159831569Y-109745806D01*
X159756192Y-109563828D01*
X159756185Y-109563815D01*
X159646751Y-109400037D01*
X159646748Y-109400033D01*
X159507466Y-109260751D01*
X159507462Y-109260748D01*
X159343684Y-109151314D01*
X159343671Y-109151307D01*
X159161691Y-109075929D01*
X159161683Y-109075927D01*
X159120000Y-109067635D01*
X159120000Y-109870511D01*
X159110060Y-109853295D01*
X159054205Y-109797440D01*
X158985796Y-109757944D01*
X158909496Y-109737500D01*
X158830504Y-109737500D01*
X158754204Y-109757944D01*
X158685795Y-109797440D01*
X158629940Y-109853295D01*
X158620000Y-109870511D01*
X158620000Y-109067636D01*
X158619999Y-109067635D01*
X158578316Y-109075927D01*
X158578308Y-109075929D01*
X158396328Y-109151307D01*
X158396315Y-109151314D01*
X158295271Y-109218831D01*
X158228594Y-109239709D01*
X158161214Y-109221225D01*
X158138699Y-109203410D01*
X158062162Y-109126873D01*
X157922860Y-109033795D01*
X157768082Y-108969684D01*
X157768074Y-108969682D01*
X157603771Y-108937000D01*
X157603767Y-108937000D01*
X157528607Y-108937000D01*
X157459420Y-108934614D01*
X157387956Y-108946284D01*
X157381832Y-108946672D01*
X157353487Y-108940262D01*
X157324648Y-108936676D01*
X157319817Y-108932648D01*
X157313684Y-108931262D01*
X157293305Y-108910546D01*
X157270982Y-108891936D01*
X157269095Y-108885936D01*
X157264685Y-108881453D01*
X157258740Y-108853006D01*
X157250023Y-108825284D01*
X157250000Y-108822920D01*
X157250000Y-108689672D01*
X157249999Y-108689655D01*
X157243598Y-108630127D01*
X157243596Y-108630120D01*
X157193354Y-108495413D01*
X157193350Y-108495406D01*
X157107190Y-108380312D01*
X157107187Y-108380309D01*
X156992093Y-108294149D01*
X156992086Y-108294145D01*
X156857379Y-108243903D01*
X156857372Y-108243901D01*
X156797844Y-108237500D01*
X156700000Y-108237500D01*
X156700000Y-109163500D01*
X156680315Y-109230539D01*
X156627511Y-109276294D01*
X156576000Y-109287500D01*
X156324000Y-109287500D01*
X156256961Y-109267815D01*
X156211206Y-109215011D01*
X156200000Y-109163500D01*
X156200000Y-108383742D01*
X156219685Y-108316703D01*
X156236312Y-108296068D01*
X156390460Y-108141921D01*
X156430022Y-108073398D01*
X156450500Y-107996972D01*
X156450500Y-107917848D01*
X156450500Y-106508676D01*
X156470185Y-106441637D01*
X156486819Y-106420995D01*
X156513517Y-106394297D01*
X156550500Y-106357314D01*
X156616392Y-106243186D01*
X156650500Y-106115892D01*
X156650500Y-105984108D01*
X156616392Y-105856814D01*
X156550500Y-105742686D01*
X156457314Y-105649500D01*
X156398819Y-105615728D01*
X156343187Y-105583608D01*
X156273161Y-105564845D01*
X156215892Y-105549500D01*
X156084108Y-105549500D01*
X155956812Y-105583608D01*
X155842686Y-105649500D01*
X155842683Y-105649502D01*
X155749502Y-105742683D01*
X155749497Y-105742689D01*
X155732823Y-105771570D01*
X155682255Y-105819785D01*
X155613647Y-105833006D01*
X155590844Y-105828645D01*
X155570917Y-105822856D01*
X155570908Y-105822854D01*
X155550000Y-105821209D01*
X155550000Y-106476000D01*
X155530315Y-106543039D01*
X155477511Y-106588794D01*
X155426000Y-106600000D01*
X155174000Y-106600000D01*
X155106961Y-106580315D01*
X155061206Y-106527511D01*
X155050000Y-106476000D01*
X155050000Y-105821210D01*
X155049999Y-105821209D01*
X155029091Y-105822854D01*
X155029079Y-105822856D01*
X155001385Y-105830902D01*
X154931516Y-105830701D01*
X154872847Y-105792758D01*
X154854408Y-105764223D01*
X154853225Y-105761685D01*
X154768316Y-105676776D01*
X154659487Y-105626028D01*
X154659485Y-105626027D01*
X154659486Y-105626027D01*
X154609902Y-105619500D01*
X154609901Y-105619500D01*
X154524500Y-105619500D01*
X154515814Y-105616949D01*
X154506853Y-105618238D01*
X154482812Y-105607259D01*
X154457461Y-105599815D01*
X154451533Y-105592974D01*
X154443297Y-105589213D01*
X154429007Y-105566978D01*
X154411706Y-105547011D01*
X154409418Y-105536496D01*
X154405523Y-105530435D01*
X154400500Y-105495500D01*
X154400500Y-105289967D01*
X154420185Y-105222928D01*
X154436819Y-105202286D01*
X154437319Y-105201786D01*
X154456963Y-105191059D01*
X154472989Y-105177173D01*
X154485756Y-105175337D01*
X154498642Y-105168301D01*
X154522717Y-105170022D01*
X154542147Y-105167229D01*
X154553007Y-105172188D01*
X154568334Y-105173285D01*
X154593963Y-105189756D01*
X154595293Y-105187767D01*
X154671769Y-105238867D01*
X154671770Y-105238868D01*
X154730247Y-105250499D01*
X154730250Y-105250500D01*
X154730252Y-105250500D01*
X155169750Y-105250500D01*
X155169751Y-105250499D01*
X155184568Y-105247552D01*
X155228229Y-105238868D01*
X155228229Y-105238867D01*
X155228231Y-105238867D01*
X155275233Y-105207461D01*
X155304707Y-105187767D01*
X155306921Y-105191081D01*
X155348642Y-105168301D01*
X155418334Y-105173285D01*
X155443963Y-105189756D01*
X155445293Y-105187767D01*
X155521769Y-105238867D01*
X155521770Y-105238868D01*
X155580247Y-105250499D01*
X155580250Y-105250500D01*
X155580252Y-105250500D01*
X156019750Y-105250500D01*
X156019751Y-105250499D01*
X156034568Y-105247552D01*
X156078229Y-105238868D01*
X156078229Y-105238867D01*
X156078231Y-105238867D01*
X156125233Y-105207461D01*
X156154707Y-105187767D01*
X156156921Y-105191081D01*
X156198642Y-105168301D01*
X156268334Y-105173285D01*
X156293963Y-105189756D01*
X156295293Y-105187767D01*
X156371769Y-105238867D01*
X156371770Y-105238868D01*
X156430247Y-105250499D01*
X156430250Y-105250500D01*
X156430252Y-105250500D01*
X156869750Y-105250500D01*
X156869751Y-105250499D01*
X156884568Y-105247552D01*
X156928229Y-105238868D01*
X156928229Y-105238867D01*
X156928231Y-105238867D01*
X156975233Y-105207461D01*
X157004707Y-105187767D01*
X157006921Y-105191081D01*
X157048642Y-105168301D01*
X157118334Y-105173285D01*
X157143963Y-105189756D01*
X157145293Y-105187767D01*
X157221769Y-105238867D01*
X157221770Y-105238868D01*
X157280247Y-105250499D01*
X157280250Y-105250500D01*
X157280252Y-105250500D01*
X157719750Y-105250500D01*
X157719751Y-105250499D01*
X157734568Y-105247552D01*
X157778229Y-105238868D01*
X157778229Y-105238867D01*
X157778231Y-105238867D01*
X157825233Y-105207461D01*
X157854707Y-105187767D01*
X157856921Y-105191081D01*
X157898642Y-105168301D01*
X157968334Y-105173285D01*
X157993963Y-105189756D01*
X157995293Y-105187767D01*
X158071769Y-105238867D01*
X158071770Y-105238868D01*
X158130247Y-105250499D01*
X158130250Y-105250500D01*
X158130252Y-105250500D01*
X158569750Y-105250500D01*
X158569751Y-105250499D01*
X158584568Y-105247552D01*
X158628229Y-105238868D01*
X158628229Y-105238867D01*
X158628231Y-105238867D01*
X158694552Y-105194552D01*
X158694552Y-105194550D01*
X158700313Y-105190702D01*
X158700690Y-105190200D01*
X158701540Y-105189882D01*
X158704707Y-105187767D01*
X158705206Y-105188515D01*
X158725449Y-105180965D01*
X158748642Y-105168301D01*
X158757671Y-105168946D01*
X158766154Y-105165783D01*
X158791974Y-105171399D01*
X158818334Y-105173285D01*
X158827387Y-105179103D01*
X158834427Y-105180635D01*
X158862681Y-105201786D01*
X158863181Y-105202286D01*
X158896666Y-105263609D01*
X158899500Y-105289967D01*
X158899500Y-106639562D01*
X158907035Y-106667681D01*
X158919979Y-106715990D01*
X158919980Y-106715991D01*
X158945100Y-106759500D01*
X158959540Y-106784511D01*
X161265489Y-109090460D01*
X161324829Y-109124720D01*
X161328559Y-109126874D01*
X161334012Y-109130022D01*
X161410438Y-109150500D01*
X164711156Y-109150500D01*
X164778195Y-109170185D01*
X164813643Y-109210765D01*
X164815553Y-109209429D01*
X164821775Y-109218315D01*
X164821776Y-109218316D01*
X164906684Y-109303224D01*
X165015513Y-109353972D01*
X165065099Y-109360500D01*
X165424900Y-109360499D01*
X165474487Y-109353972D01*
X165583316Y-109303224D01*
X165637319Y-109249221D01*
X165698642Y-109215736D01*
X165768334Y-109220720D01*
X165812681Y-109249221D01*
X165866684Y-109303224D01*
X165975513Y-109353972D01*
X166025099Y-109360500D01*
X166384900Y-109360499D01*
X166434487Y-109353972D01*
X166515731Y-109316086D01*
X166584808Y-109305595D01*
X166648592Y-109334114D01*
X166655817Y-109340788D01*
X168153348Y-110838319D01*
X168186833Y-110899642D01*
X168181849Y-110969334D01*
X168139977Y-111025267D01*
X168074513Y-111049684D01*
X168065667Y-111050000D01*
X167900000Y-111050000D01*
X167900000Y-112074722D01*
X167823694Y-112030667D01*
X167709244Y-112000000D01*
X167590756Y-112000000D01*
X167476306Y-112030667D01*
X167400000Y-112074722D01*
X167400000Y-111050000D01*
X166702155Y-111050000D01*
X166642627Y-111056401D01*
X166642620Y-111056403D01*
X166507913Y-111106645D01*
X166507906Y-111106649D01*
X166392812Y-111192809D01*
X166392809Y-111192812D01*
X166306649Y-111307906D01*
X166306645Y-111307913D01*
X166256403Y-111442620D01*
X166256401Y-111442627D01*
X166250000Y-111502155D01*
X166250000Y-112200000D01*
X167274722Y-112200000D01*
X167230667Y-112276306D01*
X167200000Y-112390756D01*
X167200000Y-112509244D01*
X167230667Y-112623694D01*
X167274722Y-112700000D01*
X166250000Y-112700000D01*
X166250000Y-113397844D01*
X166256401Y-113457372D01*
X166256403Y-113457379D01*
X166306645Y-113592086D01*
X166306649Y-113592093D01*
X166392809Y-113707187D01*
X166392812Y-113707190D01*
X166507906Y-113793350D01*
X166507913Y-113793354D01*
X166642620Y-113843596D01*
X166642627Y-113843598D01*
X166702155Y-113849999D01*
X166702172Y-113850000D01*
X167400000Y-113850000D01*
X167400000Y-112825277D01*
X167476306Y-112869333D01*
X167590756Y-112900000D01*
X167709244Y-112900000D01*
X167823694Y-112869333D01*
X167900000Y-112825277D01*
X167900000Y-113850000D01*
X168597828Y-113850000D01*
X168597844Y-113849999D01*
X168657372Y-113843598D01*
X168657379Y-113843596D01*
X168792086Y-113793354D01*
X168792093Y-113793350D01*
X168907187Y-113707190D01*
X168907190Y-113707187D01*
X168993350Y-113592093D01*
X168993354Y-113592086D01*
X169043596Y-113457379D01*
X169043598Y-113457372D01*
X169049999Y-113397844D01*
X169050000Y-113397827D01*
X169050000Y-113134840D01*
X169069685Y-113067801D01*
X169122489Y-113022046D01*
X169191647Y-113012102D01*
X169255203Y-113041127D01*
X169274316Y-113061952D01*
X169350586Y-113166928D01*
X169473072Y-113289414D01*
X169613212Y-113391232D01*
X169767555Y-113469873D01*
X169932299Y-113523402D01*
X170103389Y-113550500D01*
X170103390Y-113550500D01*
X170276610Y-113550500D01*
X170276611Y-113550500D01*
X170447701Y-113523402D01*
X170612445Y-113469873D01*
X170766788Y-113391232D01*
X170906928Y-113289414D01*
X171029414Y-113166928D01*
X171131232Y-113026788D01*
X171209873Y-112872445D01*
X171263402Y-112707701D01*
X171290500Y-112536611D01*
X171290500Y-112363389D01*
X171263402Y-112192299D01*
X171209873Y-112027555D01*
X171131232Y-111873212D01*
X171029414Y-111733072D01*
X170906928Y-111610586D01*
X170766788Y-111508768D01*
X170612445Y-111430127D01*
X170447701Y-111376598D01*
X170447699Y-111376597D01*
X170447698Y-111376597D01*
X170300496Y-111353283D01*
X170276611Y-111349500D01*
X170103389Y-111349500D01*
X170079504Y-111353283D01*
X169932301Y-111376597D01*
X169767557Y-111430125D01*
X169733576Y-111447439D01*
X169664907Y-111460333D01*
X169600167Y-111434054D01*
X169589604Y-111424633D01*
X167512815Y-109347844D01*
X168900000Y-109347844D01*
X168906401Y-109407372D01*
X168906403Y-109407379D01*
X168956645Y-109542086D01*
X168956649Y-109542093D01*
X169042809Y-109657187D01*
X169042812Y-109657190D01*
X169157906Y-109743350D01*
X169157913Y-109743354D01*
X169292620Y-109793596D01*
X169292627Y-109793598D01*
X169352155Y-109799999D01*
X169352172Y-109800000D01*
X170400000Y-109800000D01*
X170400000Y-108300000D01*
X168900000Y-108300000D01*
X168900000Y-109347844D01*
X167512815Y-109347844D01*
X166774512Y-108609541D01*
X166774507Y-108609537D01*
X166705990Y-108569979D01*
X166705186Y-108569646D01*
X166704611Y-108569183D01*
X166698951Y-108565915D01*
X166699460Y-108565032D01*
X166650782Y-108525804D01*
X166640257Y-108507489D01*
X166628224Y-108481684D01*
X166543316Y-108396776D01*
X166462390Y-108359039D01*
X166434486Y-108346027D01*
X166384902Y-108339500D01*
X166025105Y-108339500D01*
X166010513Y-108341421D01*
X165975513Y-108346028D01*
X165975511Y-108346029D01*
X165975509Y-108346029D01*
X165866683Y-108396776D01*
X165812681Y-108450779D01*
X165751358Y-108484264D01*
X165681666Y-108479280D01*
X165637319Y-108450779D01*
X165583316Y-108396776D01*
X165474487Y-108346028D01*
X165474485Y-108346027D01*
X165474486Y-108346027D01*
X165424902Y-108339500D01*
X165065105Y-108339500D01*
X165050513Y-108341421D01*
X165015513Y-108346028D01*
X165015511Y-108346029D01*
X165015509Y-108346029D01*
X164906683Y-108396776D01*
X164821775Y-108481684D01*
X164815553Y-108490571D01*
X164813594Y-108489199D01*
X164777360Y-108530348D01*
X164711156Y-108549500D01*
X161625833Y-108549500D01*
X161558794Y-108529815D01*
X161538152Y-108513181D01*
X159536819Y-106511848D01*
X159503334Y-106450525D01*
X159500500Y-106424167D01*
X159500500Y-105631884D01*
X159520185Y-105564845D01*
X159572989Y-105519090D01*
X159642147Y-105509146D01*
X159667834Y-105515703D01*
X159742616Y-105543595D01*
X159742627Y-105543598D01*
X159802155Y-105549999D01*
X159802172Y-105550000D01*
X160000000Y-105550000D01*
X160500000Y-105550000D01*
X160697828Y-105550000D01*
X160697844Y-105549999D01*
X160757372Y-105543598D01*
X160757379Y-105543596D01*
X160892086Y-105493354D01*
X160892093Y-105493350D01*
X161007187Y-105407190D01*
X161007190Y-105407187D01*
X161093350Y-105292093D01*
X161093354Y-105292086D01*
X161143596Y-105157379D01*
X161143598Y-105157372D01*
X161149999Y-105097844D01*
X161150000Y-105097827D01*
X161150000Y-104900000D01*
X160500000Y-104900000D01*
X160500000Y-105550000D01*
X160000000Y-105550000D01*
X160000000Y-104774000D01*
X160019685Y-104706961D01*
X160072489Y-104661206D01*
X160124000Y-104650000D01*
X160250000Y-104650000D01*
X160250000Y-104524000D01*
X160269685Y-104456961D01*
X160322489Y-104411206D01*
X160374000Y-104400000D01*
X161150000Y-104400000D01*
X161150000Y-104202172D01*
X161149999Y-104202155D01*
X161143598Y-104142627D01*
X161143596Y-104142620D01*
X161093354Y-104007913D01*
X161093350Y-104007906D01*
X161007190Y-103892812D01*
X160900188Y-103812709D01*
X160858318Y-103756775D01*
X160850500Y-103713443D01*
X160850500Y-103380252D01*
X160849824Y-103376856D01*
X160844012Y-103347635D01*
X160850238Y-103278046D01*
X160893100Y-103222868D01*
X160958990Y-103199622D01*
X161026987Y-103215689D01*
X161073015Y-103261443D01*
X161099495Y-103307307D01*
X161099498Y-103307311D01*
X161099500Y-103307314D01*
X161192686Y-103400500D01*
X161306814Y-103466392D01*
X161434108Y-103500500D01*
X161434110Y-103500500D01*
X161524167Y-103500500D01*
X161553607Y-103509144D01*
X161583594Y-103515668D01*
X161588609Y-103519422D01*
X161591206Y-103520185D01*
X161611848Y-103536819D01*
X161663181Y-103588152D01*
X161696666Y-103649475D01*
X161699500Y-103675833D01*
X161699500Y-103960438D01*
X161699500Y-104539562D01*
X161704123Y-104556814D01*
X161719979Y-104615990D01*
X161719980Y-104615991D01*
X161743938Y-104657489D01*
X161751150Y-104669979D01*
X161759540Y-104684511D01*
X161891557Y-104816528D01*
X161893101Y-104818190D01*
X161907730Y-104847496D01*
X161923419Y-104876228D01*
X161923250Y-104878587D01*
X161924307Y-104880704D01*
X161920770Y-104913260D01*
X161918435Y-104945920D01*
X161916976Y-104948189D01*
X161916762Y-104950165D01*
X161911601Y-104956553D01*
X161889945Y-104990257D01*
X161887522Y-104992680D01*
X161887518Y-104992685D01*
X161821626Y-105106811D01*
X161787518Y-105234107D01*
X161787518Y-105365890D01*
X161821626Y-105493186D01*
X161834735Y-105515891D01*
X161887518Y-105607313D01*
X161887520Y-105607315D01*
X161951199Y-105670994D01*
X161965902Y-105697921D01*
X161982495Y-105723740D01*
X161983386Y-105729940D01*
X161984684Y-105732317D01*
X161987518Y-105758675D01*
X161987518Y-105901044D01*
X161967833Y-105968083D01*
X161929744Y-106001087D01*
X161931923Y-106004348D01*
X161855447Y-106055447D01*
X161811132Y-106121769D01*
X161811131Y-106121770D01*
X161799500Y-106180247D01*
X161799500Y-107719752D01*
X161811131Y-107778229D01*
X161811132Y-107778230D01*
X161855447Y-107844552D01*
X161921769Y-107888867D01*
X161921770Y-107888868D01*
X161980247Y-107900499D01*
X161980250Y-107900500D01*
X161980252Y-107900500D01*
X163519750Y-107900500D01*
X163519751Y-107900499D01*
X163534568Y-107897552D01*
X163578229Y-107888868D01*
X163578229Y-107888867D01*
X163578231Y-107888867D01*
X163644552Y-107844552D01*
X163688867Y-107778231D01*
X163688867Y-107778229D01*
X163688868Y-107778229D01*
X163700499Y-107719752D01*
X163700500Y-107719750D01*
X163700500Y-106750000D01*
X165695496Y-106750000D01*
X165737968Y-106896195D01*
X165820278Y-107035374D01*
X165820285Y-107035383D01*
X165934616Y-107149714D01*
X165934625Y-107149721D01*
X166073804Y-107232031D01*
X166229089Y-107277145D01*
X166250000Y-107278789D01*
X166750000Y-107278789D01*
X166770910Y-107277145D01*
X166926195Y-107232031D01*
X167065374Y-107149721D01*
X167065383Y-107149714D01*
X167179714Y-107035383D01*
X167179721Y-107035374D01*
X167262031Y-106896195D01*
X167303878Y-106752155D01*
X168900000Y-106752155D01*
X168900000Y-107800000D01*
X170400000Y-107800000D01*
X170400000Y-106300000D01*
X169352155Y-106300000D01*
X169292627Y-106306401D01*
X169292620Y-106306403D01*
X169157913Y-106356645D01*
X169157906Y-106356649D01*
X169042812Y-106442809D01*
X169042809Y-106442812D01*
X168956649Y-106557906D01*
X168956645Y-106557913D01*
X168906403Y-106692620D01*
X168906401Y-106692627D01*
X168900000Y-106752155D01*
X167303878Y-106752155D01*
X167304504Y-106750000D01*
X166750000Y-106750000D01*
X166750000Y-107278789D01*
X166250000Y-107278789D01*
X166250000Y-106750000D01*
X165695496Y-106750000D01*
X163700500Y-106750000D01*
X163700500Y-106200504D01*
X163720185Y-106133465D01*
X163772989Y-106087710D01*
X163842147Y-106077766D01*
X163886501Y-106093117D01*
X163925944Y-106115890D01*
X163926814Y-106116392D01*
X164054108Y-106150500D01*
X164054110Y-106150500D01*
X164185890Y-106150500D01*
X164185892Y-106150500D01*
X164313186Y-106116392D01*
X164427314Y-106050500D01*
X164520500Y-105957314D01*
X164586392Y-105843186D01*
X164620500Y-105715892D01*
X164620500Y-105584108D01*
X164586392Y-105456814D01*
X164586390Y-105456810D01*
X164565239Y-105420175D01*
X164548766Y-105352275D01*
X164571618Y-105286248D01*
X164626540Y-105243057D01*
X164696093Y-105236416D01*
X164746939Y-105258909D01*
X164772914Y-105278354D01*
X164772913Y-105278354D01*
X164907620Y-105328596D01*
X164907627Y-105328598D01*
X164967155Y-105334999D01*
X164967172Y-105335000D01*
X165015000Y-105335000D01*
X165015000Y-103505000D01*
X164967155Y-103505000D01*
X164907627Y-103511401D01*
X164907620Y-103511403D01*
X164772913Y-103561645D01*
X164772911Y-103561647D01*
X164716455Y-103603910D01*
X164650991Y-103628327D01*
X164582718Y-103613476D01*
X164542878Y-103578955D01*
X164452188Y-103457811D01*
X164344048Y-103376856D01*
X164327606Y-103354891D01*
X164308537Y-103335165D01*
X164305685Y-103325608D01*
X164302178Y-103320922D01*
X164296765Y-103301892D01*
X164295500Y-103295562D01*
X164295500Y-103295252D01*
X164283867Y-103236769D01*
X164283699Y-103236518D01*
X164281258Y-103224302D01*
X164283304Y-103201196D01*
X164280796Y-103178137D01*
X164281646Y-103175242D01*
X164281485Y-103175210D01*
X164295499Y-103104752D01*
X164295500Y-103104750D01*
X164295500Y-102795249D01*
X164295499Y-102795247D01*
X164281485Y-102724790D01*
X164284753Y-102724139D01*
X164279350Y-102688911D01*
X164281312Y-102667054D01*
X164283867Y-102663231D01*
X164295500Y-102604748D01*
X164295500Y-102509035D01*
X164295997Y-102503500D01*
X164306845Y-102475950D01*
X164315185Y-102447550D01*
X164319502Y-102443808D01*
X164321597Y-102438490D01*
X164345620Y-102421177D01*
X164367989Y-102401795D01*
X164373829Y-102400848D01*
X164378282Y-102397640D01*
X164401155Y-102396420D01*
X164432758Y-102391300D01*
X164467160Y-102394999D01*
X164467172Y-102395000D01*
X164515000Y-102395000D01*
X164515000Y-101615000D01*
X164125916Y-101615000D01*
X164115738Y-101614500D01*
X164114748Y-101614500D01*
X163658362Y-101614500D01*
X163591323Y-101594815D01*
X163545568Y-101542011D01*
X163535624Y-101472853D01*
X163564649Y-101409297D01*
X163570681Y-101402819D01*
X163683788Y-101289712D01*
X163803321Y-101170178D01*
X163864642Y-101136695D01*
X163934333Y-101141679D01*
X163990267Y-101183550D01*
X164014684Y-101249015D01*
X164015000Y-101257861D01*
X164015000Y-101345000D01*
X164526000Y-101345000D01*
X164534685Y-101347550D01*
X164543647Y-101346262D01*
X164567687Y-101357240D01*
X164593039Y-101364685D01*
X164598966Y-101371525D01*
X164607203Y-101375287D01*
X164621492Y-101397521D01*
X164638794Y-101417489D01*
X164641081Y-101428003D01*
X164644977Y-101434065D01*
X164650000Y-101469000D01*
X164650000Y-101480000D01*
X164661000Y-101480000D01*
X164728039Y-101499685D01*
X164773794Y-101552489D01*
X164785000Y-101604000D01*
X164785000Y-102395000D01*
X164832828Y-102395000D01*
X164832844Y-102394999D01*
X164892372Y-102388598D01*
X164892379Y-102388596D01*
X165027086Y-102338354D01*
X165027093Y-102338350D01*
X165142186Y-102252190D01*
X165223142Y-102144049D01*
X165245107Y-102127605D01*
X165264834Y-102108537D01*
X165274387Y-102105687D01*
X165279076Y-102102178D01*
X165298107Y-102096765D01*
X165304437Y-102095500D01*
X165304748Y-102095500D01*
X165363231Y-102083867D01*
X165363481Y-102083699D01*
X165375698Y-102081258D01*
X165398804Y-102083304D01*
X165421863Y-102080796D01*
X165424757Y-102081646D01*
X165424790Y-102081485D01*
X165495247Y-102095499D01*
X165495250Y-102095500D01*
X165585410Y-102095500D01*
X165652449Y-102115185D01*
X165698204Y-102167989D01*
X165708700Y-102232754D01*
X165705000Y-102267169D01*
X165705000Y-102315000D01*
X166485000Y-102315000D01*
X166485000Y-101309612D01*
X166457995Y-101260157D01*
X166462979Y-101190465D01*
X166491480Y-101146118D01*
X166599714Y-101037883D01*
X166599721Y-101037874D01*
X166682031Y-100898695D01*
X166682033Y-100898690D01*
X166727144Y-100743418D01*
X166727145Y-100743412D01*
X166728790Y-100722500D01*
X166074000Y-100722500D01*
X166065314Y-100719949D01*
X166056353Y-100721238D01*
X166032312Y-100710259D01*
X166006961Y-100702815D01*
X166001033Y-100695974D01*
X165992797Y-100692213D01*
X165978507Y-100669978D01*
X165961206Y-100650011D01*
X165958918Y-100639496D01*
X165955023Y-100633435D01*
X165950000Y-100598500D01*
X165950000Y-100447000D01*
X165969685Y-100379961D01*
X166022489Y-100334206D01*
X166074000Y-100323000D01*
X166510438Y-100323000D01*
X166846604Y-100323000D01*
X166899008Y-100334617D01*
G37*
%TD.AperFunction*%
%TA.AperFunction,Conductor*%
G36*
X139135669Y-90369913D02*
G01*
X139181428Y-90422714D01*
X139191376Y-90491871D01*
X139162356Y-90555429D01*
X139134609Y-90579227D01*
X138959001Y-90689568D01*
X138838899Y-90785345D01*
X139378251Y-91324697D01*
X139411736Y-91386020D01*
X139406752Y-91455712D01*
X139375001Y-91501104D01*
X139375935Y-91502038D01*
X139202038Y-91675935D01*
X139200947Y-91674844D01*
X139148133Y-91709303D01*
X139078265Y-91709785D01*
X139024697Y-91678251D01*
X138485345Y-91138899D01*
X138389568Y-91259001D01*
X138328994Y-91355405D01*
X138276660Y-91401696D01*
X138207606Y-91412345D01*
X138143758Y-91383970D01*
X138105385Y-91325580D01*
X138100000Y-91289433D01*
X138100000Y-91252172D01*
X138099999Y-91252155D01*
X138093598Y-91192627D01*
X138093596Y-91192620D01*
X138043354Y-91057913D01*
X138043350Y-91057906D01*
X137957190Y-90942812D01*
X137957187Y-90942809D01*
X137842093Y-90856649D01*
X137842086Y-90856645D01*
X137707379Y-90806403D01*
X137707372Y-90806401D01*
X137647844Y-90800000D01*
X136600000Y-90800000D01*
X136600000Y-94300000D01*
X137647828Y-94300000D01*
X137647844Y-94299999D01*
X137707372Y-94293598D01*
X137707379Y-94293596D01*
X137842086Y-94243354D01*
X137842093Y-94243350D01*
X137957187Y-94157190D01*
X137957190Y-94157187D01*
X138043350Y-94042093D01*
X138043354Y-94042086D01*
X138084885Y-93930736D01*
X138126756Y-93874802D01*
X138192220Y-93850385D01*
X138260493Y-93865236D01*
X138306061Y-93908097D01*
X138389568Y-94040998D01*
X138485346Y-94161099D01*
X139024697Y-93621748D01*
X139086020Y-93588263D01*
X139155711Y-93593247D01*
X139201101Y-93625001D01*
X139202038Y-93624065D01*
X139375935Y-93797962D01*
X139374838Y-93799058D01*
X139409292Y-93851831D01*
X139409794Y-93921699D01*
X139378250Y-93975301D01*
X138838899Y-94514651D01*
X138838900Y-94514653D01*
X138958993Y-94610427D01*
X138958997Y-94610429D01*
X139187247Y-94753847D01*
X139430104Y-94870801D01*
X139430118Y-94870807D01*
X139684536Y-94959832D01*
X139684548Y-94959836D01*
X139947348Y-95019818D01*
X139947366Y-95019821D01*
X140215212Y-95049999D01*
X140215216Y-95050000D01*
X140484784Y-95050000D01*
X140484787Y-95049999D01*
X140752633Y-95019821D01*
X140752651Y-95019818D01*
X141015451Y-94959836D01*
X141015463Y-94959832D01*
X141269881Y-94870807D01*
X141269895Y-94870801D01*
X141512752Y-94753847D01*
X141740999Y-94610431D01*
X141861098Y-94514653D01*
X141861099Y-94514652D01*
X141321748Y-93975302D01*
X141288263Y-93913979D01*
X141293247Y-93844288D01*
X141325006Y-93798903D01*
X141324065Y-93797962D01*
X141497962Y-93624065D01*
X141499061Y-93625164D01*
X141551811Y-93590712D01*
X141621679Y-93590198D01*
X141675302Y-93621748D01*
X142214652Y-94161099D01*
X142214653Y-94161098D01*
X142310431Y-94040999D01*
X142453849Y-93812749D01*
X142528780Y-93657153D01*
X142575602Y-93605293D01*
X142643029Y-93586980D01*
X142709653Y-93608028D01*
X142754321Y-93661754D01*
X142764500Y-93710952D01*
X142764500Y-93759894D01*
X142764501Y-93759900D01*
X142771028Y-93809487D01*
X142771029Y-93809489D01*
X142771029Y-93809490D01*
X142821776Y-93918316D01*
X142840779Y-93937319D01*
X142874264Y-93998642D01*
X142869280Y-94068334D01*
X142840779Y-94112681D01*
X142821776Y-94131683D01*
X142771027Y-94240514D01*
X142764500Y-94290098D01*
X142764500Y-94709894D01*
X142764501Y-94709900D01*
X142771028Y-94759487D01*
X142771029Y-94759489D01*
X142771029Y-94759490D01*
X142821776Y-94868316D01*
X142863181Y-94909721D01*
X142896666Y-94971044D01*
X142899500Y-94997402D01*
X142899500Y-101925500D01*
X142896949Y-101934185D01*
X142898238Y-101943147D01*
X142887259Y-101967187D01*
X142879815Y-101992539D01*
X142872974Y-101998466D01*
X142869213Y-102006703D01*
X142846978Y-102020992D01*
X142827011Y-102038294D01*
X142816496Y-102040581D01*
X142810435Y-102044477D01*
X142775500Y-102049500D01*
X142725833Y-102049500D01*
X142658794Y-102029815D01*
X142638152Y-102013181D01*
X138134512Y-97509541D01*
X138134507Y-97509537D01*
X138116991Y-97499424D01*
X138116988Y-97499423D01*
X138101463Y-97490460D01*
X138065989Y-97469979D01*
X137989562Y-97449500D01*
X137909772Y-97449500D01*
X137895456Y-97446051D01*
X137877420Y-97435675D01*
X137857461Y-97429815D01*
X137847749Y-97418607D01*
X137834892Y-97411211D01*
X137825328Y-97392732D01*
X137811706Y-97377011D01*
X137807727Y-97358722D01*
X137802778Y-97349159D01*
X137803642Y-97339947D01*
X137800500Y-97325500D01*
X137800500Y-96480249D01*
X137800499Y-96480247D01*
X137788868Y-96421770D01*
X137788867Y-96421769D01*
X137744552Y-96355447D01*
X137678230Y-96311132D01*
X137678229Y-96311131D01*
X137619752Y-96299500D01*
X137619748Y-96299500D01*
X135080252Y-96299500D01*
X135080247Y-96299500D01*
X135021770Y-96311131D01*
X135021769Y-96311132D01*
X134955447Y-96355447D01*
X134911132Y-96421769D01*
X134911131Y-96421770D01*
X134899500Y-96480247D01*
X134899500Y-99019752D01*
X134911131Y-99078229D01*
X134911132Y-99078230D01*
X134955447Y-99144552D01*
X135021769Y-99188867D01*
X135021770Y-99188868D01*
X135080247Y-99200499D01*
X135080250Y-99200500D01*
X135080252Y-99200500D01*
X137619750Y-99200500D01*
X137619751Y-99200499D01*
X137634568Y-99197552D01*
X137678229Y-99188868D01*
X137678229Y-99188867D01*
X137678231Y-99188867D01*
X137744552Y-99144552D01*
X137788867Y-99078231D01*
X137788867Y-99078229D01*
X137788868Y-99078229D01*
X137800499Y-99019752D01*
X137800500Y-99019750D01*
X137800500Y-98324833D01*
X137820185Y-98257794D01*
X137872989Y-98212039D01*
X137942147Y-98202095D01*
X138005703Y-98231120D01*
X138012181Y-98237152D01*
X142213181Y-102438152D01*
X142246666Y-102499475D01*
X142249500Y-102525833D01*
X142249500Y-102615892D01*
X142262184Y-102663231D01*
X142283608Y-102743187D01*
X142313667Y-102795249D01*
X142349500Y-102857314D01*
X142442686Y-102950500D01*
X142556814Y-103016392D01*
X142684108Y-103050500D01*
X142684110Y-103050500D01*
X142815889Y-103050500D01*
X142815892Y-103050500D01*
X142893410Y-103029729D01*
X142963256Y-103031392D01*
X143021118Y-103070554D01*
X143048623Y-103134782D01*
X143049500Y-103149504D01*
X143049500Y-103411666D01*
X143029815Y-103478705D01*
X143013181Y-103499347D01*
X142343626Y-104168901D01*
X142282303Y-104202386D01*
X142231754Y-104202837D01*
X142152135Y-104187000D01*
X141647870Y-104187000D01*
X141567504Y-104202985D01*
X141476374Y-104263876D01*
X141467740Y-104272511D01*
X141466526Y-104271297D01*
X141423986Y-104306847D01*
X141354661Y-104315552D01*
X141291634Y-104285395D01*
X141254917Y-104225950D01*
X141250500Y-104193149D01*
X141250500Y-103909672D01*
X141270185Y-103842633D01*
X141305607Y-103806571D01*
X141373624Y-103761124D01*
X141434515Y-103669995D01*
X141450500Y-103589633D01*
X141450499Y-102385368D01*
X141434515Y-102305005D01*
X141397971Y-102250313D01*
X141373624Y-102213875D01*
X141318995Y-102177374D01*
X141282495Y-102152985D01*
X141282493Y-102152984D01*
X141282490Y-102152983D01*
X141202135Y-102137000D01*
X140697870Y-102137000D01*
X140617504Y-102152985D01*
X140526375Y-102213875D01*
X140465485Y-102305005D01*
X140465483Y-102305009D01*
X140449500Y-102385362D01*
X140449500Y-102563000D01*
X140429815Y-102630039D01*
X140377011Y-102675794D01*
X140325500Y-102687000D01*
X139972938Y-102687000D01*
X139924422Y-102700000D01*
X139896510Y-102707479D01*
X139871293Y-102722038D01*
X139839317Y-102740500D01*
X139834665Y-102743186D01*
X139827988Y-102747040D01*
X136109539Y-106465489D01*
X136086285Y-106505767D01*
X136069979Y-106534011D01*
X136069978Y-106534013D01*
X136067966Y-106537499D01*
X136017399Y-106585715D01*
X135960578Y-106599500D01*
X135080247Y-106599500D01*
X135021770Y-106611131D01*
X135021769Y-106611132D01*
X134955447Y-106655447D01*
X134911132Y-106721769D01*
X134911131Y-106721770D01*
X134899500Y-106780247D01*
X134899500Y-109319752D01*
X134911131Y-109378229D01*
X134911132Y-109378230D01*
X134955447Y-109444552D01*
X135021769Y-109488867D01*
X135021770Y-109488868D01*
X135080247Y-109500499D01*
X135080250Y-109500500D01*
X135080252Y-109500500D01*
X137619750Y-109500500D01*
X137619751Y-109500499D01*
X137634568Y-109497552D01*
X137678229Y-109488868D01*
X137678229Y-109488867D01*
X137678231Y-109488867D01*
X137744552Y-109444552D01*
X137788867Y-109378231D01*
X137788867Y-109378229D01*
X137788868Y-109378229D01*
X137800499Y-109319752D01*
X137800500Y-109319750D01*
X137800500Y-106780249D01*
X137800499Y-106780247D01*
X137788868Y-106721770D01*
X137788867Y-106721769D01*
X137744552Y-106655447D01*
X137678230Y-106611132D01*
X137678229Y-106611131D01*
X137619752Y-106599500D01*
X137619748Y-106599500D01*
X137124833Y-106599500D01*
X137057794Y-106579815D01*
X137012039Y-106527011D01*
X137002095Y-106457853D01*
X137031120Y-106394297D01*
X137037152Y-106387819D01*
X137774774Y-105650197D01*
X139200000Y-105650197D01*
X139214800Y-105762604D01*
X139214801Y-105762608D01*
X139272736Y-105902478D01*
X139364905Y-106022594D01*
X139485021Y-106114763D01*
X139624891Y-106172698D01*
X139624895Y-106172699D01*
X139737302Y-106187499D01*
X139737317Y-106187500D01*
X139750000Y-106187500D01*
X139750000Y-105287500D01*
X139200000Y-105287500D01*
X139200000Y-105650197D01*
X137774774Y-105650197D01*
X138988319Y-104436652D01*
X139049642Y-104403167D01*
X139119334Y-104408151D01*
X139175267Y-104450023D01*
X139199684Y-104515487D01*
X139200000Y-104524333D01*
X139200000Y-104787500D01*
X139750000Y-104787500D01*
X139750000Y-103887500D01*
X139731416Y-103868916D01*
X139697931Y-103807593D01*
X139702915Y-103737901D01*
X139731414Y-103693556D01*
X140100652Y-103324319D01*
X140127579Y-103309615D01*
X140153398Y-103293023D01*
X140159598Y-103292131D01*
X140161975Y-103290834D01*
X140188333Y-103288000D01*
X140325501Y-103288000D01*
X140392540Y-103307685D01*
X140438295Y-103360489D01*
X140449501Y-103412000D01*
X140449501Y-103589632D01*
X140461404Y-103649475D01*
X140465485Y-103669995D01*
X140492350Y-103710201D01*
X140513228Y-103776879D01*
X140494743Y-103844259D01*
X140442764Y-103890949D01*
X140373794Y-103902125D01*
X140373062Y-103902031D01*
X140262697Y-103887500D01*
X140250000Y-103887500D01*
X140250000Y-106187500D01*
X140262683Y-106187500D01*
X140262697Y-106187499D01*
X140375104Y-106172699D01*
X140375105Y-106172699D01*
X140456652Y-106138922D01*
X140526122Y-106131453D01*
X140588601Y-106162728D01*
X140611491Y-106191480D01*
X140649500Y-106257314D01*
X140742686Y-106350500D01*
X140856814Y-106416392D01*
X140984108Y-106450500D01*
X140984110Y-106450500D01*
X141124019Y-106450500D01*
X141124019Y-106453707D01*
X141178171Y-106462144D01*
X141230434Y-106508515D01*
X141249330Y-106575781D01*
X141228860Y-106642585D01*
X141213020Y-106662007D01*
X139570662Y-108304365D01*
X139509339Y-108337850D01*
X139499166Y-108339623D01*
X139450516Y-108346027D01*
X139450509Y-108346029D01*
X139341683Y-108396776D01*
X139287681Y-108450779D01*
X139226358Y-108484264D01*
X139156666Y-108479280D01*
X139112319Y-108450779D01*
X139058316Y-108396776D01*
X138949487Y-108346028D01*
X138949485Y-108346027D01*
X138949486Y-108346027D01*
X138899902Y-108339500D01*
X138540105Y-108339500D01*
X138525513Y-108341421D01*
X138490513Y-108346028D01*
X138490511Y-108346029D01*
X138490509Y-108346029D01*
X138381683Y-108396776D01*
X138296776Y-108481683D01*
X138246027Y-108590514D01*
X138239500Y-108640098D01*
X138239500Y-109059894D01*
X138239501Y-109059900D01*
X138246028Y-109109487D01*
X138246029Y-109109489D01*
X138246029Y-109109490D01*
X138296776Y-109218316D01*
X138363181Y-109284721D01*
X138396666Y-109346044D01*
X138399500Y-109372402D01*
X138399500Y-111388814D01*
X138379815Y-111455853D01*
X138331797Y-111499298D01*
X138326157Y-111502172D01*
X138313212Y-111508768D01*
X138173072Y-111610586D01*
X138173070Y-111610588D01*
X138173069Y-111610588D01*
X138050587Y-111733070D01*
X137974318Y-111838045D01*
X137918987Y-111880711D01*
X137849374Y-111886689D01*
X137787579Y-111854083D01*
X137753222Y-111793244D01*
X137750000Y-111765159D01*
X137750000Y-111502172D01*
X137749999Y-111502155D01*
X137743598Y-111442627D01*
X137743596Y-111442620D01*
X137693354Y-111307913D01*
X137693350Y-111307906D01*
X137607190Y-111192812D01*
X137607187Y-111192809D01*
X137492093Y-111106649D01*
X137492086Y-111106645D01*
X137357379Y-111056403D01*
X137357372Y-111056401D01*
X137297844Y-111050000D01*
X136600000Y-111050000D01*
X136600000Y-112074722D01*
X136523694Y-112030667D01*
X136409244Y-112000000D01*
X136290756Y-112000000D01*
X136176306Y-112030667D01*
X136100000Y-112074722D01*
X136100000Y-111050000D01*
X135402155Y-111050000D01*
X135342627Y-111056401D01*
X135342620Y-111056403D01*
X135207913Y-111106645D01*
X135207906Y-111106649D01*
X135092812Y-111192809D01*
X135092809Y-111192812D01*
X135006649Y-111307906D01*
X135006645Y-111307913D01*
X134956403Y-111442620D01*
X134956401Y-111442627D01*
X134950000Y-111502155D01*
X134950000Y-112200000D01*
X135974722Y-112200000D01*
X135930667Y-112276306D01*
X135900000Y-112390756D01*
X135900000Y-112509244D01*
X135930667Y-112623694D01*
X135974722Y-112700000D01*
X134950000Y-112700000D01*
X134950000Y-113397844D01*
X134956401Y-113457372D01*
X134956403Y-113457379D01*
X135006645Y-113592086D01*
X135006649Y-113592093D01*
X135092809Y-113707187D01*
X135092812Y-113707190D01*
X135207906Y-113793350D01*
X135207913Y-113793354D01*
X135342620Y-113843596D01*
X135342627Y-113843598D01*
X135402155Y-113849999D01*
X135402172Y-113850000D01*
X136100000Y-113850000D01*
X136100000Y-112825277D01*
X136176306Y-112869333D01*
X136290756Y-112900000D01*
X136409244Y-112900000D01*
X136523694Y-112869333D01*
X136600000Y-112825277D01*
X136600000Y-113850000D01*
X137297828Y-113850000D01*
X137297844Y-113849999D01*
X137357372Y-113843598D01*
X137357380Y-113843596D01*
X137386679Y-113832669D01*
X137492086Y-113793354D01*
X137492093Y-113793350D01*
X137607187Y-113707190D01*
X137607190Y-113707187D01*
X137693350Y-113592093D01*
X137693354Y-113592086D01*
X137743596Y-113457379D01*
X137743598Y-113457372D01*
X137749999Y-113397844D01*
X137750000Y-113397827D01*
X137750000Y-113134840D01*
X137769685Y-113067801D01*
X137822489Y-113022046D01*
X137891647Y-113012102D01*
X137955203Y-113041127D01*
X137974316Y-113061952D01*
X138050586Y-113166928D01*
X138173072Y-113289414D01*
X138313212Y-113391232D01*
X138467555Y-113469873D01*
X138632299Y-113523402D01*
X138803389Y-113550500D01*
X138803390Y-113550500D01*
X138976610Y-113550500D01*
X138976611Y-113550500D01*
X139147701Y-113523402D01*
X139312445Y-113469873D01*
X139466788Y-113391232D01*
X139606928Y-113289414D01*
X139729414Y-113166928D01*
X139831232Y-113026788D01*
X139909873Y-112872445D01*
X139963402Y-112707701D01*
X139990500Y-112536611D01*
X139990500Y-112363389D01*
X139963402Y-112192299D01*
X139909873Y-112027555D01*
X139831232Y-111873212D01*
X139729414Y-111733072D01*
X139606928Y-111610586D01*
X139466788Y-111508768D01*
X139312445Y-111430127D01*
X139185298Y-111388814D01*
X139147699Y-111376597D01*
X139105100Y-111369850D01*
X139041966Y-111339919D01*
X139005036Y-111280607D01*
X139000500Y-111247377D01*
X139000500Y-109408257D01*
X139020185Y-109341218D01*
X139039327Y-109318137D01*
X139051980Y-109306178D01*
X139058316Y-109303224D01*
X139113570Y-109247969D01*
X139114827Y-109246782D01*
X139144468Y-109231666D01*
X139173642Y-109215736D01*
X139175452Y-109215865D01*
X139177071Y-109215040D01*
X139210168Y-109218348D01*
X139243334Y-109220720D01*
X139245071Y-109221836D01*
X139246594Y-109221989D01*
X139252068Y-109226333D01*
X139287681Y-109249221D01*
X139341684Y-109303224D01*
X139450513Y-109353972D01*
X139500099Y-109360500D01*
X139859900Y-109360499D01*
X139909487Y-109353972D01*
X140018316Y-109303224D01*
X140103224Y-109218316D01*
X140153972Y-109109487D01*
X140160500Y-109059901D01*
X140160499Y-108640100D01*
X140159682Y-108633893D01*
X140170448Y-108564859D01*
X140194937Y-108530032D01*
X142587819Y-106137151D01*
X142649142Y-106103666D01*
X142718834Y-106108650D01*
X142774767Y-106150522D01*
X142799184Y-106215986D01*
X142799500Y-106224832D01*
X142799500Y-107719752D01*
X142811131Y-107778229D01*
X142811132Y-107778230D01*
X142855447Y-107844552D01*
X142921769Y-107888867D01*
X142921770Y-107888868D01*
X142980247Y-107900499D01*
X142980250Y-107900500D01*
X142980252Y-107900500D01*
X144519750Y-107900500D01*
X144519751Y-107900499D01*
X144534568Y-107897552D01*
X144578229Y-107888868D01*
X144578229Y-107888867D01*
X144578231Y-107888867D01*
X144644552Y-107844552D01*
X144688867Y-107778231D01*
X144688867Y-107778229D01*
X144688868Y-107778229D01*
X144700499Y-107719752D01*
X144700500Y-107719750D01*
X144700500Y-106180249D01*
X144700499Y-106180247D01*
X144688868Y-106121770D01*
X144688867Y-106121769D01*
X144644552Y-106055447D01*
X144578230Y-106011132D01*
X144578229Y-106011131D01*
X144519752Y-105999500D01*
X144519748Y-105999500D01*
X144399500Y-105999500D01*
X144332461Y-105979815D01*
X144286706Y-105927011D01*
X144275500Y-105875500D01*
X144275500Y-104549504D01*
X144295185Y-104482465D01*
X144347989Y-104436710D01*
X144417147Y-104426766D01*
X144431571Y-104429724D01*
X144509108Y-104450500D01*
X144509111Y-104450500D01*
X144640890Y-104450500D01*
X144640892Y-104450500D01*
X144768186Y-104416392D01*
X144882314Y-104350500D01*
X144945995Y-104286819D01*
X144972922Y-104272115D01*
X144998741Y-104255523D01*
X145004941Y-104254631D01*
X145007318Y-104253334D01*
X145033676Y-104250500D01*
X145226000Y-104250500D01*
X145293039Y-104270185D01*
X145338794Y-104322989D01*
X145350000Y-104374500D01*
X145350000Y-104400000D01*
X146126000Y-104400000D01*
X146193039Y-104419685D01*
X146238794Y-104472489D01*
X146250000Y-104524000D01*
X146250000Y-104776000D01*
X146230315Y-104843039D01*
X146177511Y-104888794D01*
X146126000Y-104900000D01*
X145350000Y-104900000D01*
X145350000Y-105097844D01*
X145356401Y-105157372D01*
X145356403Y-105157379D01*
X145406645Y-105292086D01*
X145406647Y-105292089D01*
X145490434Y-105404013D01*
X145514852Y-105469478D01*
X145500001Y-105537751D01*
X145453169Y-105585712D01*
X145342686Y-105649500D01*
X145342683Y-105649502D01*
X145249502Y-105742683D01*
X145249500Y-105742686D01*
X145183608Y-105856812D01*
X145158563Y-105950285D01*
X145149500Y-105984108D01*
X145149500Y-106115892D01*
X145158773Y-106150499D01*
X145183608Y-106243187D01*
X145191766Y-106257316D01*
X145249500Y-106357314D01*
X145342686Y-106450500D01*
X145441521Y-106507563D01*
X145448943Y-106511848D01*
X145456814Y-106516392D01*
X145584108Y-106550500D01*
X145584110Y-106550500D01*
X145715890Y-106550500D01*
X145715892Y-106550500D01*
X145843186Y-106516392D01*
X145957314Y-106450500D01*
X146020995Y-106386819D01*
X146082318Y-106353334D01*
X146108676Y-106350500D01*
X147791324Y-106350500D01*
X147858363Y-106370185D01*
X147879005Y-106386819D01*
X147942686Y-106450500D01*
X148041521Y-106507563D01*
X148048943Y-106511848D01*
X148056814Y-106516392D01*
X148184108Y-106550500D01*
X148184110Y-106550500D01*
X148286667Y-106550500D01*
X148353706Y-106570185D01*
X148374348Y-106586819D01*
X149813348Y-108025819D01*
X149846833Y-108087142D01*
X149841849Y-108156834D01*
X149799977Y-108212767D01*
X149734513Y-108237184D01*
X149725667Y-108237500D01*
X149702155Y-108237500D01*
X149642627Y-108243901D01*
X149642620Y-108243903D01*
X149507913Y-108294145D01*
X149507906Y-108294149D01*
X149392812Y-108380309D01*
X149392809Y-108380312D01*
X149306649Y-108495406D01*
X149306645Y-108495413D01*
X149256403Y-108630120D01*
X149256401Y-108630127D01*
X149250000Y-108689655D01*
X149250000Y-108822920D01*
X149246347Y-108835360D01*
X149247378Y-108848285D01*
X149236691Y-108868242D01*
X149230315Y-108889959D01*
X149220518Y-108898447D01*
X149214397Y-108909880D01*
X149194615Y-108920892D01*
X149177511Y-108935714D01*
X149163269Y-108938343D01*
X149153350Y-108943866D01*
X149129444Y-108944589D01*
X149118168Y-108946672D01*
X149112043Y-108946284D01*
X149040580Y-108934614D01*
X148971393Y-108937000D01*
X148896233Y-108937000D01*
X148896228Y-108937000D01*
X148731925Y-108969682D01*
X148731917Y-108969684D01*
X148577139Y-109033795D01*
X148437837Y-109126873D01*
X148437834Y-109126876D01*
X148361301Y-109203410D01*
X148299978Y-109236895D01*
X148230286Y-109231911D01*
X148204729Y-109218831D01*
X148103684Y-109151314D01*
X148103671Y-109151307D01*
X147921691Y-109075929D01*
X147921683Y-109075927D01*
X147880000Y-109067635D01*
X147880000Y-109870511D01*
X147870060Y-109853295D01*
X147814205Y-109797440D01*
X147745796Y-109757944D01*
X147669496Y-109737500D01*
X147590504Y-109737500D01*
X147514204Y-109757944D01*
X147445795Y-109797440D01*
X147389940Y-109853295D01*
X147380000Y-109870511D01*
X147380000Y-109067636D01*
X147379999Y-109067635D01*
X147338316Y-109075927D01*
X147338308Y-109075929D01*
X147156328Y-109151307D01*
X147156315Y-109151314D01*
X146992537Y-109260748D01*
X146992533Y-109260751D01*
X146853251Y-109400033D01*
X146853248Y-109400037D01*
X146743814Y-109563815D01*
X146743807Y-109563828D01*
X146668430Y-109745806D01*
X146668427Y-109745818D01*
X146630000Y-109939004D01*
X146630000Y-110187500D01*
X147330000Y-110187500D01*
X147330000Y-110687500D01*
X146630000Y-110687500D01*
X146630000Y-110935995D01*
X146668427Y-111129181D01*
X146668430Y-111129193D01*
X146743807Y-111311171D01*
X146743814Y-111311184D01*
X146853248Y-111474962D01*
X146853251Y-111474966D01*
X146992533Y-111614248D01*
X146992537Y-111614251D01*
X147156315Y-111723685D01*
X147156328Y-111723692D01*
X147338308Y-111799069D01*
X147380000Y-111807362D01*
X147380000Y-111004488D01*
X147389940Y-111021705D01*
X147445795Y-111077560D01*
X147514204Y-111117056D01*
X147590504Y-111137500D01*
X147669496Y-111137500D01*
X147745796Y-111117056D01*
X147814205Y-111077560D01*
X147870060Y-111021705D01*
X147880000Y-111004488D01*
X147880000Y-111807362D01*
X147921687Y-111799070D01*
X147958046Y-111784010D01*
X148027516Y-111776541D01*
X148089995Y-111807815D01*
X148125648Y-111867904D01*
X148129500Y-111898571D01*
X148129500Y-112776428D01*
X148109815Y-112843467D01*
X148057011Y-112889222D01*
X147987853Y-112899166D01*
X147958048Y-112890989D01*
X147921691Y-112875929D01*
X147921683Y-112875927D01*
X147880000Y-112867635D01*
X147880000Y-113670511D01*
X147870060Y-113653295D01*
X147814205Y-113597440D01*
X147745796Y-113557944D01*
X147669496Y-113537500D01*
X147590504Y-113537500D01*
X147514204Y-113557944D01*
X147445795Y-113597440D01*
X147389940Y-113653295D01*
X147380000Y-113670511D01*
X147380000Y-112867636D01*
X147379999Y-112867635D01*
X147338316Y-112875927D01*
X147338308Y-112875929D01*
X147156328Y-112951307D01*
X147156315Y-112951314D01*
X146992537Y-113060748D01*
X146992533Y-113060751D01*
X146853251Y-113200033D01*
X146853248Y-113200037D01*
X146743814Y-113363815D01*
X146743807Y-113363828D01*
X146668430Y-113545806D01*
X146668427Y-113545818D01*
X146630000Y-113739004D01*
X146630000Y-114187500D01*
X147330000Y-114187500D01*
X147330000Y-114687500D01*
X146630000Y-114687500D01*
X146630000Y-115135995D01*
X146668427Y-115329181D01*
X146668429Y-115329188D01*
X146684283Y-115367465D01*
X146691750Y-115436935D01*
X146660475Y-115499413D01*
X146600385Y-115535065D01*
X146569836Y-115538916D01*
X145124115Y-115540262D01*
X145057058Y-115520640D01*
X145011254Y-115467878D01*
X145000000Y-115416262D01*
X145000000Y-115000000D01*
X142500000Y-115000000D01*
X142500000Y-115418820D01*
X142480315Y-115485859D01*
X142427511Y-115531614D01*
X142376115Y-115542820D01*
X135228705Y-115549473D01*
X135213008Y-115548490D01*
X135008866Y-115522632D01*
X134990414Y-115518853D01*
X134789130Y-115461391D01*
X134771469Y-115454861D01*
X134581219Y-115367570D01*
X134564742Y-115358435D01*
X134389920Y-115243334D01*
X134375016Y-115231808D01*
X134219646Y-115091547D01*
X134206661Y-115077897D01*
X134074330Y-114915712D01*
X134063563Y-114900252D01*
X134044442Y-114867789D01*
X133957332Y-114719895D01*
X133949038Y-114702995D01*
X133871349Y-114508606D01*
X133865713Y-114490650D01*
X133818374Y-114286750D01*
X133815522Y-114268141D01*
X133799265Y-114054773D01*
X133798907Y-114045558D01*
X133798907Y-113984108D01*
X133798805Y-113983729D01*
X133798756Y-113952155D01*
X142500000Y-113952155D01*
X142500000Y-114500000D01*
X143500000Y-114500000D01*
X144000000Y-114500000D01*
X145000000Y-114500000D01*
X145000000Y-113952172D01*
X144999999Y-113952155D01*
X144993598Y-113892627D01*
X144993596Y-113892620D01*
X144950193Y-113776250D01*
X144950192Y-113776248D01*
X144943353Y-113757911D01*
X144943350Y-113757906D01*
X144857190Y-113642812D01*
X144857187Y-113642809D01*
X144742093Y-113556649D01*
X144742086Y-113556645D01*
X144607379Y-113506403D01*
X144607372Y-113506401D01*
X144547844Y-113500000D01*
X144000000Y-113500000D01*
X144000000Y-114500000D01*
X143500000Y-114500000D01*
X143500000Y-113500000D01*
X142952155Y-113500000D01*
X142892627Y-113506401D01*
X142892620Y-113506403D01*
X142757913Y-113556645D01*
X142757906Y-113556649D01*
X142642812Y-113642809D01*
X142642809Y-113642812D01*
X142556649Y-113757906D01*
X142556645Y-113757913D01*
X142506403Y-113892620D01*
X142506401Y-113892627D01*
X142500000Y-113952155D01*
X133798756Y-113952155D01*
X133767790Y-93847844D01*
X134600000Y-93847844D01*
X134606401Y-93907372D01*
X134606403Y-93907379D01*
X134656645Y-94042086D01*
X134656649Y-94042093D01*
X134742809Y-94157187D01*
X134742812Y-94157190D01*
X134857906Y-94243350D01*
X134857913Y-94243354D01*
X134992620Y-94293596D01*
X134992627Y-94293598D01*
X135052155Y-94299999D01*
X135052172Y-94300000D01*
X136100000Y-94300000D01*
X136100000Y-92800000D01*
X134600000Y-92800000D01*
X134600000Y-93847844D01*
X133767790Y-93847844D01*
X133764720Y-91854485D01*
X133765035Y-91845501D01*
X133779344Y-91645436D01*
X133781860Y-91627940D01*
X133823570Y-91436201D01*
X133828547Y-91419250D01*
X133890871Y-91252155D01*
X134600000Y-91252155D01*
X134600000Y-92300000D01*
X136100000Y-92300000D01*
X136100000Y-90800000D01*
X135052155Y-90800000D01*
X134992627Y-90806401D01*
X134992620Y-90806403D01*
X134857913Y-90856645D01*
X134857906Y-90856649D01*
X134742812Y-90942809D01*
X134742809Y-90942812D01*
X134656649Y-91057906D01*
X134656645Y-91057913D01*
X134606403Y-91192620D01*
X134606401Y-91192627D01*
X134600000Y-91252155D01*
X133890871Y-91252155D01*
X133897127Y-91235382D01*
X133904466Y-91219312D01*
X133998505Y-91047093D01*
X134008063Y-91032220D01*
X134125658Y-90875133D01*
X134137230Y-90861778D01*
X134275989Y-90723020D01*
X134289346Y-90711447D01*
X134446427Y-90593859D01*
X134461293Y-90584304D01*
X134633518Y-90490263D01*
X134649606Y-90482917D01*
X134833450Y-90414347D01*
X134850416Y-90409366D01*
X135042151Y-90367658D01*
X135059646Y-90365143D01*
X135250241Y-90351513D01*
X135259988Y-90350816D01*
X135268821Y-90350500D01*
X135330103Y-90350501D01*
X135330122Y-90350495D01*
X139068629Y-90350233D01*
X139135669Y-90369913D01*
G37*
%TD.AperFunction*%
%TA.AperFunction,Conductor*%
G36*
X152868334Y-105173285D02*
G01*
X152912681Y-105201786D01*
X152913181Y-105202286D01*
X152946666Y-105263609D01*
X152949500Y-105289967D01*
X152949500Y-105502934D01*
X152929815Y-105569973D01*
X152877011Y-105615728D01*
X152841693Y-105625872D01*
X152840519Y-105626026D01*
X152840509Y-105626029D01*
X152731683Y-105676776D01*
X152646776Y-105761683D01*
X152596027Y-105870514D01*
X152592735Y-105895522D01*
X152564468Y-105959419D01*
X152506143Y-105997889D01*
X152436278Y-105998720D01*
X152382115Y-105967017D01*
X152365383Y-105950285D01*
X152365374Y-105950278D01*
X152226195Y-105867968D01*
X152226190Y-105867966D01*
X152070918Y-105822855D01*
X152070912Y-105822854D01*
X152050000Y-105821209D01*
X152050000Y-106476000D01*
X152030315Y-106543039D01*
X151977511Y-106588794D01*
X151926000Y-106600000D01*
X151800000Y-106600000D01*
X151800000Y-106726000D01*
X151780315Y-106793039D01*
X151727511Y-106838794D01*
X151676000Y-106850000D01*
X150995496Y-106850000D01*
X151037968Y-106996195D01*
X151120278Y-107135374D01*
X151120285Y-107135383D01*
X151234616Y-107249714D01*
X151240785Y-107254499D01*
X151239265Y-107256457D01*
X151278625Y-107298599D01*
X151291139Y-107367339D01*
X151290769Y-107370461D01*
X151289500Y-107380101D01*
X151289500Y-107739894D01*
X151289501Y-107739900D01*
X151296028Y-107789487D01*
X151346776Y-107898316D01*
X151431684Y-107983224D01*
X151540513Y-108033972D01*
X151541679Y-108034125D01*
X151542916Y-108034672D01*
X151549624Y-108036628D01*
X151549362Y-108037524D01*
X151605576Y-108062388D01*
X151644051Y-108120710D01*
X151649500Y-108157065D01*
X151649500Y-108413000D01*
X151629815Y-108480039D01*
X151577011Y-108525794D01*
X151525500Y-108537000D01*
X151330252Y-108537000D01*
X151274190Y-108548151D01*
X151265852Y-108548150D01*
X151261053Y-108550039D01*
X151225809Y-108548150D01*
X151166199Y-108536293D01*
X151104288Y-108503909D01*
X151083003Y-108476675D01*
X151040464Y-108402995D01*
X151040458Y-108402987D01*
X148987471Y-106350000D01*
X150995496Y-106350000D01*
X151550000Y-106350000D01*
X151550000Y-105821210D01*
X151549999Y-105821209D01*
X151529087Y-105822854D01*
X151529081Y-105822855D01*
X151373809Y-105867966D01*
X151373804Y-105867968D01*
X151234625Y-105950278D01*
X151234616Y-105950285D01*
X151120285Y-106064616D01*
X151120278Y-106064625D01*
X151037968Y-106203804D01*
X150995496Y-106350000D01*
X148987471Y-106350000D01*
X148786819Y-106149348D01*
X148753334Y-106088025D01*
X148750500Y-106061667D01*
X148750500Y-105984110D01*
X148750500Y-105984108D01*
X148716392Y-105856814D01*
X148650500Y-105742686D01*
X148557314Y-105649500D01*
X148498819Y-105615728D01*
X148443187Y-105583608D01*
X148373161Y-105564845D01*
X148315892Y-105549500D01*
X148184108Y-105549500D01*
X148056812Y-105583608D01*
X147942686Y-105649500D01*
X147942683Y-105649502D01*
X147879005Y-105713181D01*
X147817682Y-105746666D01*
X147791324Y-105749500D01*
X146892619Y-105749500D01*
X146825580Y-105729815D01*
X146779825Y-105677011D01*
X146769881Y-105607853D01*
X146798906Y-105544297D01*
X146849286Y-105509318D01*
X146892086Y-105493354D01*
X146892093Y-105493350D01*
X147007187Y-105407190D01*
X147007190Y-105407187D01*
X147087290Y-105300189D01*
X147143223Y-105258318D01*
X147186556Y-105250500D01*
X147519750Y-105250500D01*
X147519751Y-105250499D01*
X147534568Y-105247552D01*
X147578229Y-105238868D01*
X147578229Y-105238867D01*
X147578231Y-105238867D01*
X147625233Y-105207461D01*
X147654707Y-105187767D01*
X147656921Y-105191081D01*
X147698642Y-105168301D01*
X147768334Y-105173285D01*
X147793963Y-105189756D01*
X147795293Y-105187767D01*
X147871769Y-105238867D01*
X147871770Y-105238868D01*
X147930247Y-105250499D01*
X147930250Y-105250500D01*
X147930252Y-105250500D01*
X148369750Y-105250500D01*
X148369751Y-105250499D01*
X148384568Y-105247552D01*
X148428229Y-105238868D01*
X148428229Y-105238867D01*
X148428231Y-105238867D01*
X148475233Y-105207461D01*
X148504707Y-105187767D01*
X148506921Y-105191081D01*
X148548642Y-105168301D01*
X148618334Y-105173285D01*
X148643963Y-105189756D01*
X148645293Y-105187767D01*
X148721769Y-105238867D01*
X148721770Y-105238868D01*
X148780247Y-105250499D01*
X148780250Y-105250500D01*
X148780252Y-105250500D01*
X149219750Y-105250500D01*
X149219751Y-105250499D01*
X149234568Y-105247552D01*
X149278229Y-105238868D01*
X149278229Y-105238867D01*
X149278231Y-105238867D01*
X149325233Y-105207461D01*
X149354707Y-105187767D01*
X149356921Y-105191081D01*
X149398642Y-105168301D01*
X149468334Y-105173285D01*
X149493963Y-105189756D01*
X149495293Y-105187767D01*
X149571769Y-105238867D01*
X149571770Y-105238868D01*
X149630247Y-105250499D01*
X149630250Y-105250500D01*
X149630252Y-105250500D01*
X150069750Y-105250500D01*
X150069751Y-105250499D01*
X150084568Y-105247552D01*
X150128229Y-105238868D01*
X150128229Y-105238867D01*
X150128231Y-105238867D01*
X150175233Y-105207461D01*
X150204707Y-105187767D01*
X150206921Y-105191081D01*
X150248642Y-105168301D01*
X150318334Y-105173285D01*
X150343963Y-105189756D01*
X150345293Y-105187767D01*
X150421769Y-105238867D01*
X150421770Y-105238868D01*
X150480247Y-105250499D01*
X150480250Y-105250500D01*
X150480252Y-105250500D01*
X150919750Y-105250500D01*
X150919751Y-105250499D01*
X150934568Y-105247552D01*
X150978229Y-105238868D01*
X150978229Y-105238867D01*
X150978231Y-105238867D01*
X151025233Y-105207461D01*
X151054707Y-105187767D01*
X151056921Y-105191081D01*
X151098642Y-105168301D01*
X151168334Y-105173285D01*
X151193963Y-105189756D01*
X151195293Y-105187767D01*
X151271769Y-105238867D01*
X151271770Y-105238868D01*
X151330247Y-105250499D01*
X151330250Y-105250500D01*
X151330252Y-105250500D01*
X151769750Y-105250500D01*
X151769751Y-105250499D01*
X151784568Y-105247552D01*
X151828229Y-105238868D01*
X151828229Y-105238867D01*
X151828231Y-105238867D01*
X151875233Y-105207461D01*
X151904707Y-105187767D01*
X151906921Y-105191081D01*
X151948642Y-105168301D01*
X152018334Y-105173285D01*
X152043963Y-105189756D01*
X152045293Y-105187767D01*
X152121769Y-105238867D01*
X152121770Y-105238868D01*
X152180247Y-105250499D01*
X152180250Y-105250500D01*
X152180252Y-105250500D01*
X152619750Y-105250500D01*
X152619751Y-105250499D01*
X152634568Y-105247552D01*
X152678229Y-105238868D01*
X152678229Y-105238867D01*
X152678231Y-105238867D01*
X152725233Y-105207461D01*
X152754707Y-105187767D01*
X152756921Y-105191081D01*
X152798642Y-105168301D01*
X152868334Y-105173285D01*
G37*
%TD.AperFunction*%
%TA.AperFunction,Conductor*%
G36*
X162730818Y-103796665D02*
G01*
X162759348Y-103815000D01*
X163556000Y-103815000D01*
X163623039Y-103834685D01*
X163668794Y-103887489D01*
X163680000Y-103939000D01*
X163680000Y-103950000D01*
X163691000Y-103950000D01*
X163758039Y-103969685D01*
X163803794Y-104022489D01*
X163815000Y-104074000D01*
X163815000Y-104585000D01*
X163834134Y-104604134D01*
X163836010Y-104604685D01*
X163844610Y-104614610D01*
X163851319Y-104621319D01*
X163850839Y-104621798D01*
X163881765Y-104657489D01*
X163891709Y-104726647D01*
X163876358Y-104771000D01*
X163839980Y-104834008D01*
X163839979Y-104834009D01*
X163834422Y-104854748D01*
X163822466Y-104899371D01*
X163819500Y-104910439D01*
X163819500Y-105191323D01*
X163799815Y-105258362D01*
X163783182Y-105279004D01*
X163719500Y-105342686D01*
X163653608Y-105456812D01*
X163630167Y-105544297D01*
X163619500Y-105584108D01*
X163619500Y-105715892D01*
X163626680Y-105742689D01*
X163653885Y-105844221D01*
X163652222Y-105914071D01*
X163613059Y-105971933D01*
X163548830Y-105999437D01*
X163521964Y-105999718D01*
X163519749Y-105999500D01*
X163519748Y-105999500D01*
X162712518Y-105999500D01*
X162703832Y-105996949D01*
X162694871Y-105998238D01*
X162670830Y-105987259D01*
X162645479Y-105979815D01*
X162639551Y-105972974D01*
X162631315Y-105969213D01*
X162617025Y-105946978D01*
X162599724Y-105927011D01*
X162597436Y-105916496D01*
X162593541Y-105910435D01*
X162588518Y-105875500D01*
X162588518Y-105758675D01*
X162608203Y-105691636D01*
X162624837Y-105670994D01*
X162653145Y-105642686D01*
X162688518Y-105607313D01*
X162754410Y-105493185D01*
X162788518Y-105365891D01*
X162788518Y-105274500D01*
X162808203Y-105207461D01*
X162861007Y-105161706D01*
X162912518Y-105150500D01*
X163015890Y-105150500D01*
X163015892Y-105150500D01*
X163143186Y-105116392D01*
X163257314Y-105050500D01*
X163350500Y-104957314D01*
X163416392Y-104843186D01*
X163450500Y-104715892D01*
X163450500Y-104709000D01*
X163453050Y-104700314D01*
X163451762Y-104691353D01*
X163462740Y-104667312D01*
X163470185Y-104641961D01*
X163477025Y-104636033D01*
X163480787Y-104627797D01*
X163503021Y-104613507D01*
X163522989Y-104596206D01*
X163533503Y-104593918D01*
X163539565Y-104590023D01*
X163540046Y-104589953D01*
X163545000Y-104585000D01*
X163545000Y-104085000D01*
X162765000Y-104085000D01*
X162765000Y-104107290D01*
X162745315Y-104174329D01*
X162717854Y-104204601D01*
X162710789Y-104210180D01*
X162642686Y-104249500D01*
X162573871Y-104318314D01*
X162568178Y-104322811D01*
X162542230Y-104333261D01*
X162517682Y-104346666D01*
X162505767Y-104347946D01*
X162503367Y-104348914D01*
X162500989Y-104348460D01*
X162491324Y-104349500D01*
X162424500Y-104349500D01*
X162357461Y-104329815D01*
X162311706Y-104277011D01*
X162300500Y-104225500D01*
X162300500Y-104175833D01*
X162320185Y-104108794D01*
X162336819Y-104088152D01*
X162467657Y-103957314D01*
X162599806Y-103825164D01*
X162661127Y-103791681D01*
X162730818Y-103796665D01*
G37*
%TD.AperFunction*%
%TA.AperFunction,Conductor*%
G36*
X162168081Y-90368300D02*
G01*
X162213840Y-90421101D01*
X162223788Y-90490259D01*
X162194768Y-90553816D01*
X162163050Y-90580007D01*
X162042686Y-90649500D01*
X162042683Y-90649502D01*
X161949502Y-90742683D01*
X161949500Y-90742686D01*
X161883608Y-90856812D01*
X161849500Y-90984108D01*
X161849500Y-91115500D01*
X161829815Y-91182539D01*
X161777011Y-91228294D01*
X161725500Y-91239500D01*
X161415105Y-91239500D01*
X161399386Y-91241569D01*
X161365513Y-91246028D01*
X161365511Y-91246029D01*
X161365506Y-91246030D01*
X161321038Y-91266766D01*
X161251961Y-91277258D01*
X161188177Y-91248738D01*
X161149938Y-91190261D01*
X161145345Y-91141127D01*
X161149999Y-91097841D01*
X161150000Y-91097827D01*
X161150000Y-90900000D01*
X159400000Y-90900000D01*
X159400000Y-91550000D01*
X159447828Y-91550000D01*
X159447839Y-91549999D01*
X159512242Y-91543074D01*
X159581002Y-91555478D01*
X159632140Y-91603087D01*
X159649500Y-91666363D01*
X159649500Y-91919752D01*
X159661131Y-91978229D01*
X159661132Y-91978230D01*
X159712233Y-92054707D01*
X159708918Y-92056921D01*
X159731699Y-92098642D01*
X159726715Y-92168334D01*
X159710243Y-92193963D01*
X159712233Y-92195293D01*
X159661132Y-92271769D01*
X159661131Y-92271770D01*
X159649500Y-92330247D01*
X159649500Y-92663443D01*
X159629815Y-92730482D01*
X159599812Y-92762709D01*
X159492809Y-92842812D01*
X159406649Y-92957906D01*
X159406645Y-92957913D01*
X159356403Y-93092620D01*
X159356401Y-93092627D01*
X159350000Y-93152155D01*
X159350000Y-93200000D01*
X161150000Y-93200000D01*
X161150000Y-93152172D01*
X161149999Y-93152155D01*
X161143598Y-93092627D01*
X161143596Y-93092620D01*
X161093354Y-92957913D01*
X161093350Y-92957906D01*
X161007190Y-92842812D01*
X160900188Y-92762709D01*
X160858318Y-92706775D01*
X160850500Y-92663443D01*
X160850500Y-92330249D01*
X160850499Y-92330247D01*
X160838868Y-92271770D01*
X160838867Y-92271769D01*
X160790702Y-92199686D01*
X160790200Y-92199310D01*
X160789882Y-92198459D01*
X160787767Y-92195293D01*
X160788515Y-92194793D01*
X160780965Y-92174550D01*
X160768301Y-92151358D01*
X160768946Y-92142328D01*
X160765783Y-92133846D01*
X160771399Y-92108025D01*
X160773285Y-92081666D01*
X160779103Y-92072612D01*
X160780635Y-92065573D01*
X160801786Y-92037319D01*
X160802286Y-92036819D01*
X160863609Y-92003334D01*
X160889967Y-92000500D01*
X161037841Y-92000500D01*
X161104880Y-92020185D01*
X161150222Y-92072094D01*
X161171776Y-92118316D01*
X161256684Y-92203224D01*
X161365513Y-92253972D01*
X161365514Y-92253972D01*
X161374111Y-92257981D01*
X161372908Y-92260559D01*
X161419035Y-92290060D01*
X161448199Y-92353552D01*
X161449500Y-92371468D01*
X161449500Y-93291323D01*
X161429815Y-93358362D01*
X161413182Y-93379004D01*
X161349499Y-93442687D01*
X161349498Y-93442689D01*
X161294470Y-93538000D01*
X161243903Y-93586216D01*
X161187083Y-93600000D01*
X160450000Y-93600000D01*
X160450000Y-94126000D01*
X160430315Y-94193039D01*
X160377511Y-94238794D01*
X160326000Y-94250000D01*
X160250000Y-94250000D01*
X160250000Y-94326000D01*
X160230315Y-94393039D01*
X160177511Y-94438794D01*
X160126000Y-94450000D01*
X159350000Y-94450000D01*
X159350000Y-94497844D01*
X159356401Y-94557372D01*
X159356403Y-94557379D01*
X159406645Y-94692086D01*
X159406649Y-94692093D01*
X159492809Y-94807187D01*
X159492812Y-94807190D01*
X159599811Y-94887290D01*
X159641682Y-94943223D01*
X159649500Y-94986556D01*
X159649500Y-95319752D01*
X159661131Y-95378229D01*
X159661132Y-95378230D01*
X159712233Y-95454707D01*
X159708918Y-95456921D01*
X159731699Y-95498642D01*
X159726715Y-95568334D01*
X159710243Y-95593963D01*
X159712233Y-95595293D01*
X159661132Y-95671769D01*
X159661131Y-95671770D01*
X159649500Y-95730247D01*
X159649500Y-96169752D01*
X159661131Y-96228229D01*
X159661132Y-96228230D01*
X159712233Y-96304707D01*
X159708918Y-96306921D01*
X159731699Y-96348642D01*
X159726715Y-96418334D01*
X159710243Y-96443963D01*
X159712233Y-96445293D01*
X159661132Y-96521769D01*
X159661131Y-96521770D01*
X159649500Y-96580247D01*
X159649500Y-97019752D01*
X159661131Y-97078229D01*
X159661132Y-97078230D01*
X159712233Y-97154707D01*
X159708918Y-97156921D01*
X159731699Y-97198642D01*
X159726715Y-97268334D01*
X159710243Y-97293963D01*
X159712233Y-97295293D01*
X159661132Y-97371769D01*
X159661131Y-97371770D01*
X159649500Y-97430247D01*
X159649500Y-97869752D01*
X159661131Y-97928229D01*
X159661132Y-97928230D01*
X159712233Y-98004707D01*
X159708918Y-98006921D01*
X159731699Y-98048642D01*
X159726715Y-98118334D01*
X159710243Y-98143963D01*
X159712233Y-98145293D01*
X159661132Y-98221769D01*
X159661131Y-98221770D01*
X159649500Y-98280247D01*
X159649500Y-98719752D01*
X159661131Y-98778229D01*
X159661132Y-98778230D01*
X159712233Y-98854707D01*
X159708918Y-98856921D01*
X159731699Y-98898642D01*
X159726715Y-98968334D01*
X159710243Y-98993963D01*
X159712233Y-98995293D01*
X159661132Y-99071769D01*
X159661131Y-99071770D01*
X159649500Y-99130247D01*
X159649500Y-99569752D01*
X159661131Y-99628229D01*
X159661132Y-99628230D01*
X159712233Y-99704707D01*
X159708918Y-99706921D01*
X159731699Y-99748642D01*
X159726715Y-99818334D01*
X159710243Y-99843963D01*
X159712233Y-99845293D01*
X159661132Y-99921769D01*
X159661131Y-99921770D01*
X159649500Y-99980247D01*
X159649500Y-100419752D01*
X159661131Y-100478229D01*
X159661132Y-100478230D01*
X159712233Y-100554707D01*
X159708918Y-100556921D01*
X159731699Y-100598642D01*
X159726715Y-100668334D01*
X159710243Y-100693963D01*
X159712233Y-100695293D01*
X159661132Y-100771769D01*
X159661131Y-100771770D01*
X159649500Y-100830247D01*
X159649500Y-101269752D01*
X159661131Y-101328229D01*
X159661132Y-101328230D01*
X159712233Y-101404707D01*
X159708918Y-101406921D01*
X159731699Y-101448642D01*
X159726715Y-101518334D01*
X159710243Y-101543963D01*
X159712233Y-101545293D01*
X159661132Y-101621769D01*
X159661131Y-101621770D01*
X159649500Y-101680247D01*
X159649500Y-102119752D01*
X159661131Y-102178229D01*
X159661132Y-102178230D01*
X159712233Y-102254707D01*
X159708918Y-102256921D01*
X159731699Y-102298642D01*
X159726715Y-102368334D01*
X159710243Y-102393963D01*
X159712233Y-102395293D01*
X159661132Y-102471769D01*
X159661131Y-102471770D01*
X159649500Y-102530247D01*
X159649500Y-102969752D01*
X159661131Y-103028229D01*
X159661132Y-103028230D01*
X159712233Y-103104707D01*
X159708918Y-103106921D01*
X159731699Y-103148642D01*
X159726715Y-103218334D01*
X159710243Y-103243963D01*
X159712233Y-103245293D01*
X159661132Y-103321769D01*
X159661131Y-103321770D01*
X159649500Y-103380247D01*
X159649500Y-103713443D01*
X159629815Y-103780482D01*
X159599812Y-103812709D01*
X159492809Y-103892812D01*
X159412710Y-103999811D01*
X159356777Y-104041682D01*
X159313444Y-104049500D01*
X158980247Y-104049500D01*
X158921770Y-104061131D01*
X158921769Y-104061132D01*
X158845293Y-104112233D01*
X158843078Y-104108918D01*
X158801358Y-104131699D01*
X158731666Y-104126715D01*
X158706036Y-104110243D01*
X158704707Y-104112233D01*
X158628230Y-104061132D01*
X158628229Y-104061131D01*
X158569752Y-104049500D01*
X158569748Y-104049500D01*
X158130252Y-104049500D01*
X158130247Y-104049500D01*
X158071770Y-104061131D01*
X158071769Y-104061132D01*
X157995293Y-104112233D01*
X157993078Y-104108918D01*
X157951358Y-104131699D01*
X157881666Y-104126715D01*
X157856036Y-104110243D01*
X157854707Y-104112233D01*
X157778230Y-104061132D01*
X157778229Y-104061131D01*
X157719752Y-104049500D01*
X157719748Y-104049500D01*
X157280252Y-104049500D01*
X157280247Y-104049500D01*
X157221770Y-104061131D01*
X157221769Y-104061132D01*
X157145293Y-104112233D01*
X157143078Y-104108918D01*
X157101358Y-104131699D01*
X157031666Y-104126715D01*
X157006036Y-104110243D01*
X157004707Y-104112233D01*
X156928230Y-104061132D01*
X156928229Y-104061131D01*
X156869752Y-104049500D01*
X156869748Y-104049500D01*
X156430252Y-104049500D01*
X156430247Y-104049500D01*
X156371770Y-104061131D01*
X156371769Y-104061132D01*
X156295293Y-104112233D01*
X156293078Y-104108918D01*
X156251358Y-104131699D01*
X156181666Y-104126715D01*
X156156036Y-104110243D01*
X156154707Y-104112233D01*
X156078230Y-104061132D01*
X156078229Y-104061131D01*
X156019752Y-104049500D01*
X156019748Y-104049500D01*
X155580252Y-104049500D01*
X155580247Y-104049500D01*
X155521770Y-104061131D01*
X155521769Y-104061132D01*
X155445293Y-104112233D01*
X155443078Y-104108918D01*
X155401358Y-104131699D01*
X155331666Y-104126715D01*
X155306036Y-104110243D01*
X155304707Y-104112233D01*
X155228230Y-104061132D01*
X155228229Y-104061131D01*
X155169752Y-104049500D01*
X155169748Y-104049500D01*
X154730252Y-104049500D01*
X154730247Y-104049500D01*
X154671770Y-104061131D01*
X154671769Y-104061132D01*
X154595293Y-104112233D01*
X154593078Y-104108918D01*
X154551358Y-104131699D01*
X154481666Y-104126715D01*
X154456036Y-104110243D01*
X154454707Y-104112233D01*
X154378230Y-104061132D01*
X154378229Y-104061131D01*
X154319752Y-104049500D01*
X154319748Y-104049500D01*
X153880252Y-104049500D01*
X153880247Y-104049500D01*
X153821770Y-104061131D01*
X153821769Y-104061132D01*
X153745293Y-104112233D01*
X153743078Y-104108918D01*
X153701358Y-104131699D01*
X153631666Y-104126715D01*
X153606036Y-104110243D01*
X153604707Y-104112233D01*
X153528230Y-104061132D01*
X153528229Y-104061131D01*
X153469752Y-104049500D01*
X153469748Y-104049500D01*
X153030252Y-104049500D01*
X153030247Y-104049500D01*
X152971770Y-104061131D01*
X152971769Y-104061132D01*
X152895293Y-104112233D01*
X152893078Y-104108918D01*
X152851358Y-104131699D01*
X152781666Y-104126715D01*
X152756036Y-104110243D01*
X152754707Y-104112233D01*
X152678230Y-104061132D01*
X152678229Y-104061131D01*
X152619752Y-104049500D01*
X152619748Y-104049500D01*
X152180252Y-104049500D01*
X152180247Y-104049500D01*
X152121770Y-104061131D01*
X152121769Y-104061132D01*
X152045293Y-104112233D01*
X152043078Y-104108918D01*
X152001358Y-104131699D01*
X151931666Y-104126715D01*
X151906036Y-104110243D01*
X151904707Y-104112233D01*
X151828230Y-104061132D01*
X151828229Y-104061131D01*
X151769752Y-104049500D01*
X151769748Y-104049500D01*
X151330252Y-104049500D01*
X151330247Y-104049500D01*
X151271770Y-104061131D01*
X151271769Y-104061132D01*
X151195293Y-104112233D01*
X151193078Y-104108918D01*
X151151358Y-104131699D01*
X151081666Y-104126715D01*
X151056036Y-104110243D01*
X151054707Y-104112233D01*
X150978230Y-104061132D01*
X150978229Y-104061131D01*
X150919752Y-104049500D01*
X150919748Y-104049500D01*
X150480252Y-104049500D01*
X150480247Y-104049500D01*
X150421770Y-104061131D01*
X150421769Y-104061132D01*
X150345293Y-104112233D01*
X150343078Y-104108918D01*
X150301358Y-104131699D01*
X150231666Y-104126715D01*
X150206036Y-104110243D01*
X150204707Y-104112233D01*
X150128230Y-104061132D01*
X150128229Y-104061131D01*
X150069752Y-104049500D01*
X150069748Y-104049500D01*
X149630252Y-104049500D01*
X149630247Y-104049500D01*
X149571770Y-104061131D01*
X149571769Y-104061132D01*
X149495293Y-104112233D01*
X149493078Y-104108918D01*
X149451358Y-104131699D01*
X149381666Y-104126715D01*
X149356036Y-104110243D01*
X149354707Y-104112233D01*
X149278230Y-104061132D01*
X149278229Y-104061131D01*
X149219752Y-104049500D01*
X149219748Y-104049500D01*
X148780252Y-104049500D01*
X148780247Y-104049500D01*
X148721770Y-104061131D01*
X148721769Y-104061132D01*
X148645293Y-104112233D01*
X148643078Y-104108918D01*
X148601358Y-104131699D01*
X148531666Y-104126715D01*
X148506036Y-104110243D01*
X148504707Y-104112233D01*
X148428230Y-104061132D01*
X148428229Y-104061131D01*
X148369752Y-104049500D01*
X148369748Y-104049500D01*
X147930252Y-104049500D01*
X147930247Y-104049500D01*
X147871770Y-104061131D01*
X147871769Y-104061132D01*
X147795293Y-104112233D01*
X147793078Y-104108918D01*
X147751358Y-104131699D01*
X147681666Y-104126715D01*
X147656036Y-104110243D01*
X147654707Y-104112233D01*
X147578230Y-104061132D01*
X147578229Y-104061131D01*
X147519752Y-104049500D01*
X147519748Y-104049500D01*
X147186556Y-104049500D01*
X147119517Y-104029815D01*
X147087290Y-103999811D01*
X147007190Y-103892812D01*
X146900188Y-103812709D01*
X146858318Y-103756775D01*
X146850500Y-103713443D01*
X146850500Y-103380249D01*
X146850499Y-103380247D01*
X146838868Y-103321770D01*
X146838867Y-103321769D01*
X146787767Y-103245293D01*
X146791081Y-103243078D01*
X146768301Y-103201358D01*
X146773285Y-103131666D01*
X146789756Y-103106036D01*
X146787767Y-103104707D01*
X146823987Y-103050500D01*
X146838867Y-103028231D01*
X146838867Y-103028229D01*
X146838868Y-103028229D01*
X146850499Y-102969752D01*
X146850500Y-102969750D01*
X146850500Y-102525500D01*
X146870185Y-102458461D01*
X146922989Y-102412706D01*
X146974500Y-102401500D01*
X150661192Y-102401500D01*
X150723192Y-102418113D01*
X150806814Y-102466392D01*
X150934108Y-102500500D01*
X150934110Y-102500500D01*
X151065890Y-102500500D01*
X151065892Y-102500500D01*
X151193186Y-102466392D01*
X151307314Y-102400500D01*
X151400500Y-102307314D01*
X151466392Y-102193186D01*
X151500500Y-102065892D01*
X151500500Y-101934108D01*
X151466392Y-101806814D01*
X151400500Y-101692686D01*
X151307314Y-101599500D01*
X151221578Y-101550000D01*
X151193187Y-101533608D01*
X151109307Y-101511133D01*
X151065892Y-101499500D01*
X150934108Y-101499500D01*
X150806812Y-101533608D01*
X150692686Y-101599500D01*
X150692683Y-101599502D01*
X150599502Y-101692683D01*
X150599497Y-101692689D01*
X150573049Y-101738500D01*
X150522482Y-101786716D01*
X150465662Y-101800500D01*
X146974500Y-101800500D01*
X146907461Y-101780815D01*
X146861706Y-101728011D01*
X146860256Y-101724711D01*
X146850500Y-101701592D01*
X146850500Y-101680252D01*
X146838867Y-101621769D01*
X146794552Y-101555448D01*
X146786578Y-101550120D01*
X146775223Y-101523211D01*
X146773897Y-101511607D01*
X146768301Y-101501358D01*
X146770005Y-101477528D01*
X146767294Y-101453793D01*
X146772451Y-101443316D01*
X146773285Y-101431666D01*
X146794235Y-101399067D01*
X146798154Y-101391108D01*
X146800106Y-101389931D01*
X146801786Y-101387319D01*
X146802286Y-101386819D01*
X146834268Y-101369355D01*
X146858005Y-101355058D01*
X146860328Y-101355125D01*
X146863609Y-101353334D01*
X146889967Y-101350500D01*
X147380585Y-101350500D01*
X147380586Y-101350500D01*
X147434792Y-101335975D01*
X147483166Y-101336011D01*
X147483570Y-101332944D01*
X147491626Y-101334004D01*
X147491627Y-101334005D01*
X147491628Y-101334005D01*
X147623409Y-101334005D01*
X147623411Y-101334005D01*
X147750705Y-101299897D01*
X147864833Y-101234005D01*
X147958019Y-101140819D01*
X148023911Y-101026691D01*
X148058019Y-100899397D01*
X148058019Y-100767613D01*
X148023911Y-100640319D01*
X147958019Y-100526191D01*
X147864833Y-100433005D01*
X147807665Y-100399999D01*
X147750706Y-100367113D01*
X147662019Y-100343350D01*
X147623411Y-100333005D01*
X147491627Y-100333005D01*
X147364331Y-100367113D01*
X147250205Y-100433005D01*
X147250202Y-100433007D01*
X147157021Y-100526188D01*
X147157019Y-100526191D01*
X147091127Y-100640317D01*
X147088865Y-100648760D01*
X147086497Y-100657594D01*
X147072005Y-100681371D01*
X147060437Y-100706703D01*
X147054072Y-100710793D01*
X147050135Y-100717253D01*
X147025086Y-100729420D01*
X147001659Y-100744477D01*
X146990912Y-100746022D01*
X146987288Y-100747783D01*
X146966724Y-100749500D01*
X146889967Y-100749500D01*
X146822928Y-100729815D01*
X146802286Y-100713181D01*
X146801786Y-100712681D01*
X146791059Y-100693036D01*
X146777173Y-100677011D01*
X146775337Y-100664243D01*
X146768301Y-100651358D01*
X146770022Y-100627282D01*
X146767229Y-100607853D01*
X146772188Y-100596992D01*
X146773285Y-100581666D01*
X146789756Y-100556036D01*
X146787767Y-100554707D01*
X146816261Y-100512062D01*
X146838867Y-100478231D01*
X146838867Y-100478229D01*
X146838868Y-100478229D01*
X146850499Y-100419752D01*
X146850500Y-100419750D01*
X146850500Y-99980249D01*
X146850499Y-99980247D01*
X146844054Y-99947844D01*
X150500000Y-99947844D01*
X150506401Y-100007372D01*
X150506403Y-100007379D01*
X150556645Y-100142086D01*
X150556649Y-100142093D01*
X150642809Y-100257187D01*
X150642812Y-100257190D01*
X150757906Y-100343350D01*
X150757913Y-100343354D01*
X150892620Y-100393596D01*
X150892627Y-100393598D01*
X150952155Y-100399999D01*
X150952172Y-100400000D01*
X151350000Y-100400000D01*
X151850000Y-100400000D01*
X152247828Y-100400000D01*
X152247844Y-100399999D01*
X152307371Y-100393598D01*
X152381666Y-100365888D01*
X152451358Y-100360904D01*
X152468334Y-100365888D01*
X152542628Y-100393598D01*
X152542627Y-100393598D01*
X152602155Y-100399999D01*
X152602172Y-100400000D01*
X153000000Y-100400000D01*
X153500000Y-100400000D01*
X153897828Y-100400000D01*
X153897844Y-100399999D01*
X153957371Y-100393598D01*
X154031666Y-100365888D01*
X154101358Y-100360904D01*
X154118334Y-100365888D01*
X154192628Y-100393598D01*
X154192627Y-100393598D01*
X154252155Y-100399999D01*
X154252172Y-100400000D01*
X154650000Y-100400000D01*
X155150000Y-100400000D01*
X155547828Y-100400000D01*
X155547844Y-100399999D01*
X155607372Y-100393598D01*
X155607379Y-100393596D01*
X155742086Y-100343354D01*
X155742093Y-100343350D01*
X155857187Y-100257190D01*
X155857190Y-100257187D01*
X155943350Y-100142093D01*
X155943354Y-100142086D01*
X155993596Y-100007379D01*
X155993598Y-100007372D01*
X155999999Y-99947844D01*
X156000000Y-99947827D01*
X156000000Y-99550000D01*
X155150000Y-99550000D01*
X155150000Y-100400000D01*
X154650000Y-100400000D01*
X154650000Y-99550000D01*
X153500000Y-99550000D01*
X153500000Y-100400000D01*
X153000000Y-100400000D01*
X153000000Y-99550000D01*
X151850000Y-99550000D01*
X151850000Y-100400000D01*
X151350000Y-100400000D01*
X151350000Y-99550000D01*
X150500000Y-99550000D01*
X150500000Y-99947844D01*
X146844054Y-99947844D01*
X146838868Y-99921770D01*
X146838867Y-99921769D01*
X146787767Y-99845293D01*
X146791081Y-99843078D01*
X146768301Y-99801358D01*
X146773285Y-99731666D01*
X146789756Y-99706036D01*
X146787767Y-99704707D01*
X146823978Y-99650513D01*
X146838867Y-99628231D01*
X146838867Y-99628229D01*
X146838868Y-99628229D01*
X146850499Y-99569752D01*
X146850500Y-99569750D01*
X146850500Y-99130249D01*
X146850499Y-99130247D01*
X146838868Y-99071770D01*
X146838867Y-99071769D01*
X146787767Y-98995293D01*
X146791081Y-98993078D01*
X146768301Y-98951358D01*
X146773285Y-98881666D01*
X146789756Y-98856036D01*
X146787767Y-98854707D01*
X146808735Y-98823324D01*
X146838867Y-98778231D01*
X146838867Y-98778229D01*
X146838868Y-98778229D01*
X146850499Y-98719752D01*
X146850500Y-98719750D01*
X146850500Y-98297844D01*
X150500000Y-98297844D01*
X150506401Y-98357372D01*
X150506403Y-98357382D01*
X150534110Y-98431668D01*
X150539094Y-98501359D01*
X150534110Y-98518332D01*
X150506403Y-98592617D01*
X150506401Y-98592627D01*
X150500000Y-98652155D01*
X150500000Y-99050000D01*
X151350000Y-99050000D01*
X151850000Y-99050000D01*
X153000000Y-99050000D01*
X153500000Y-99050000D01*
X154650000Y-99050000D01*
X155150000Y-99050000D01*
X156000000Y-99050000D01*
X156000000Y-98652172D01*
X155999999Y-98652155D01*
X155993598Y-98592628D01*
X155965888Y-98518334D01*
X155960904Y-98448642D01*
X155965888Y-98431666D01*
X155993598Y-98357371D01*
X155999999Y-98297844D01*
X156000000Y-98297827D01*
X156000000Y-97900000D01*
X155150000Y-97900000D01*
X155150000Y-99050000D01*
X154650000Y-99050000D01*
X154650000Y-97900000D01*
X153500000Y-97900000D01*
X153500000Y-99050000D01*
X153000000Y-99050000D01*
X153000000Y-97900000D01*
X151850000Y-97900000D01*
X151850000Y-99050000D01*
X151350000Y-99050000D01*
X151350000Y-97900000D01*
X150500000Y-97900000D01*
X150500000Y-98297844D01*
X146850500Y-98297844D01*
X146850500Y-98280249D01*
X146850499Y-98280247D01*
X146838868Y-98221770D01*
X146838867Y-98221769D01*
X146787767Y-98145293D01*
X146791081Y-98143078D01*
X146768301Y-98101358D01*
X146773285Y-98031666D01*
X146773387Y-98031394D01*
X146784771Y-98001087D01*
X146794552Y-97994552D01*
X146838867Y-97928231D01*
X146850500Y-97869748D01*
X146850500Y-97430252D01*
X146850500Y-97430249D01*
X146850499Y-97430247D01*
X146838868Y-97371770D01*
X146838867Y-97371769D01*
X146787767Y-97295293D01*
X146791081Y-97293078D01*
X146768301Y-97251358D01*
X146773285Y-97181666D01*
X146789756Y-97156036D01*
X146787767Y-97154707D01*
X146812605Y-97117534D01*
X146838867Y-97078231D01*
X146838867Y-97078229D01*
X146838868Y-97078229D01*
X146850499Y-97019752D01*
X146850500Y-97019750D01*
X146850500Y-96647844D01*
X150500000Y-96647844D01*
X150506401Y-96707372D01*
X150506403Y-96707382D01*
X150534110Y-96781668D01*
X150539094Y-96851359D01*
X150534110Y-96868332D01*
X150506403Y-96942617D01*
X150506401Y-96942627D01*
X150500000Y-97002155D01*
X150500000Y-97400000D01*
X151350000Y-97400000D01*
X151850000Y-97400000D01*
X153000000Y-97400000D01*
X153500000Y-97400000D01*
X154650000Y-97400000D01*
X155150000Y-97400000D01*
X156000000Y-97400000D01*
X156000000Y-97002172D01*
X155999999Y-97002155D01*
X155993598Y-96942628D01*
X155965888Y-96868334D01*
X155960904Y-96798642D01*
X155965888Y-96781666D01*
X155993598Y-96707371D01*
X155999999Y-96647844D01*
X156000000Y-96647827D01*
X156000000Y-96250000D01*
X155150000Y-96250000D01*
X155150000Y-97400000D01*
X154650000Y-97400000D01*
X154650000Y-96250000D01*
X153500000Y-96250000D01*
X153500000Y-97400000D01*
X153000000Y-97400000D01*
X153000000Y-96250000D01*
X151850000Y-96250000D01*
X151850000Y-97400000D01*
X151350000Y-97400000D01*
X151350000Y-96250000D01*
X150500000Y-96250000D01*
X150500000Y-96647844D01*
X146850500Y-96647844D01*
X146850500Y-96580249D01*
X146850499Y-96580247D01*
X146838868Y-96521770D01*
X146838867Y-96521769D01*
X146787767Y-96445293D01*
X146791081Y-96443078D01*
X146768301Y-96401358D01*
X146773285Y-96331666D01*
X146776957Y-96322870D01*
X146788071Y-96298882D01*
X146794552Y-96294552D01*
X146838867Y-96228231D01*
X146850500Y-96169748D01*
X146850500Y-95749999D01*
X150500635Y-95749999D01*
X150500636Y-95750000D01*
X151350000Y-95750000D01*
X151850000Y-95750000D01*
X153000000Y-95750000D01*
X153500000Y-95750000D01*
X154650000Y-95750000D01*
X155150000Y-95750000D01*
X156000000Y-95750000D01*
X156000000Y-95352172D01*
X155999999Y-95352155D01*
X155993598Y-95292627D01*
X155993596Y-95292620D01*
X155943354Y-95157913D01*
X155943350Y-95157906D01*
X155857190Y-95042812D01*
X155857187Y-95042809D01*
X155742093Y-94956649D01*
X155742086Y-94956645D01*
X155607379Y-94906403D01*
X155607372Y-94906401D01*
X155547844Y-94900000D01*
X155150000Y-94900000D01*
X155150000Y-95750000D01*
X154650000Y-95750000D01*
X154650000Y-94900000D01*
X154252155Y-94900000D01*
X154192627Y-94906401D01*
X154192617Y-94906403D01*
X154118332Y-94934110D01*
X154048641Y-94939094D01*
X154031668Y-94934110D01*
X153957382Y-94906403D01*
X153957372Y-94906401D01*
X153897844Y-94900000D01*
X153500000Y-94900000D01*
X153500000Y-95750000D01*
X153000000Y-95750000D01*
X153000000Y-94900000D01*
X152602155Y-94900000D01*
X152542627Y-94906401D01*
X152542617Y-94906403D01*
X152468332Y-94934110D01*
X152398641Y-94939094D01*
X152381668Y-94934110D01*
X152307382Y-94906403D01*
X152307372Y-94906401D01*
X152247844Y-94900000D01*
X151850000Y-94900000D01*
X151850000Y-95750000D01*
X151350000Y-95750000D01*
X151350000Y-94900636D01*
X151349999Y-94900635D01*
X151271075Y-94910548D01*
X151138242Y-94965570D01*
X151071395Y-95017499D01*
X151071388Y-95017505D01*
X150617505Y-95471387D01*
X150617494Y-95471400D01*
X150565570Y-95538241D01*
X150565570Y-95538242D01*
X150510548Y-95671075D01*
X150500635Y-95749999D01*
X146850500Y-95749999D01*
X146850500Y-95730252D01*
X146850500Y-95730249D01*
X146850499Y-95730247D01*
X146838868Y-95671770D01*
X146838867Y-95671769D01*
X146787767Y-95595293D01*
X146791081Y-95593078D01*
X146768301Y-95551358D01*
X146773285Y-95481666D01*
X146789756Y-95456036D01*
X146787767Y-95454707D01*
X146808735Y-95423324D01*
X146838867Y-95378231D01*
X146838867Y-95378229D01*
X146838868Y-95378229D01*
X146850499Y-95319752D01*
X146850500Y-95319750D01*
X146850500Y-94880249D01*
X146850499Y-94880247D01*
X146838868Y-94821770D01*
X146838867Y-94821769D01*
X146787767Y-94745293D01*
X146791081Y-94743078D01*
X146768301Y-94701358D01*
X146773285Y-94631666D01*
X146789756Y-94606036D01*
X146787767Y-94604707D01*
X146816499Y-94561706D01*
X146838867Y-94528231D01*
X146838867Y-94528229D01*
X146838868Y-94528229D01*
X146850499Y-94469752D01*
X146850500Y-94469750D01*
X146850500Y-94030249D01*
X146850499Y-94030247D01*
X146838868Y-93971770D01*
X146838867Y-93971769D01*
X146787767Y-93895293D01*
X146791081Y-93893078D01*
X146768301Y-93851358D01*
X146773285Y-93781666D01*
X146789756Y-93756036D01*
X146787767Y-93754707D01*
X146817003Y-93710952D01*
X146838867Y-93678231D01*
X146838867Y-93678229D01*
X146838868Y-93678229D01*
X146844912Y-93647844D01*
X159350000Y-93647844D01*
X159356401Y-93707372D01*
X159356403Y-93707382D01*
X159384110Y-93781668D01*
X159389094Y-93851359D01*
X159384110Y-93868332D01*
X159356403Y-93942617D01*
X159356401Y-93942627D01*
X159350000Y-94002155D01*
X159350000Y-94050000D01*
X160050000Y-94050000D01*
X160050000Y-93600000D01*
X159350000Y-93600000D01*
X159350000Y-93647844D01*
X146844912Y-93647844D01*
X146850499Y-93619752D01*
X146850500Y-93619750D01*
X146850500Y-93286556D01*
X146870185Y-93219517D01*
X146900189Y-93187290D01*
X147007187Y-93107190D01*
X147007190Y-93107187D01*
X147093350Y-92992093D01*
X147093354Y-92992086D01*
X147143596Y-92857379D01*
X147143598Y-92857372D01*
X147149999Y-92797844D01*
X147150000Y-92797827D01*
X147150000Y-92750000D01*
X146374000Y-92750000D01*
X146306961Y-92730315D01*
X146261206Y-92677511D01*
X146250000Y-92626000D01*
X146250000Y-92550000D01*
X146174000Y-92550000D01*
X146106961Y-92530315D01*
X146061206Y-92477511D01*
X146050000Y-92426000D01*
X146050000Y-92350000D01*
X146450000Y-92350000D01*
X147150000Y-92350000D01*
X147150000Y-92302172D01*
X147149999Y-92302155D01*
X147143598Y-92242628D01*
X147115888Y-92168334D01*
X147110904Y-92098642D01*
X147115888Y-92081666D01*
X147143598Y-92007371D01*
X147149999Y-91947844D01*
X147150000Y-91947827D01*
X147150000Y-91900000D01*
X146450000Y-91900000D01*
X146450000Y-92350000D01*
X146050000Y-92350000D01*
X146050000Y-91900000D01*
X145350000Y-91900000D01*
X145350000Y-91947844D01*
X145356401Y-92007372D01*
X145356403Y-92007380D01*
X145370487Y-92045141D01*
X145375471Y-92114833D01*
X145341985Y-92176156D01*
X145280662Y-92209640D01*
X145222213Y-92208249D01*
X145189562Y-92199500D01*
X145189560Y-92199500D01*
X143658676Y-92199500D01*
X143591637Y-92179815D01*
X143570995Y-92163181D01*
X143507316Y-92099502D01*
X143507314Y-92099500D01*
X143433565Y-92056921D01*
X143393187Y-92033608D01*
X143303164Y-92009487D01*
X143265892Y-91999500D01*
X143134108Y-91999500D01*
X143006812Y-92033608D01*
X142892686Y-92099500D01*
X142892681Y-92099504D01*
X142883111Y-92109074D01*
X142821787Y-92142557D01*
X142752096Y-92137570D01*
X142696163Y-92095697D01*
X142674542Y-92048981D01*
X142659837Y-91984551D01*
X142659832Y-91984536D01*
X142570807Y-91730118D01*
X142570801Y-91730104D01*
X142484067Y-91550000D01*
X147500000Y-91550000D01*
X147547828Y-91550000D01*
X147547844Y-91549999D01*
X147607371Y-91543598D01*
X147681666Y-91515888D01*
X147751358Y-91510904D01*
X147768334Y-91515888D01*
X147842628Y-91543598D01*
X147842627Y-91543598D01*
X147902155Y-91549999D01*
X147902172Y-91550000D01*
X147950000Y-91550000D01*
X148350000Y-91550000D01*
X148397828Y-91550000D01*
X148397844Y-91549999D01*
X148457371Y-91543598D01*
X148531666Y-91515888D01*
X148601358Y-91510904D01*
X148618334Y-91515888D01*
X148692628Y-91543598D01*
X148692627Y-91543598D01*
X148752155Y-91549999D01*
X148752172Y-91550000D01*
X148800000Y-91550000D01*
X149200000Y-91550000D01*
X149247828Y-91550000D01*
X149247844Y-91549999D01*
X149307371Y-91543598D01*
X149381666Y-91515888D01*
X149451358Y-91510904D01*
X149468334Y-91515888D01*
X149542628Y-91543598D01*
X149542627Y-91543598D01*
X149602155Y-91549999D01*
X149602172Y-91550000D01*
X149650000Y-91550000D01*
X150050000Y-91550000D01*
X150097828Y-91550000D01*
X150097844Y-91549999D01*
X150157371Y-91543598D01*
X150231666Y-91515888D01*
X150301358Y-91510904D01*
X150318334Y-91515888D01*
X150392628Y-91543598D01*
X150392627Y-91543598D01*
X150452155Y-91549999D01*
X150452172Y-91550000D01*
X150500000Y-91550000D01*
X150900000Y-91550000D01*
X150947828Y-91550000D01*
X150947844Y-91549999D01*
X151007371Y-91543598D01*
X151081666Y-91515888D01*
X151151358Y-91510904D01*
X151168334Y-91515888D01*
X151242628Y-91543598D01*
X151242627Y-91543598D01*
X151302155Y-91549999D01*
X151302172Y-91550000D01*
X151350000Y-91550000D01*
X151750000Y-91550000D01*
X151797828Y-91550000D01*
X151797844Y-91549999D01*
X151857371Y-91543598D01*
X151931666Y-91515888D01*
X152001358Y-91510904D01*
X152018334Y-91515888D01*
X152092628Y-91543598D01*
X152092627Y-91543598D01*
X152152155Y-91549999D01*
X152152172Y-91550000D01*
X152200000Y-91550000D01*
X152600000Y-91550000D01*
X152647828Y-91550000D01*
X152647844Y-91549999D01*
X152707371Y-91543598D01*
X152781666Y-91515888D01*
X152851358Y-91510904D01*
X152868334Y-91515888D01*
X152942628Y-91543598D01*
X152942627Y-91543598D01*
X153002155Y-91549999D01*
X153002172Y-91550000D01*
X153050000Y-91550000D01*
X153450000Y-91550000D01*
X153497828Y-91550000D01*
X153497844Y-91549999D01*
X153557371Y-91543598D01*
X153631666Y-91515888D01*
X153701358Y-91510904D01*
X153718334Y-91515888D01*
X153792628Y-91543598D01*
X153792627Y-91543598D01*
X153852155Y-91549999D01*
X153852172Y-91550000D01*
X153900000Y-91550000D01*
X154300000Y-91550000D01*
X154347828Y-91550000D01*
X154347844Y-91549999D01*
X154407371Y-91543598D01*
X154481666Y-91515888D01*
X154551358Y-91510904D01*
X154568334Y-91515888D01*
X154642628Y-91543598D01*
X154642627Y-91543598D01*
X154702155Y-91549999D01*
X154702172Y-91550000D01*
X154750000Y-91550000D01*
X155150000Y-91550000D01*
X155197828Y-91550000D01*
X155197844Y-91549999D01*
X155257371Y-91543598D01*
X155331666Y-91515888D01*
X155401358Y-91510904D01*
X155418334Y-91515888D01*
X155492628Y-91543598D01*
X155492627Y-91543598D01*
X155552155Y-91549999D01*
X155552172Y-91550000D01*
X155600000Y-91550000D01*
X156000000Y-91550000D01*
X156047828Y-91550000D01*
X156047844Y-91549999D01*
X156107371Y-91543598D01*
X156181666Y-91515888D01*
X156251358Y-91510904D01*
X156268334Y-91515888D01*
X156342628Y-91543598D01*
X156342627Y-91543598D01*
X156402155Y-91549999D01*
X156402172Y-91550000D01*
X156450000Y-91550000D01*
X156850000Y-91550000D01*
X156897828Y-91550000D01*
X156897844Y-91549999D01*
X156957371Y-91543598D01*
X157031666Y-91515888D01*
X157101358Y-91510904D01*
X157118334Y-91515888D01*
X157192628Y-91543598D01*
X157192627Y-91543598D01*
X157252155Y-91549999D01*
X157252172Y-91550000D01*
X157300000Y-91550000D01*
X157700000Y-91550000D01*
X157747828Y-91550000D01*
X157747844Y-91549999D01*
X157807371Y-91543598D01*
X157881666Y-91515888D01*
X157951358Y-91510904D01*
X157968334Y-91515888D01*
X158042628Y-91543598D01*
X158042627Y-91543598D01*
X158102155Y-91549999D01*
X158102172Y-91550000D01*
X158150000Y-91550000D01*
X158550000Y-91550000D01*
X158597828Y-91550000D01*
X158597844Y-91549999D01*
X158657371Y-91543598D01*
X158731666Y-91515888D01*
X158801358Y-91510904D01*
X158818334Y-91515888D01*
X158892628Y-91543598D01*
X158892627Y-91543598D01*
X158952155Y-91549999D01*
X158952172Y-91550000D01*
X159000000Y-91550000D01*
X159000000Y-90850000D01*
X158550000Y-90850000D01*
X158550000Y-91550000D01*
X158150000Y-91550000D01*
X158150000Y-90850000D01*
X157700000Y-90850000D01*
X157700000Y-91550000D01*
X157300000Y-91550000D01*
X157300000Y-90850000D01*
X156850000Y-90850000D01*
X156850000Y-91550000D01*
X156450000Y-91550000D01*
X156450000Y-90850000D01*
X156000000Y-90850000D01*
X156000000Y-91550000D01*
X155600000Y-91550000D01*
X155600000Y-90850000D01*
X155150000Y-90850000D01*
X155150000Y-91550000D01*
X154750000Y-91550000D01*
X154750000Y-90850000D01*
X154300000Y-90850000D01*
X154300000Y-91550000D01*
X153900000Y-91550000D01*
X153900000Y-90850000D01*
X153450000Y-90850000D01*
X153450000Y-91550000D01*
X153050000Y-91550000D01*
X153050000Y-90850000D01*
X152600000Y-90850000D01*
X152600000Y-91550000D01*
X152200000Y-91550000D01*
X152200000Y-90850000D01*
X151750000Y-90850000D01*
X151750000Y-91550000D01*
X151350000Y-91550000D01*
X151350000Y-90850000D01*
X150900000Y-90850000D01*
X150900000Y-91550000D01*
X150500000Y-91550000D01*
X150500000Y-90850000D01*
X150050000Y-90850000D01*
X150050000Y-91550000D01*
X149650000Y-91550000D01*
X149650000Y-90850000D01*
X149200000Y-90850000D01*
X149200000Y-91550000D01*
X148800000Y-91550000D01*
X148800000Y-90850000D01*
X148350000Y-90850000D01*
X148350000Y-91550000D01*
X147950000Y-91550000D01*
X147950000Y-90850000D01*
X147500000Y-90850000D01*
X147500000Y-91550000D01*
X142484067Y-91550000D01*
X142453847Y-91487247D01*
X142310429Y-91258997D01*
X142310427Y-91258993D01*
X142214653Y-91138900D01*
X142214651Y-91138899D01*
X141675301Y-91678250D01*
X141613978Y-91711735D01*
X141544286Y-91706751D01*
X141498900Y-91674996D01*
X141497962Y-91675935D01*
X141324065Y-91502038D01*
X141325159Y-91500943D01*
X141290703Y-91448159D01*
X141290206Y-91378291D01*
X141321748Y-91324697D01*
X141548601Y-91097844D01*
X145350000Y-91097844D01*
X145356401Y-91157372D01*
X145356403Y-91157382D01*
X145384110Y-91231668D01*
X145389094Y-91301359D01*
X145384110Y-91318332D01*
X145356403Y-91392617D01*
X145356401Y-91392627D01*
X145350000Y-91452155D01*
X145350000Y-91500000D01*
X146000000Y-91500000D01*
X146500000Y-91500000D01*
X147100000Y-91500000D01*
X147100000Y-90900000D01*
X146500000Y-90900000D01*
X146500000Y-91500000D01*
X146000000Y-91500000D01*
X146000000Y-90900000D01*
X145350000Y-90900000D01*
X145350000Y-91097844D01*
X141548601Y-91097844D01*
X141861099Y-90785346D01*
X141740998Y-90689567D01*
X141565105Y-90579047D01*
X141518814Y-90526712D01*
X141508166Y-90457659D01*
X141536541Y-90393810D01*
X141594930Y-90355438D01*
X141631061Y-90350054D01*
X145248431Y-90349800D01*
X145315470Y-90369480D01*
X145336119Y-90386119D01*
X145350000Y-90400000D01*
X147178638Y-90400000D01*
X147245677Y-90419685D01*
X147266319Y-90436319D01*
X147280000Y-90450000D01*
X159220000Y-90450000D01*
X159233681Y-90436319D01*
X159295004Y-90402834D01*
X159321362Y-90400000D01*
X161149999Y-90400000D01*
X161165000Y-90384999D01*
X161226323Y-90351513D01*
X161252656Y-90348680D01*
X162101044Y-90348621D01*
X162168081Y-90368300D01*
G37*
%TD.AperFunction*%
%TA.AperFunction,Conductor*%
G36*
X169434334Y-100915651D02*
G01*
X169490267Y-100957523D01*
X169514684Y-101022987D01*
X169515000Y-101031833D01*
X169515000Y-101345000D01*
X170026000Y-101345000D01*
X170034685Y-101347550D01*
X170043647Y-101346262D01*
X170067687Y-101357240D01*
X170093039Y-101364685D01*
X170098966Y-101371525D01*
X170107203Y-101375287D01*
X170121492Y-101397521D01*
X170138794Y-101417489D01*
X170141081Y-101428003D01*
X170144977Y-101434065D01*
X170150000Y-101469000D01*
X170150000Y-101480000D01*
X170161000Y-101480000D01*
X170228039Y-101499685D01*
X170273794Y-101552489D01*
X170285000Y-101604000D01*
X170285000Y-102395000D01*
X170332828Y-102395000D01*
X170332844Y-102394999D01*
X170392372Y-102388598D01*
X170392379Y-102388596D01*
X170527086Y-102338354D01*
X170527093Y-102338350D01*
X170642186Y-102252190D01*
X170723142Y-102144049D01*
X170745107Y-102127605D01*
X170764834Y-102108537D01*
X170774387Y-102105687D01*
X170779076Y-102102178D01*
X170798107Y-102096765D01*
X170804437Y-102095500D01*
X170804748Y-102095500D01*
X170863231Y-102083867D01*
X170863481Y-102083699D01*
X170875698Y-102081258D01*
X170898804Y-102083304D01*
X170921863Y-102080796D01*
X170924757Y-102081646D01*
X170924790Y-102081485D01*
X170995247Y-102095499D01*
X170995250Y-102095500D01*
X171085410Y-102095500D01*
X171152449Y-102115185D01*
X171198204Y-102167989D01*
X171208700Y-102232754D01*
X171205000Y-102267169D01*
X171205000Y-102315000D01*
X171985000Y-102315000D01*
X171985000Y-101313681D01*
X171983196Y-101312471D01*
X171971462Y-101285383D01*
X171957318Y-101259480D01*
X171957732Y-101253686D01*
X171955424Y-101248358D01*
X171960196Y-101219234D01*
X171962302Y-101189788D01*
X171965783Y-101185137D01*
X171966722Y-101179408D01*
X171986482Y-101157486D01*
X172004174Y-101133855D01*
X172010626Y-101130703D01*
X172013504Y-101127512D01*
X172026912Y-101122750D01*
X172045890Y-101113482D01*
X172056839Y-101110499D01*
X172059900Y-101110499D01*
X172109487Y-101103972D01*
X172149802Y-101085172D01*
X172160012Y-101082391D01*
X172184785Y-101082877D01*
X172209276Y-101079157D01*
X172219103Y-101083550D01*
X172229868Y-101083762D01*
X172250444Y-101097563D01*
X172273061Y-101107675D01*
X172278953Y-101116684D01*
X172287894Y-101122682D01*
X172297742Y-101145417D01*
X172311301Y-101166151D01*
X172311386Y-101176915D01*
X172315666Y-101186795D01*
X172311659Y-101211243D01*
X172311857Y-101236018D01*
X172305955Y-101246055D01*
X172304368Y-101255745D01*
X172292552Y-101268852D01*
X172280288Y-101289712D01*
X172255000Y-101315000D01*
X172255000Y-102490500D01*
X172235315Y-102557539D01*
X172182511Y-102603294D01*
X172131000Y-102614500D01*
X172065862Y-102614500D01*
X171998823Y-102594815D01*
X171986643Y-102585000D01*
X171205000Y-102585000D01*
X171205000Y-102632844D01*
X171211401Y-102692372D01*
X171211403Y-102692379D01*
X171261645Y-102827086D01*
X171261647Y-102827088D01*
X171298029Y-102875689D01*
X171322446Y-102941153D01*
X171307595Y-103009426D01*
X171298029Y-103024311D01*
X171261647Y-103072911D01*
X171261645Y-103072913D01*
X171211403Y-103207620D01*
X171211401Y-103207627D01*
X171205000Y-103267155D01*
X171205000Y-103315000D01*
X171996000Y-103315000D01*
X172004685Y-103317550D01*
X172013647Y-103316262D01*
X172037687Y-103327240D01*
X172063039Y-103334685D01*
X172068966Y-103341525D01*
X172077203Y-103345287D01*
X172091492Y-103367521D01*
X172108794Y-103387489D01*
X172111081Y-103398003D01*
X172114977Y-103404065D01*
X172120000Y-103439000D01*
X172120000Y-103461000D01*
X172100315Y-103528039D01*
X172047511Y-103573794D01*
X171996000Y-103585000D01*
X171205000Y-103585000D01*
X171205000Y-103632839D01*
X171208700Y-103667242D01*
X171206898Y-103677227D01*
X171209235Y-103687101D01*
X171200800Y-103711033D01*
X171196296Y-103736002D01*
X171189383Y-103743427D01*
X171186010Y-103752998D01*
X171165973Y-103768571D01*
X171148687Y-103787140D01*
X171137388Y-103790790D01*
X171130845Y-103795877D01*
X171108555Y-103800107D01*
X171096499Y-103804003D01*
X171090963Y-103804500D01*
X170995252Y-103804500D01*
X170936769Y-103816133D01*
X170932947Y-103818686D01*
X170911088Y-103820649D01*
X170894604Y-103817375D01*
X170877892Y-103819159D01*
X170875236Y-103818379D01*
X170875209Y-103818515D01*
X170804751Y-103804500D01*
X170804748Y-103804500D01*
X170495252Y-103804500D01*
X170495249Y-103804500D01*
X170424791Y-103818515D01*
X170424153Y-103815307D01*
X170389200Y-103820675D01*
X170367142Y-103818746D01*
X170363231Y-103816133D01*
X170304748Y-103804500D01*
X170204190Y-103804500D01*
X170198803Y-103804029D01*
X170171098Y-103793193D01*
X170142564Y-103784815D01*
X170138918Y-103780608D01*
X170133733Y-103778580D01*
X170116283Y-103754485D01*
X170096809Y-103732011D01*
X170093935Y-103723627D01*
X170092751Y-103721992D01*
X170092630Y-103719818D01*
X170088924Y-103709006D01*
X170088596Y-103707619D01*
X170038354Y-103572913D01*
X170038350Y-103572906D01*
X169952190Y-103457812D01*
X169844048Y-103376856D01*
X169827606Y-103354891D01*
X169808537Y-103335165D01*
X169805685Y-103325608D01*
X169802178Y-103320922D01*
X169796765Y-103301892D01*
X169795500Y-103295562D01*
X169795500Y-103295252D01*
X169783867Y-103236769D01*
X169783699Y-103236518D01*
X169781258Y-103224302D01*
X169783304Y-103201196D01*
X169780796Y-103178137D01*
X169781646Y-103175242D01*
X169781485Y-103175210D01*
X169795499Y-103104752D01*
X169795500Y-103104750D01*
X169795500Y-102795249D01*
X169795499Y-102795247D01*
X169781485Y-102724790D01*
X169784753Y-102724139D01*
X169779350Y-102688911D01*
X169781312Y-102667054D01*
X169783867Y-102663231D01*
X169795500Y-102604748D01*
X169795500Y-102509035D01*
X169795997Y-102503500D01*
X169806845Y-102475950D01*
X169815185Y-102447550D01*
X169819502Y-102443808D01*
X169821597Y-102438490D01*
X169845620Y-102421177D01*
X169867989Y-102401795D01*
X169873829Y-102400848D01*
X169878282Y-102397640D01*
X169901155Y-102396420D01*
X169932758Y-102391300D01*
X169967160Y-102394999D01*
X169967172Y-102395000D01*
X170015000Y-102395000D01*
X170015000Y-101615000D01*
X169625916Y-101615000D01*
X169615738Y-101614500D01*
X169614748Y-101614500D01*
X169124500Y-101614500D01*
X169057461Y-101594815D01*
X169011706Y-101542011D01*
X169000500Y-101490500D01*
X169000500Y-101298333D01*
X169020185Y-101231294D01*
X169036819Y-101210652D01*
X169303319Y-100944152D01*
X169364642Y-100910667D01*
X169434334Y-100915651D01*
G37*
%TD.AperFunction*%
%TA.AperFunction,Conductor*%
G36*
X162058363Y-97970185D02*
G01*
X162079005Y-97986819D01*
X162142686Y-98050500D01*
X162256814Y-98116392D01*
X162384108Y-98150500D01*
X162384110Y-98150500D01*
X162515889Y-98150500D01*
X162515892Y-98150500D01*
X162593410Y-98129729D01*
X162663256Y-98131392D01*
X162721118Y-98170554D01*
X162748623Y-98234782D01*
X162749500Y-98249500D01*
X162749500Y-98342062D01*
X162753605Y-98357382D01*
X162769979Y-98418490D01*
X162769982Y-98418495D01*
X162809535Y-98487004D01*
X162809541Y-98487012D01*
X164282848Y-99960319D01*
X164316333Y-100021642D01*
X164311349Y-100091334D01*
X164269477Y-100147267D01*
X164204013Y-100171684D01*
X164195167Y-100172000D01*
X164036467Y-100172000D01*
X163960039Y-100192478D01*
X163891518Y-100232040D01*
X163891515Y-100232042D01*
X162920375Y-101203181D01*
X162859052Y-101236666D01*
X162832694Y-101239500D01*
X162440105Y-101239500D01*
X162424386Y-101241569D01*
X162390513Y-101246028D01*
X162390511Y-101246029D01*
X162390509Y-101246029D01*
X162281683Y-101296776D01*
X162196776Y-101381683D01*
X162146027Y-101490514D01*
X162139500Y-101540097D01*
X162139500Y-101899896D01*
X162140770Y-101909538D01*
X162130001Y-101978573D01*
X162089650Y-102024032D01*
X162090788Y-102025499D01*
X162084621Y-102030282D01*
X161970282Y-102144620D01*
X161970278Y-102144625D01*
X161887969Y-102283803D01*
X161841088Y-102445171D01*
X161838853Y-102444521D01*
X161812154Y-102497552D01*
X161751983Y-102533065D01*
X161689503Y-102532621D01*
X161580820Y-102503500D01*
X161565892Y-102499500D01*
X161434108Y-102499500D01*
X161306812Y-102533608D01*
X161192686Y-102599500D01*
X161192683Y-102599502D01*
X161099502Y-102692683D01*
X161099500Y-102692686D01*
X161081887Y-102723193D01*
X161031319Y-102771408D01*
X160962712Y-102784630D01*
X160897848Y-102758662D01*
X160857320Y-102701748D01*
X160850500Y-102661192D01*
X160850500Y-102530249D01*
X160850499Y-102530247D01*
X160838868Y-102471770D01*
X160838867Y-102471769D01*
X160787767Y-102395293D01*
X160791081Y-102393078D01*
X160768301Y-102351358D01*
X160773285Y-102281666D01*
X160789756Y-102256036D01*
X160787767Y-102254707D01*
X160815050Y-102213875D01*
X160838867Y-102178231D01*
X160838867Y-102178229D01*
X160838868Y-102178229D01*
X160848937Y-102127605D01*
X160850500Y-102119748D01*
X160850500Y-101680252D01*
X160850500Y-101680249D01*
X160850499Y-101680247D01*
X160838868Y-101621770D01*
X160838867Y-101621769D01*
X160787767Y-101545293D01*
X160791081Y-101543078D01*
X160768301Y-101501358D01*
X160773285Y-101431666D01*
X160789756Y-101406036D01*
X160787767Y-101404707D01*
X160819483Y-101357240D01*
X160838867Y-101328231D01*
X160838867Y-101328229D01*
X160838868Y-101328229D01*
X160850499Y-101269752D01*
X160850500Y-101269750D01*
X160850500Y-100830249D01*
X160850499Y-100830247D01*
X160838868Y-100771770D01*
X160838867Y-100771769D01*
X160787767Y-100695293D01*
X160791081Y-100693078D01*
X160768301Y-100651358D01*
X160773285Y-100581666D01*
X160789756Y-100556036D01*
X160787767Y-100554707D01*
X160816261Y-100512062D01*
X160838867Y-100478231D01*
X160838867Y-100478229D01*
X160838868Y-100478229D01*
X160850499Y-100419752D01*
X160850500Y-100419750D01*
X160850500Y-99980249D01*
X160850499Y-99980247D01*
X160838868Y-99921770D01*
X160838867Y-99921769D01*
X160787767Y-99845293D01*
X160791081Y-99843078D01*
X160768301Y-99801358D01*
X160773285Y-99731666D01*
X160789756Y-99706036D01*
X160787767Y-99704707D01*
X160823978Y-99650513D01*
X160838867Y-99628231D01*
X160838867Y-99628229D01*
X160838868Y-99628229D01*
X160850499Y-99569752D01*
X160850500Y-99569750D01*
X160850500Y-99130249D01*
X160850499Y-99130247D01*
X160838868Y-99071770D01*
X160838867Y-99071769D01*
X160787767Y-98995293D01*
X160791081Y-98993078D01*
X160768301Y-98951358D01*
X160773285Y-98881666D01*
X160789756Y-98856036D01*
X160787767Y-98854707D01*
X160808735Y-98823324D01*
X160838867Y-98778231D01*
X160838867Y-98778229D01*
X160838868Y-98778229D01*
X160850499Y-98719752D01*
X160850500Y-98719750D01*
X160850500Y-98280249D01*
X160850499Y-98280247D01*
X160838868Y-98221770D01*
X160838867Y-98221769D01*
X160790702Y-98149686D01*
X160790200Y-98149310D01*
X160789882Y-98148459D01*
X160787767Y-98145293D01*
X160788515Y-98144793D01*
X160780965Y-98124550D01*
X160768301Y-98101358D01*
X160768946Y-98092328D01*
X160765783Y-98083846D01*
X160771399Y-98058025D01*
X160773285Y-98031666D01*
X160779103Y-98022612D01*
X160780635Y-98015573D01*
X160801786Y-97987319D01*
X160802286Y-97986819D01*
X160863609Y-97953334D01*
X160889967Y-97950500D01*
X161991324Y-97950500D01*
X162058363Y-97970185D01*
G37*
%TD.AperFunction*%
%TA.AperFunction,Conductor*%
G36*
X169866986Y-98720185D02*
G01*
X169912741Y-98772989D01*
X169922685Y-98842147D01*
X169906679Y-98887621D01*
X169837968Y-99003804D01*
X169795496Y-99150000D01*
X170476000Y-99150000D01*
X170543039Y-99169685D01*
X170588794Y-99222489D01*
X170600000Y-99274000D01*
X170600000Y-99526000D01*
X170580315Y-99593039D01*
X170527511Y-99638794D01*
X170476000Y-99650000D01*
X169795496Y-99650000D01*
X169837968Y-99796195D01*
X169920278Y-99935374D01*
X169920285Y-99935383D01*
X169945221Y-99960319D01*
X169978706Y-100021642D01*
X169973722Y-100091334D01*
X169931850Y-100147267D01*
X169866386Y-100171684D01*
X169857540Y-100172000D01*
X169042988Y-100172000D01*
X168975949Y-100152315D01*
X168942205Y-100120241D01*
X168935482Y-100110862D01*
X168903224Y-100041684D01*
X168842036Y-99980496D01*
X168836119Y-99972241D01*
X168827805Y-99948462D01*
X168815736Y-99926358D01*
X168816473Y-99916046D01*
X168813061Y-99906286D01*
X168818923Y-99881787D01*
X168820720Y-99856666D01*
X168827435Y-99846216D01*
X168829322Y-99838334D01*
X168837615Y-99830376D01*
X168849221Y-99812319D01*
X168865345Y-99796195D01*
X168903224Y-99758316D01*
X168953972Y-99649487D01*
X168960500Y-99599901D01*
X168960499Y-99240100D01*
X168953972Y-99190513D01*
X168903224Y-99081684D01*
X168818316Y-98996776D01*
X168818314Y-98996774D01*
X168809427Y-98990551D01*
X168810797Y-98988593D01*
X168809068Y-98987070D01*
X168793297Y-98979868D01*
X168783393Y-98964458D01*
X168769647Y-98952351D01*
X168764764Y-98935469D01*
X168755523Y-98921090D01*
X168750500Y-98886155D01*
X168750500Y-98824500D01*
X168770185Y-98757461D01*
X168822989Y-98711706D01*
X168874500Y-98700500D01*
X169799947Y-98700500D01*
X169866986Y-98720185D01*
G37*
%TD.AperFunction*%
%TA.AperFunction,Conductor*%
G36*
X164938543Y-90368107D02*
G01*
X164984302Y-90420908D01*
X164994250Y-90490066D01*
X164965230Y-90553623D01*
X164937483Y-90577421D01*
X164759001Y-90689568D01*
X164638899Y-90785345D01*
X165178251Y-91324697D01*
X165211736Y-91386020D01*
X165206752Y-91455712D01*
X165175001Y-91501104D01*
X165175935Y-91502038D01*
X165002038Y-91675935D01*
X165000947Y-91674844D01*
X164948133Y-91709303D01*
X164878265Y-91709785D01*
X164824697Y-91678251D01*
X164285345Y-91138899D01*
X164189568Y-91259001D01*
X164046152Y-91487247D01*
X163929198Y-91730104D01*
X163929192Y-91730118D01*
X163840167Y-91984536D01*
X163840163Y-91984548D01*
X163780181Y-92247348D01*
X163780178Y-92247366D01*
X163750000Y-92515212D01*
X163750000Y-92784787D01*
X163780178Y-93052633D01*
X163780181Y-93052651D01*
X163840163Y-93315451D01*
X163840167Y-93315463D01*
X163929192Y-93569881D01*
X163929198Y-93569895D01*
X164046152Y-93812752D01*
X164189568Y-94040998D01*
X164285346Y-94161099D01*
X164824697Y-93621748D01*
X164886020Y-93588263D01*
X164955711Y-93593247D01*
X165001101Y-93625001D01*
X165002038Y-93624065D01*
X165175935Y-93797962D01*
X165174838Y-93799058D01*
X165209292Y-93851831D01*
X165209794Y-93921699D01*
X165178250Y-93975301D01*
X164638899Y-94514651D01*
X164638900Y-94514653D01*
X164758993Y-94610427D01*
X164758997Y-94610429D01*
X164987247Y-94753847D01*
X165230104Y-94870801D01*
X165230118Y-94870807D01*
X165484536Y-94959832D01*
X165484548Y-94959836D01*
X165747348Y-95019818D01*
X165747366Y-95019821D01*
X166015212Y-95049999D01*
X166015216Y-95050000D01*
X166284784Y-95050000D01*
X166284787Y-95049999D01*
X166552633Y-95019821D01*
X166552651Y-95019818D01*
X166815451Y-94959836D01*
X166815463Y-94959832D01*
X167069881Y-94870807D01*
X167069895Y-94870801D01*
X167312752Y-94753847D01*
X167540999Y-94610431D01*
X167661098Y-94514653D01*
X167661099Y-94514652D01*
X167121748Y-93975302D01*
X167088263Y-93913979D01*
X167093247Y-93844288D01*
X167125006Y-93798903D01*
X167124065Y-93797962D01*
X167297962Y-93624065D01*
X167299061Y-93625164D01*
X167351811Y-93590712D01*
X167421679Y-93590198D01*
X167475302Y-93621748D01*
X168014652Y-94161099D01*
X168014653Y-94161098D01*
X168110431Y-94040999D01*
X168253849Y-93812749D01*
X168323951Y-93667181D01*
X168370773Y-93615321D01*
X168438200Y-93597008D01*
X168504824Y-93618056D01*
X168534938Y-93646671D01*
X168542813Y-93657191D01*
X168657906Y-93743350D01*
X168657913Y-93743354D01*
X168792620Y-93793596D01*
X168792627Y-93793598D01*
X168852155Y-93799999D01*
X168852172Y-93800000D01*
X169900000Y-93800000D01*
X170400000Y-93800000D01*
X171447828Y-93800000D01*
X171447844Y-93799999D01*
X171507372Y-93793598D01*
X171507379Y-93793596D01*
X171642086Y-93743354D01*
X171642093Y-93743350D01*
X171757187Y-93657190D01*
X171757190Y-93657187D01*
X171843350Y-93542093D01*
X171843354Y-93542086D01*
X171893596Y-93407379D01*
X171893598Y-93407372D01*
X171899999Y-93347844D01*
X171900000Y-93347827D01*
X171900000Y-92300000D01*
X170400000Y-92300000D01*
X170400000Y-93800000D01*
X169900000Y-93800000D01*
X169900000Y-92174000D01*
X169919685Y-92106961D01*
X169972489Y-92061206D01*
X170024000Y-92050000D01*
X170150000Y-92050000D01*
X170150000Y-91924000D01*
X170169685Y-91856961D01*
X170222489Y-91811206D01*
X170274000Y-91800000D01*
X171900000Y-91800000D01*
X171900000Y-90967759D01*
X171907102Y-90943571D01*
X171910181Y-90918554D01*
X171916778Y-90910619D01*
X171919685Y-90900720D01*
X171938733Y-90884214D01*
X171954851Y-90864830D01*
X171964691Y-90861721D01*
X171972489Y-90854965D01*
X171997439Y-90851377D01*
X172021476Y-90843785D01*
X172031432Y-90846489D01*
X172041647Y-90845021D01*
X172064578Y-90855493D01*
X172088903Y-90862101D01*
X172100911Y-90872086D01*
X172105203Y-90874046D01*
X172116041Y-90884666D01*
X172151664Y-90924125D01*
X172163189Y-90939027D01*
X172278300Y-91113853D01*
X172287435Y-91130330D01*
X172374732Y-91320577D01*
X172381266Y-91338246D01*
X172438737Y-91539528D01*
X172442518Y-91557985D01*
X172468318Y-91761596D01*
X172469302Y-91777294D01*
X172463031Y-98831177D01*
X172443287Y-98898199D01*
X172390442Y-98943907D01*
X172321275Y-98953789D01*
X172283593Y-98940509D01*
X172283353Y-98941066D01*
X172276190Y-98937966D01*
X172120918Y-98892855D01*
X172120912Y-98892854D01*
X172100000Y-98891209D01*
X172100000Y-99546000D01*
X172080315Y-99613039D01*
X172027511Y-99658794D01*
X171976000Y-99670000D01*
X171724000Y-99670000D01*
X171656961Y-99650315D01*
X171611206Y-99597511D01*
X171600000Y-99546000D01*
X171600000Y-98891210D01*
X171599998Y-98891208D01*
X171592443Y-98891803D01*
X171524066Y-98877438D01*
X171474310Y-98828386D01*
X171458972Y-98760220D01*
X171482922Y-98694583D01*
X171513823Y-98665084D01*
X171544552Y-98644552D01*
X171588867Y-98578231D01*
X171588867Y-98578229D01*
X171588868Y-98578229D01*
X171600499Y-98519752D01*
X171600500Y-98519750D01*
X171600500Y-95980249D01*
X171600499Y-95980247D01*
X171588868Y-95921770D01*
X171588867Y-95921769D01*
X171544552Y-95855447D01*
X171478230Y-95811132D01*
X171478229Y-95811131D01*
X171419752Y-95799500D01*
X171419748Y-95799500D01*
X168880252Y-95799500D01*
X168880247Y-95799500D01*
X168821770Y-95811131D01*
X168821769Y-95811132D01*
X168755447Y-95855447D01*
X168711132Y-95921769D01*
X168711131Y-95921770D01*
X168699500Y-95980247D01*
X168699500Y-96825500D01*
X168679815Y-96892539D01*
X168627011Y-96938294D01*
X168575500Y-96949500D01*
X164610438Y-96949500D01*
X164534010Y-96969978D01*
X164465489Y-97009540D01*
X164465486Y-97009542D01*
X164261847Y-97213181D01*
X164200524Y-97246666D01*
X164174166Y-97249500D01*
X164084108Y-97249500D01*
X163956812Y-97283608D01*
X163842686Y-97349500D01*
X163842683Y-97349502D01*
X163749502Y-97442683D01*
X163749500Y-97442686D01*
X163683608Y-97556812D01*
X163649500Y-97684108D01*
X163649500Y-97815891D01*
X163683608Y-97943187D01*
X163709088Y-97987319D01*
X163749500Y-98057314D01*
X163842686Y-98150500D01*
X163932051Y-98202095D01*
X163953273Y-98214348D01*
X163956814Y-98216392D01*
X164084108Y-98250500D01*
X164084110Y-98250500D01*
X164215890Y-98250500D01*
X164215892Y-98250500D01*
X164343186Y-98216392D01*
X164457314Y-98150500D01*
X164550500Y-98057314D01*
X164616392Y-97943186D01*
X164650500Y-97815892D01*
X164650500Y-97725833D01*
X164659144Y-97696395D01*
X164665668Y-97666405D01*
X164669422Y-97661389D01*
X164670185Y-97658794D01*
X164686820Y-97638151D01*
X164738154Y-97586818D01*
X164799477Y-97553334D01*
X164825834Y-97550500D01*
X168575500Y-97550500D01*
X168642539Y-97570185D01*
X168688294Y-97622989D01*
X168699500Y-97674500D01*
X168699500Y-98116816D01*
X168679815Y-98183855D01*
X168627011Y-98229610D01*
X168557853Y-98239554D01*
X168513500Y-98224203D01*
X168443189Y-98183609D01*
X168443186Y-98183608D01*
X168315892Y-98149500D01*
X168184108Y-98149500D01*
X168056812Y-98183608D01*
X167942686Y-98249500D01*
X167942683Y-98249502D01*
X167849502Y-98342683D01*
X167849500Y-98342686D01*
X167783607Y-98456814D01*
X167780500Y-98464318D01*
X167777660Y-98463141D01*
X167748858Y-98510359D01*
X167686001Y-98540867D01*
X167616628Y-98532549D01*
X167577798Y-98506258D01*
X167568316Y-98496776D01*
X167547360Y-98487004D01*
X167459487Y-98446028D01*
X167459485Y-98446027D01*
X167459486Y-98446027D01*
X167409902Y-98439500D01*
X167409901Y-98439500D01*
X167195647Y-98439500D01*
X167177921Y-98434295D01*
X167159451Y-98434099D01*
X167135809Y-98421929D01*
X167128608Y-98419815D01*
X167127504Y-98419098D01*
X167117467Y-98412496D01*
X167114511Y-98409540D01*
X167105066Y-98404087D01*
X167045991Y-98369980D01*
X167045990Y-98369979D01*
X166998977Y-98357382D01*
X166969562Y-98349500D01*
X166969560Y-98349500D01*
X166708676Y-98349500D01*
X166641637Y-98329815D01*
X166620995Y-98313181D01*
X166557316Y-98249502D01*
X166557314Y-98249500D01*
X166492430Y-98212039D01*
X166443187Y-98183608D01*
X166338090Y-98155448D01*
X166315892Y-98149500D01*
X166184108Y-98149500D01*
X166056812Y-98183608D01*
X165942686Y-98249500D01*
X165942683Y-98249502D01*
X165849502Y-98342683D01*
X165849500Y-98342686D01*
X165783608Y-98456812D01*
X165749500Y-98584108D01*
X165749500Y-98715892D01*
X165760638Y-98757461D01*
X165783608Y-98843187D01*
X165811334Y-98891209D01*
X165849500Y-98957314D01*
X165942686Y-99050500D01*
X166056814Y-99116392D01*
X166184108Y-99150500D01*
X166184110Y-99150500D01*
X166315890Y-99150500D01*
X166315892Y-99150500D01*
X166443186Y-99116392D01*
X166514519Y-99075207D01*
X166582417Y-99058735D01*
X166648444Y-99081587D01*
X166691635Y-99136508D01*
X166695565Y-99147898D01*
X166696028Y-99149488D01*
X166746776Y-99258316D01*
X166800779Y-99312319D01*
X166834264Y-99373642D01*
X166829280Y-99443334D01*
X166816897Y-99467837D01*
X166809868Y-99478591D01*
X166746776Y-99541684D01*
X166696028Y-99650513D01*
X166695653Y-99653354D01*
X166687496Y-99665837D01*
X166667379Y-99683000D01*
X166649907Y-99702844D01*
X166641151Y-99705377D01*
X166634343Y-99711186D01*
X166609310Y-99714589D01*
X166583697Y-99722000D01*
X166398523Y-99722000D01*
X166349274Y-99711800D01*
X166346193Y-99710467D01*
X166200000Y-99667993D01*
X166161155Y-99697160D01*
X166095725Y-99721671D01*
X166086702Y-99722000D01*
X165813298Y-99722000D01*
X165746259Y-99702315D01*
X165738845Y-99697160D01*
X165699999Y-99667993D01*
X165553806Y-99710467D01*
X165550726Y-99711800D01*
X165501477Y-99722000D01*
X165398028Y-99722000D01*
X165321600Y-99742478D01*
X165253079Y-99782040D01*
X165253076Y-99782042D01*
X165191476Y-99843643D01*
X165130153Y-99877128D01*
X165060461Y-99872144D01*
X165016114Y-99843643D01*
X163386819Y-98214348D01*
X163353334Y-98153025D01*
X163350500Y-98126667D01*
X163350500Y-92205439D01*
X163350500Y-92205438D01*
X163330021Y-92129011D01*
X163323846Y-92118316D01*
X163290464Y-92060495D01*
X163290458Y-92060487D01*
X163071818Y-91841847D01*
X163038333Y-91780524D01*
X163035499Y-91754166D01*
X163035499Y-91540105D01*
X163035499Y-91540100D01*
X163028972Y-91490513D01*
X162978224Y-91381684D01*
X162893316Y-91296776D01*
X162893314Y-91296774D01*
X162887573Y-91292754D01*
X162843950Y-91238176D01*
X162836759Y-91168677D01*
X162838920Y-91159106D01*
X162850500Y-91115892D01*
X162850500Y-90984108D01*
X162816392Y-90856814D01*
X162816294Y-90856645D01*
X162783590Y-90800000D01*
X162750500Y-90742686D01*
X162657314Y-90649500D01*
X162560952Y-90593865D01*
X162536889Y-90579972D01*
X162488674Y-90529404D01*
X162475452Y-90460797D01*
X162501420Y-90395933D01*
X162558334Y-90355405D01*
X162598871Y-90348586D01*
X164871503Y-90348427D01*
X164938543Y-90368107D01*
G37*
%TD.AperFunction*%
%TA.AperFunction,Conductor*%
G36*
X161893039Y-95499685D02*
G01*
X161938794Y-95552489D01*
X161950000Y-95604000D01*
X161950000Y-96258789D01*
X161970910Y-96257145D01*
X162126195Y-96212031D01*
X162265374Y-96129721D01*
X162265383Y-96129714D01*
X162379714Y-96015383D01*
X162379721Y-96015374D01*
X162462030Y-95876196D01*
X162506423Y-95723396D01*
X162544030Y-95664511D01*
X162607502Y-95635304D01*
X162676689Y-95645050D01*
X162729623Y-95690654D01*
X162749499Y-95757636D01*
X162749500Y-95757991D01*
X162749500Y-97050495D01*
X162729815Y-97117534D01*
X162677011Y-97163289D01*
X162607853Y-97173233D01*
X162593407Y-97170270D01*
X162515892Y-97149500D01*
X162384108Y-97149500D01*
X162256812Y-97183608D01*
X162142686Y-97249500D01*
X162142683Y-97249502D01*
X162079005Y-97313181D01*
X162017682Y-97346666D01*
X161991324Y-97349500D01*
X160889967Y-97349500D01*
X160860526Y-97340855D01*
X160830540Y-97334332D01*
X160825524Y-97330577D01*
X160822928Y-97329815D01*
X160802286Y-97313181D01*
X160801786Y-97312681D01*
X160768301Y-97251358D01*
X160773285Y-97181666D01*
X160789756Y-97156036D01*
X160787767Y-97154707D01*
X160812605Y-97117534D01*
X160838867Y-97078231D01*
X160838867Y-97078229D01*
X160838868Y-97078229D01*
X160850499Y-97019752D01*
X160850500Y-97019750D01*
X160850500Y-96580249D01*
X160850499Y-96580247D01*
X160838868Y-96521770D01*
X160838867Y-96521769D01*
X160787767Y-96445293D01*
X160791081Y-96443078D01*
X160768301Y-96401358D01*
X160773159Y-96332007D01*
X160784528Y-96301249D01*
X160794552Y-96294552D01*
X160838867Y-96228231D01*
X160850500Y-96169748D01*
X160850500Y-96122776D01*
X160858192Y-96101967D01*
X160866339Y-96091015D01*
X160870185Y-96077921D01*
X160886784Y-96063537D01*
X160899899Y-96045911D01*
X160912675Y-96041102D01*
X160922989Y-96032166D01*
X160944729Y-96029040D01*
X160965291Y-96021302D01*
X160978637Y-96024164D01*
X160992147Y-96022222D01*
X161012128Y-96031347D01*
X161033608Y-96035954D01*
X161043287Y-96045577D01*
X161055703Y-96051247D01*
X161062181Y-96057279D01*
X161134616Y-96129714D01*
X161134625Y-96129721D01*
X161273804Y-96212031D01*
X161429089Y-96257145D01*
X161450000Y-96258789D01*
X161450000Y-95604000D01*
X161469685Y-95536961D01*
X161522489Y-95491206D01*
X161574000Y-95480000D01*
X161826000Y-95480000D01*
X161893039Y-95499685D01*
G37*
%TD.AperFunction*%
%TA.AperFunction,Conductor*%
G36*
X145041206Y-92820185D02*
G01*
X145061848Y-92836819D01*
X145613181Y-93388152D01*
X145646666Y-93449475D01*
X145649500Y-93475833D01*
X145649500Y-93619752D01*
X145661131Y-93678229D01*
X145661132Y-93678230D01*
X145709297Y-93750313D01*
X145709800Y-93750690D01*
X145710117Y-93751540D01*
X145712233Y-93754707D01*
X145711484Y-93755206D01*
X145719034Y-93775449D01*
X145731699Y-93798642D01*
X145731053Y-93807671D01*
X145734217Y-93816154D01*
X145728600Y-93841974D01*
X145726715Y-93868334D01*
X145720896Y-93877387D01*
X145719365Y-93884427D01*
X145698214Y-93912681D01*
X145697714Y-93913181D01*
X145636391Y-93946666D01*
X145610033Y-93949500D01*
X145106168Y-93949500D01*
X145039129Y-93929815D01*
X144993374Y-93877011D01*
X144982550Y-93815772D01*
X144983791Y-93800001D01*
X144983790Y-93800000D01*
X144329000Y-93800000D01*
X144261961Y-93780315D01*
X144216206Y-93727511D01*
X144205000Y-93676000D01*
X144205000Y-93424000D01*
X144224685Y-93356961D01*
X144277489Y-93311206D01*
X144329000Y-93300000D01*
X144983790Y-93300000D01*
X144982145Y-93279089D01*
X144937031Y-93123804D01*
X144856493Y-92987621D01*
X144854837Y-92981096D01*
X144850431Y-92976011D01*
X144846355Y-92947664D01*
X144839310Y-92919897D01*
X144841444Y-92913513D01*
X144840487Y-92906853D01*
X144852385Y-92880799D01*
X144861470Y-92853634D01*
X144866716Y-92849418D01*
X144869512Y-92843297D01*
X144893606Y-92827812D01*
X144915936Y-92809871D01*
X144924015Y-92808269D01*
X144928290Y-92805523D01*
X144963225Y-92800500D01*
X144974167Y-92800500D01*
X145041206Y-92820185D01*
G37*
%TD.AperFunction*%
%TA.AperFunction,Conductor*%
G36*
X168432959Y-90367862D02*
G01*
X168478718Y-90420663D01*
X168488666Y-90489821D01*
X168465195Y-90546491D01*
X168456648Y-90557907D01*
X168456645Y-90557913D01*
X168406403Y-90692620D01*
X168406401Y-90692627D01*
X168400000Y-90752155D01*
X168400000Y-91289433D01*
X168380315Y-91356472D01*
X168327511Y-91402227D01*
X168258353Y-91412171D01*
X168194797Y-91383146D01*
X168171006Y-91355405D01*
X168110429Y-91258997D01*
X168110427Y-91258993D01*
X168014653Y-91138900D01*
X168014651Y-91138899D01*
X167475301Y-91678250D01*
X167413978Y-91711735D01*
X167344286Y-91706751D01*
X167298900Y-91674996D01*
X167297962Y-91675935D01*
X167124065Y-91502038D01*
X167125159Y-91500943D01*
X167090703Y-91448159D01*
X167090206Y-91378291D01*
X167121748Y-91324697D01*
X167661099Y-90785346D01*
X167540998Y-90689567D01*
X167362231Y-90577241D01*
X167315940Y-90524906D01*
X167305292Y-90455853D01*
X167333667Y-90392004D01*
X167392056Y-90353632D01*
X167428183Y-90348248D01*
X168365921Y-90348182D01*
X168432959Y-90367862D01*
G37*
%TD.AperFunction*%
%TD*%
M02*
